<svg width="3000" height="455" viewBox="0 0 3000 455" fill="none" xmlns="http://www.w3.org/2000/svg">
<path d="M1726.43 118.231C1739.65 115.618 1752.49 113.203 1765.33 110.788C1765.3 110.449 1765.26 110.11 1765.22 109.771C1760.47 110.358 1755.72 110.986 1750.96 111.524C1740.51 112.707 1730.05 113.743 1719.61 115.026C1707.01 116.575 1694.46 118.467 1681.85 119.91C1675.64 120.621 1669.35 120.663 1663.1 120.998C1660.1 121.158 1656.66 120.82 1657.28 117.057C1657.61 115.121 1660.62 113.127 1662.85 112.155C1665.1 111.175 1667.88 111.427 1671.02 111.072C1668.48 109.925 1666.01 109.544 1664.93 108.112C1663.88 106.72 1664.26 104.251 1663.98 102C1661.89 102 1659.23 102.009 1656.57 101.998C1653.48 101.984 1649.44 102.397 1649.22 98.358C1648.99 94.1044 1652.72 93.4929 1655.93 93.9814C1656.23 84.4875 1664.57 85.4399 1671.16 82.6415C1655.04 83.1187 1640.16 83.5529 1625.28 84.0066C1622.96 84.0775 1620.04 84.2778 1620.34 81.1768C1620.46 79.9638 1623.55 78.7456 1625.48 78.0987C1626.95 77.6028 1628.73 78 1630.42 77.2499C1628.45 77.1154 1626.27 77.4535 1624.58 76.6932C1623.29 76.1097 1622.62 74.1414 1620.93 71.7332C1609.48 72.4659 1596.51 73.2956 1583.18 74.1478C1582.14 81.7567 1586.95 87.5866 1589.57 94.8622C1585.69 95.4385 1582.33 95.9399 1578.96 96.4412C1579 96.7402 1579.04 97.0392 1579.08 97.3381C1583.06 98.0747 1587.05 98.8112 1591.04 99.5477C1591.18 100.271 1591.32 100.993 1591.45 101.716C1588.89 102.785 1585.87 105.32 1583.85 104.677C1572.86 101.174 1562.14 105.026 1551.34 105.151C1546.08 105.212 1540.88 107.292 1535.6 107.633C1532.18 107.854 1528.49 107.072 1525.24 105.875C1519.14 103.627 1513.22 104.856 1507.07 105.216C1497.44 105.781 1487.74 105.165 1478.07 104.887C1477.29 104.865 1476.55 103.587 1475.04 102.199C1485.02 101.188 1494 100.523 1502.89 99.2837C1507.88 98.5883 1512.79 97.1202 1517.64 95.6827C1523.61 93.915 1529.49 91.8508 1535.37 89.8123C1536.03 89.5843 1536.41 88.6316 1537 88.1156C1540.81 84.8091 1544.82 82.2276 1550.25 83.9621C1553.2 84.9022 1556.1 85.1347 1558.66 82.7622C1562.93 78.81 1568.13 76.1119 1571.82 71.1851C1573.73 68.6343 1578.57 68.0225 1582.23 67.102C1586.56 66.0109 1591.06 65.5306 1595.42 64C1591.55 64 1587.65 64.2654 1583.81 63.9203C1580.43 63.6168 1576.09 63.6842 1574.02 61.6803C1571.38 59.1224 1570.48 54.6921 1569.18 50.9443C1569.02 50.4799 1571.08 49.2529 1573.48 47.2085C1568.25 47.1278 1564.11 47.042 1559.97 47.006C1555.73 46.9691 1551.4 47.3014 1548.14 43.0001C1555.17 43.0001 1562.21 42.8799 1569.25 43.0281C1580 43.2547 1590.75 43.6429 1601.5 44.0074C1610.26 44.3041 1619.01 44.7928 1627.76 44.9639C1636.26 45.13 1644.77 45.13 1653.26 44.9628C1661.52 44.8005 1669.77 44.265 1678.02 44.0261C1682.83 43.887 1687.65 43.865 1692.45 44.114C1693.65 44.1765 1694.79 45.4858 1695.85 46.8888C1662.19 49.9122 1628.63 52.2769 1595.54 58.9942C1612.78 58.9942 1630.06 59.6402 1647.26 58.8012C1662.55 58.0554 1677.73 55.1183 1693.02 54.1479C1708.89 53.1405 1724.84 53.3152 1740.76 53.0415C1741.79 53.0239 1742.82 53.5944 1743.86 54.9729C1740.15 55.6482 1736.46 56.6394 1732.72 56.9313C1725.49 57.4959 1718.2 57.4585 1710.98 58.1234C1708.75 58.3294 1706.73 60.492 1704.46 60.9079C1697.61 62.1627 1690.66 62.8501 1683.79 64.0344C1673.95 65.7312 1664.15 67.6718 1653.23 69.7155C1655.26 70.3314 1656.37 70.9849 1657.45 70.9469C1663.87 70.722 1670.29 70.0925 1676.71 70.0778C1682.46 70.0647 1688.21 70.831 1693.96 70.9613C1701.28 71.1273 1708.63 71.2511 1715.94 70.9181C1721.8 70.6515 1727.61 69.3378 1733.47 69.0841C1746.38 68.5247 1759.3 68.3208 1772.22 68.0509C1773.08 68.033 1773.95 68.6804 1774.9 70.0404C1768.14 71.4257 1761.39 72.8109 1754.43 74.2384C1754.72 75.4002 1755.01 76.5557 1755.51 78.5889C1766.41 77.362 1777.45 76.2018 1788.46 74.8488C1794.89 74.0584 1801.31 73.078 1807.69 71.9768C1823.86 69.1901 1840.32 69.3122 1856.49 65.6283C1868.2 62.962 1880.69 63.7846 1892.83 62.9893C1902.17 62.3771 1911.5 61.4088 1920.85 61.0959C1926.86 60.8946 1932.91 61.5937 1938.94 61.8892C1938.98 62.5966 1939.03 63.304 1939.07 64.0114C1910.58 66.7323 1882.1 69.4532 1853.61 72.174C1853.63 72.4549 1853.64 72.7357 1853.66 73.0165C1862.36 72.5546 1871.06 72.1118 1879.76 71.6152C1881.55 71.5132 1883.33 71.0342 1885.11 71.0278C1899.27 70.9774 1913.44 71.2589 1927.6 70.9249C1941.45 70.5981 1955.28 69.252 1969.12 69.1752C1976.01 69.137 1982.9 70.9621 1989.8 71.8871C1991.11 72.0626 1992.46 72.046 1993.79 71.9882C2008.63 71.3401 2023.46 70.2188 2038.3 70.1919C2045.54 70.1788 2052.79 72.1923 2060.04 73.2885C2060.04 74.0076 2060.05 74.7267 2060.05 75.4458C2048.32 76.2972 2036.48 76.4481 2024.88 78.1971C2013.3 79.9435 2001.18 76.7004 1989.94 81.0933C1989.9 81.8196 1989.86 82.5458 1989.82 83.2721C1992.65 83.848 1995.45 84.7356 1998.31 84.9447C2009.3 85.7502 2020.31 86.2982 2031.31 87.0746C2032.33 87.1469 2033.29 88.1528 2034.28 88.7253C2034.17 89.1879 2034.07 89.6506 2033.96 90.1132C2029.31 90.4088 2024.66 90.8238 2020.01 90.9669C2015.18 91.1152 2010.35 90.9999 2005.82 90.9999C2006.76 92.803 2007.72 94.6483 2008.42 95.9999C2016.4 95.9999 2024.44 96.2478 2032.46 95.9401C2043.64 95.5111 2054.8 94.5948 2065.98 94.0415C2069.56 93.8644 2073.19 93.9999 2074.13 98.7987C2074.24 99.356 2076.09 99.3953 2076.72 100.066C2077.95 101.384 2079.8 103.066 2079.67 104.432C2079.54 105.731 2077.31 107.705 2075.85 107.855C2066.54 108.805 2057.17 109.119 2047.86 110.049C2033.08 111.526 2018.34 113.306 2003.59 114.989C1992.09 116.301 1980.59 117.653 1969.1 119.007C1966.68 119.292 1964.27 119.888 1961.85 119.919C1960.35 119.938 1957.83 119.505 1957.54 118.671C1957.02 117.134 1957.81 115.151 1958.08 113.22C1955.93 113.22 1953.09 112.922 1950.33 113.295C1946.84 113.768 1945.24 111.271 1945.35 109.109C1945.42 107.664 1948.3 105.667 1950.24 105.155C1953.65 104.258 1957.31 104.313 1961.49 103.908C1955.98 96.5826 1949.03 102.051 1942.96 100.773C1943.96 96.263 1953.53 100.014 1950.74 92.5347C1945.86 89.7407 1938.26 96.0304 1934.9 87.9999C1927.41 87.9999 1919.87 88.1416 1912.34 87.8782C1910.87 87.8266 1908.66 86.5162 1908.16 85.247C1906.95 82.1725 1909.46 80.6474 1911.93 80.1303C1915.26 79.4296 1918.73 79.338 1922.14 79.0053C1923.25 78.8968 1924.37 78.8513 1925.43 77.6073C1918.61 78.061 1911.79 78.5162 1904.96 78.9655C1904.46 78.9983 1903.96 78.984 1903.46 78.9999C1893.04 79.3325 1882.63 79.6581 1872.21 80.0023C1862.46 80.3245 1852.7 80.8903 1842.95 80.8902C1839.03 80.8901 1835.02 78.776 1831.21 79.1687C1820.24 80.2999 1809.36 82.2758 1798.43 83.8087C1790.21 84.9614 1781.96 85.9394 1773.73 87.0014C1770.36 87.4362 1766.99 87.8874 1763.66 89.0802C1772.37 88.5929 1781.07 88.0191 1789.79 87.6444C1797.4 87.3171 1805.02 87.0569 1812.63 87.1814C1813.77 87.2 1814.87 89.488 1815.99 90.7261C1814.7 91.8174 1813.49 93.7344 1812.12 93.8642C1803.94 94.6348 1795.73 94.9916 1787.51 95.9999C1794.76 95.9999 1802.01 96.0631 1809.26 95.9691C1812.19 95.9311 1815.24 96.4525 1814.74 99.8158C1814.45 101.741 1811.84 103.909 1809.78 104.803C1807.81 105.653 1805.19 104.986 1802.43 104.986C1802.42 110.899 1797.98 112.222 1793.44 112.954C1780.15 115.095 1766.86 117.254 1753.51 118.921C1742.92 120.243 1732.24 120.849 1721.6 121.774C1721.48 121.213 1721.36 120.653 1721.24 120.093C1722.85 119.538 1724.45 118.984 1726.43 118.231Z" fill="#FFF2EB"/>
<path d="M1029.12 92C1037.86 91.667 1046.1 91.2063 1054.36 91.0647C1057.6 91.009 1060.86 91.9805 1064.11 91.9311C1069.86 91.8434 1075.62 91.0072 1081.36 91.059C1101.45 91.24 1121.54 91.4112 1141.61 92.1124C1151.04 92.4418 1160.44 93.8879 1169.82 95.0435C1171.28 95.2233 1173.68 96.4812 1173.74 97.3776C1173.85 98.8647 1172.42 100.463 1171.34 102.59C1173.12 107.576 1172.16 109.65 1166.38 109.919C1158.54 110.284 1150.64 109.521 1142.83 110.115C1131.62 110.967 1120.48 112.64 1109.3 113.895C1102.48 114.662 1095.64 115.208 1088.82 116.022C1078.64 117.24 1068.48 118.67 1058.3 119.887C1051.48 120.702 1044.63 121.207 1037.82 122.023C1027.63 123.241 1017.49 124.8 1007.29 125.832C1002.36 126.332 997.338 126.101 992.371 125.884C991.224 125.834 990.133 124.487 989.017 123.737C989.939 122.82 990.73 121.32 991.803 121.079C999.968 119.248 1008.17 117.557 1016.4 116.046C1020.38 115.314 1024.45 115.064 1028.48 114C1019.89 114 1011.07 115.27 1002.78 113.698C990.793 111.423 978.818 114.396 966.929 112.159C963.55 111.523 961.549 109.95 961.519 107.211C961.489 104.49 963.399 102.191 966.759 101.986C971.016 101.727 975.26 101.261 979.517 101.018C986.432 100.622 993.363 100.465 1000.27 99.9681C1009.69 99.2911 1019.09 98.3902 1029.15 97.5296C1021.81 96.9873 1015.13 96.3798 1008.44 96.0237C994.441 95.2786 980.433 94.6979 966.433 93.978C962.674 93.7846 958.892 93.5422 955.191 92.909C953.42 92.606 951.814 91.3376 950.366 89.8806C946.924 88.7171 943.862 88.8913 940.555 91.7838C938.195 93.8484 933.892 93.6911 931.661 94.2325C932.622 96.3039 934.614 98.8198 934.602 101.326C934.596 102.56 931.017 104.389 928.82 104.867C924.866 105.728 921.745 107.456 918.273 109.624C910.951 114.195 902.612 117.135 894.69 120.745C894.294 120.031 893.897 119.316 893.5 118.602C896.943 116.227 900.386 113.852 902.627 112.306C894.666 112.306 885.649 112.086 876.648 112.37C868.205 112.636 859.763 113.268 851.348 114.039C838.497 115.216 825.667 116.63 812.833 117.981C803.581 118.956 794.335 119.988 785.087 121.002C781.513 121.394 777.926 122.206 774.373 122.074C771.996 121.985 769.001 121.151 767.583 119.519C766.812 118.631 768.755 115.384 769.539 113C763.313 113 756.138 112.929 748.966 113.03C745.358 113.081 742.021 112.379 742.14 108.147C742.25 104.25 745.204 103.207 749.015 102.894C761.702 101.851 774.348 100.314 787.018 99.0527C791.757 98.5807 796.517 98.2874 801.272 98.0099C818.854 96.984 836.442 96.0433 854.02 94.9534C856.885 94.7758 859.714 94.0068 862.56 93.5112C862.521 93.0894 862.483 92.6676 862.445 92.2459C852 93.152 841.57 94.2917 831.108 94.8999C820.207 95.5336 809.278 95.7205 798.358 95.9734C792.546 96.108 786.728 95.997 780.913 95.907C780.374 95.8987 779.846 95.239 778.194 94.133C782.051 92.9182 785.001 91.4607 788.075 91.1155C799.133 89.874 810.216 88.7056 821.321 88.0712C837.81 87.1292 854.328 86.7293 870.828 85.9641C876.722 85.6908 882.598 85.0262 888.599 84.0977C881.885 83.3985 875.174 82.1564 868.456 82.1171C855.873 82.0436 843.273 82.4009 830.706 83.0771C818.767 83.7196 806.876 85.2876 794.935 85.8724C789.231 86.1517 783.462 85.0963 777.076 83.7677C779.688 82.5207 782.191 80.5781 784.932 80.1479C796.348 78.3559 807.836 77.0191 819.487 74.4466C812.804 73.7609 806.122 73.0751 799.111 72.3557C799.328 69.3708 801.506 68.3088 804.334 68.0077C827.023 65.5931 849.767 64.8072 872.588 64.8681C887.091 64.9069 901.592 63.4461 916.104 63.0934C923.329 62.9178 930.577 63.7217 937.903 64.6459C929.259 70.4222 918.306 65.3877 909.629 71.9469C919.022 71.3156 928.411 70.6068 937.81 70.0888C941.963 69.8599 946.143 70.1471 950.301 69.9786C973.892 69.0228 997.475 67.8055 1021.07 67.1378C1026.92 66.9724 1032.81 68.5157 1038.66 70.0016C1025.01 75.4442 1010.49 72.7582 996.595 76.001C1020.39 76.814 1044.19 77.6271 1067.99 78.4401C1068.06 79.1256 1068.12 79.8111 1068.18 80.4966C1066.48 80.9977 1064.81 81.7087 1063.08 81.9627C1056.41 82.9381 1049.39 82.0049 1043.26 85.8416C1042.77 86.1507 1041.96 85.9773 1041.3 85.9969C1029.88 86.3342 1018.46 86.5734 1007.05 87.0321C999.195 87.3477 991.355 87.9662 983.188 88.4691C987.884 89.0011 992.243 89.6478 996.626 89.9611C1007.29 90.7232 1017.96 91.3304 1029.12 92ZM896.16 97.9619C877.617 98.9523 859.073 99.9427 840.53 100.933C840.559 101.408 840.587 101.883 840.616 102.358C863.512 100.547 886.587 101.651 909.309 96.8005C905.203 97.037 901.097 97.2736 896.16 97.9619Z" fill="#FFF2EB"/>
<path d="M1180.21 66.0001C1172.91 66.463 1166.08 66.9258 1159.25 67.3885C1159.1 66.7114 1158.95 66.0343 1158.8 65.3572C1161.49 64.5715 1164.13 63.4079 1166.86 63.0952C1170.32 62.7005 1173.86 63.1564 1177.35 62.9692C1186.33 62.4871 1195.32 61.975 1204.28 61.2393C1211.09 60.6805 1217.86 59.6135 1224.67 59.0444C1230.55 58.553 1236.47 58.239 1242.36 58.3141C1243.8 58.3325 1245.22 60.1825 1246.64 61.1904C1246.52 61.7333 1246.39 62.2762 1246.26 62.8191C1239.86 64.8179 1233.45 66.8167 1227.05 68.8156C1227.04 69.2102 1227.04 69.6049 1227.03 69.9995C1231.14 69.9995 1235.25 70.0988 1239.36 69.9793C1248.61 69.7104 1257.88 69.5876 1267.11 68.9438C1283.29 67.8146 1299.45 66.3301 1315.63 65.0141C1320.21 64.6414 1324.8 64.384 1329.38 63.9923C1342.58 62.8625 1355.79 61.6745 1369 60.5631C1370.26 60.4568 1371.55 60.7267 1372.83 60.822C1372.92 60.4093 1373 59.9966 1373.09 59.5839C1370.12 59.056 1367.16 58.1687 1364.18 58.062C1350.86 57.5862 1337.53 57.4804 1324.21 56.9524C1314.06 56.5497 1303.92 55.4442 1293.77 55.2076C1289.86 55.1166 1287.2 53.911 1284.23 50.5663C1286.04 50.3005 1287.05 50.0273 1288.07 50.0203C1294.07 49.9791 1300.07 50.1577 1306.06 49.9708C1324.9 49.3831 1343.74 48.8605 1362.56 47.9333C1376 47.2712 1389.39 45.7945 1402.83 45.0508C1418.89 44.1616 1434.98 43.6678 1451.06 42.9984C1454 42.8758 1457.38 43.8151 1458.43 39.4352C1458.58 38.7671 1460.3 38.1837 1461.36 38.0593C1472.99 36.6866 1484.63 35.3971 1496.28 34.1684C1496.75 34.1193 1497.3 34.9009 1499.31 36.4481C1489.86 37.954 1481.74 39.2469 1473.73 40.523C1474.93 43.1737 1472.81 45.9726 1468.61 46.853C1461.4 48.3621 1454.25 50.1654 1447 51.4567C1435.68 53.4747 1424.31 55.2076 1412.94 56.9754C1409.72 57.4768 1406.37 57.3681 1403.23 58.1485C1401.61 58.5532 1400.35 60.3385 1398.85 61.4061C1397.97 62.0324 1397.01 62.8119 1396.01 62.9452C1387.78 64.0404 1379.5 64.7537 1371.33 66.1491C1368.84 66.5736 1366.52 68.5869 1364.38 70.2019C1362.53 71.589 1361.05 73.4492 1359.4 75.0944C1354.43 80.0435 1353.68 80.039 1349.18 74.9447C1347.5 75.7727 1345.82 77.2069 1344.05 77.3165C1341.74 77.46 1339.34 76.663 1337.03 76.0757C1334.71 75.4873 1332.47 74.5841 1330.16 73.9589C1328.19 73.424 1326.18 72.9159 1324.15 72.7014C1320.73 72.3402 1317.27 71.8729 1313.87 72.0665C1304.3 72.6104 1294.9 74.0388 1286.5 79.1574C1283.61 80.9183 1280.84 82.8821 1277.91 84.5684C1274.69 86.4188 1271.46 87.3147 1268.9 83.0149C1270.23 80.6415 1271.63 78.146 1272.83 76C1263.06 76 1253.25 75.8906 1243.44 76.1015C1241.69 76.1392 1240.03 77.8159 1238.22 78.1914C1234.45 78.9729 1230.62 79.7418 1226.79 79.8855C1217.99 80.2155 1209.18 80.2084 1200.37 80.2547C1196.52 80.275 1192.63 80.4224 1188.83 79.9378C1177.26 78.4631 1165.75 77.6425 1154.05 78.8526C1146.47 79.6365 1138.74 79.128 1131.08 78.9604C1124.68 78.8204 1118.26 78.5642 1111.9 77.8998C1108.95 77.5908 1106.1 76.1915 1102.84 74.4093C1105.28 73.9405 1107.71 73.136 1110.17 73.0669C1116.99 72.8748 1123.84 73.2336 1130.65 72.8997C1135.67 72.6535 1140.64 71.3083 1145.66 71.0709C1157.4 70.5161 1169.17 70.5522 1180.9 69.8785C1184.88 69.6499 1188.78 68.0103 1192.48 66C1188.55 66 1184.62 66 1180.21 66.0001Z" fill="#FFF2EB"/>
<path d="M1450.29 37.0206C1446.47 37.5727 1443.13 38.3144 1439.75 38.6037C1427.89 39.6196 1416.02 40.4798 1404.16 41.3991C1404.1 40.723 1404.05 40.047 1404 39.3709C1429.15 37.0637 1454.31 34.7566 1479.46 32.4495C1479.52 33.0697 1479.59 33.69 1479.65 34.3103C1470.02 35.2078 1460.39 36.1054 1450.29 37.0206Z" fill="#FFF2EB"/>
<path d="M1347.75 42.9999C1350.66 42.8391 1353.11 42.6782 1355.56 42.5173C1355.59 43.1223 1355.62 43.7272 1355.65 44.3321C1336.57 45.4473 1317.5 46.5624 1298.42 47.6775C1298.37 47.0113 1298.32 46.345 1298.26 45.6787C1306.36 45.1207 1314.45 44.472 1322.56 44.0299C1330.79 43.5806 1339.04 43.3349 1347.75 42.9999Z" fill="#FFF2EB"/>
<path d="M896.576 97.7361C901.097 97.2736 905.203 97.0371 909.309 96.8005C886.587 101.652 863.512 100.547 840.616 102.358C840.587 101.883 840.559 101.408 840.53 100.933C859.073 99.9428 877.617 98.9524 896.576 97.7361Z" fill="black"/>
</svg>
