<svg width="3000" height="455" viewBox="0 0 3000 455" fill="none" xmlns="http://www.w3.org/2000/svg">
<g id="Vector1" clip-path="url(#clip0_1_2)">
<path id="Vector" d="M1 224.469C6.13979 230.539 11.3567 237.02 16.3896 243.64C19.2649 247.422 22.3781 249.448 27.4518 247.923C40.1604 244.104 52.9657 240.605 65.7404 237.008C66.6658 236.747 67.8133 236.337 68.5937 236.652C73.6616 238.693 79.354 240.017 83.5331 243.262C92.8554 250.5 103.468 251.624 114.239 250.614C125.893 249.52 137.155 250.284 148.34 253.339C157.317 255.792 166.151 258.24 175.757 257.614C179.119 257.395 182.709 260.962 186.227 262.736C187.944 263.601 190.108 265.382 191.431 264.92C197.439 262.821 201.016 266.799 205.386 269.35C207.535 270.605 210.417 270.909 212.996 271.03C215.264 271.137 217.577 270.059 219.863 270.085C225.434 270.148 230.406 269.354 235.47 266.251C239.171 263.983 244.667 262.752 248.866 263.58C257.924 265.365 263.627 261.877 266.904 254.277C272.61 241.045 284.562 238.787 296.523 236.187C302.158 234.962 307.76 233.577 313.42 232.488C314.488 232.282 316.075 232.799 316.871 233.559C318.536 235.151 320.335 236.917 321.194 238.981C324.825 247.699 333.31 249.26 340.65 252.365C342.063 252.963 344.562 251.954 346.124 250.985C347.906 249.88 349.747 248.247 350.618 246.398C356.096 234.78 366.823 229.747 377.247 224.012C380.465 222.242 382.714 218.44 384.977 215.262C389.879 208.377 394.081 200.944 399.455 194.47C401.538 191.961 405.964 190.397 409.412 190.227C416.931 189.857 424.318 189.966 431.238 186.204C435.422 183.929 438.609 185.579 441.391 189.474C446.212 196.224 451.578 202.582 456.64 209.164C460.2 213.793 464.743 215.795 470.574 215.021C476.088 214.289 479.093 216.247 481.233 222.008C483.236 227.404 487.645 231.974 491.287 236.682C502.199 250.791 498.509 250.345 516.924 245.226C526.661 242.518 536.343 239.615 546.066 236.855C546.975 236.597 548.128 236.412 548.944 236.744C553.854 238.739 559.376 240.022 563.428 243.171C572.721 250.392 583.331 251.638 594.102 250.626C606.099 249.499 617.564 250.782 629.196 253.445C637.837 255.423 646.861 255.689 655.563 257.461C659.279 258.218 662.601 260.887 666.12 262.65C667.844 263.514 669.966 265.371 671.296 264.93C677.71 262.806 681.569 266.856 685.991 269.994C687.353 270.96 689.546 271.989 690.873 271.544C695.16 270.106 698.534 271.923 702.289 273.342C708.802 275.803 715.542 277.655 722.131 279.926C724.922 280.889 727.634 282.138 730.266 283.485C733.718 285.252 735.05 284.166 735.385 280.479C735.887 274.947 736.708 269.443 737.394 263.926C738.07 263.919 738.746 263.912 739.423 263.904C739.79 270.809 740.157 277.714 740.516 284.467C740.957 283.759 741.664 282.622 742.804 280.79C743.356 282.336 743.982 283.198 743.883 283.967C743.462 287.25 745.324 287.553 747.975 288.091C755.441 289.605 762.966 291.155 770.134 293.651C772.779 294.572 774.73 298.006 776.533 300.615C777.506 302.022 777.553 304.096 777.92 305.889C779.2 312.149 782.72 315.893 790.728 316.366C790.728 313.84 790.73 311.416 790.727 308.992C790.726 308.504 790.543 307.944 790.721 307.539C792.774 302.846 794.872 298.172 796.976 293.502C799.615 287.644 802.27 281.793 805.252 275.203C806.865 285.296 809.06 294.743 809.582 304.282C809.811 308.461 811.249 312.692 810.641 316.617C809.69 322.759 813.479 323.654 817.552 324.736C821.532 325.793 825.597 326.525 829.584 327.557C835.422 329.068 837.544 327.659 839.182 321.697C840.456 317.063 842.24 312.568 843.797 308.011C844.437 308.21 845.076 308.408 845.716 308.607C844.188 313.614 842.659 318.62 841.131 323.627C841.382 323.732 841.634 323.836 841.885 323.941C843.29 321.683 844.695 319.426 846.099 317.168C846.507 317.325 846.914 317.482 847.321 317.64C846.311 320.942 845.3 324.244 844.066 328.275C848.923 327.709 853.313 326.785 857.687 326.858C859.955 326.895 863.415 328.112 864.226 329.806C867 335.602 872.017 338.669 876.743 342.31C878.84 343.925 880.213 346.466 881.969 348.541C882.782 349.502 883.761 350.319 884.598 351.26C885.728 352.53 886.644 354.033 887.919 355.122C890.746 357.537 893.74 359.756 897.357 362.598C898.061 359.89 898.376 358.677 898.987 357.547C901.731 364.972 907.135 359.9 911.203 360.448C907.118 359.31 903.032 358.172 898.947 357.034C901.624 356.079 904.3 355.124 907.526 353.973C905.458 353.344 903.495 352.65 901.48 352.174C900.375 351.913 898.94 352.407 898.088 351.871C896.87 351.103 896.05 349.704 895.06 348.574C896.277 348.044 897.507 347.045 898.708 347.078C901.618 347.159 904.514 347.722 907.74 347.055C905.628 345.98 903.517 344.905 900.99 343.618C901.698 342.728 902.236 342.051 902.822 341.315C900.245 339.116 897.59 336.851 894.935 334.587C895.095 334.26 895.254 333.934 895.414 333.607C899.32 334.414 903.226 335.221 907.88 336.231C910.789 336.63 912.949 336.826 915.11 337.022C915.12 336.778 915.13 336.534 915.141 336.29C912.88 336.035 910.62 335.781 908.359 335.527C905.613 333.905 902.866 332.284 898.699 329.824C902.424 328.601 904.603 327.886 907.847 326.822C904.369 325.485 901.747 324.477 899.125 323.469C899.171 323.071 899.218 322.673 899.265 322.275C901.007 322.468 902.756 322.616 904.491 322.866C906.436 323.148 908.367 323.523 910.536 323.265C909.31 322.688 908.085 322.111 906.269 321.257C907.768 320.42 908.855 319.812 910.065 319.137C906.909 317.31 903.993 315.623 901.076 313.936C901.144 313.451 901.211 312.967 901.279 312.482C903.773 312.011 906.254 311.256 908.764 311.148C911.33 311.037 913.923 311.561 916.712 311.109C911.872 308.791 907.031 306.472 902.191 304.153C902.3 303.727 902.41 303.3 902.519 302.874C907.43 303.534 912.341 304.194 917.251 304.854C917.36 304.551 917.468 304.248 917.576 303.945C912.99 302.127 908.326 300.474 903.86 298.397C902.4 297.719 901.454 295.937 900.272 294.659C900.533 294.179 900.793 293.698 901.053 293.218C907.773 293.766 914.492 294.314 921.211 294.862C921.255 294.348 921.299 293.833 921.343 293.318C919.175 293.064 917.008 292.809 913.898 292.444C915.281 291.434 915.875 291 916.465 290.568C914.079 289.779 911.67 288.982 909.261 288.185C909.283 287.869 909.305 287.554 909.327 287.238C910.39 286.926 911.454 286.615 913.816 285.922C909.389 282.368 905.78 279.471 902.171 276.573C902.264 276.294 902.357 276.015 902.45 275.736C905.623 276.686 908.764 277.766 911.978 278.549C915.06 279.299 918.217 279.741 921.341 280.319C921.439 279.927 921.536 279.535 921.633 279.142C919.391 277.734 917.149 276.325 914.907 274.916C915.05 274.546 915.192 274.176 915.335 273.806C917.328 273.806 919.321 273.806 922.872 273.806C919.837 271.411 917.753 269.767 915.434 267.938C918.063 266.919 921.402 266.582 922.873 264.747C924.015 263.323 922.825 260.029 922.653 257.265C928.123 253.403 928.156 251.994 922.436 246.743C933.099 237.985 934.52 235.46 931.456 231.094C933.357 227.199 935.206 223.41 937.198 219.33C938.668 223.229 940.231 226.623 941.128 230.186C941.422 231.356 939.99 232.962 938.902 235.341C941.821 240.397 945.355 246.519 948.751 252.404C947.095 253.971 945.757 255.237 944.158 256.634C943.761 256.734 943.625 256.703 943.49 256.671C943.544 256.912 943.598 257.152 943.652 257.392C945.96 259.624 948.458 261.698 950.499 264.153C951.574 265.447 951.849 267.405 952.324 269.436C952.162 269.809 951.931 270.072 951.774 270.091C951.401 270.266 951.186 270.423 950.97 270.579C951.323 270.727 951.676 270.875 952.015 271.009C952.002 270.996 951.975 270.969 951.975 270.969C954.54 272.873 957.105 274.778 959.749 276.74C955.632 281.982 950.422 279.917 945.186 278.591C947.663 284.14 956.127 286.277 965.642 284.132C966.142 284.154 966.344 284.385 966.344 284.385C960.755 289.694 959.585 290.125 953.007 289.627C953.276 291.296 953.572 293.135 954.06 296.154C956.671 297.129 960.936 298.722 965.201 300.315C965.137 300.811 965.074 301.307 965.01 301.804C961.312 301.58 957.615 301.357 953.918 301.133C953.868 301.547 953.818 301.962 953.769 302.376C959.305 303.255 964.84 304.135 970.376 305.014C970.451 305.3 970.527 305.585 970.602 305.871C968.247 306.431 965.892 306.992 963.538 307.553C963.479 307.821 963.42 308.089 963.361 308.357C966.532 308.725 969.703 309.092 972.873 309.459C972.967 309.903 973.061 310.346 973.155 310.79C966.839 312.513 960.523 314.236 954.667 315.833C954.869 315.952 956.221 316.361 956.89 317.272C957.412 317.984 957.087 319.318 957.172 321.063C961.029 321.063 965.583 321.063 970.138 321.063C970.259 321.528 970.38 321.993 970.501 322.458C965.67 324.736 960.84 327.014 956.009 329.291C955.926 329.925 955.843 330.56 955.76 331.194C959.621 332.395 963.482 333.597 967.448 334.831C968.296 336.523 969.366 338.659 970.835 341.591C968.09 342.78 965.103 344.073 962.162 345.347C964.363 345.925 966.899 346.591 969.435 347.257C969.424 347.586 969.413 347.915 969.402 348.244C968.19 348.657 966.977 349.071 965.764 349.484C965.99 349.98 966.215 350.477 966.441 350.974C969.19 349.618 971.939 348.262 974.772 346.53C974.856 346.154 975.066 345.924 975.177 345.857C975.373 345.68 975.544 345.489 975.526 345.47C975.36 345.287 975.162 345.134 974.986 344.982C974.999 344.992 975.026 345.009 975.026 345.009C974.897 343.78 974.767 342.551 974.564 340.632C977.738 342.332 980.289 343.697 982.839 345.062C983.197 344.574 983.555 344.086 983.914 343.597C982.309 342.104 980.704 340.611 978.567 338.623C979.731 337.567 980.929 336.48 982.446 335.453C982.955 335.436 983.145 335.36 983.335 335.284C983.25 335.17 983.165 335.055 983.081 334.941C983.487 330.313 983.894 325.685 984.301 321.057C984.78 321.034 985.259 321.011 985.738 320.988C986.377 325.578 987.016 330.169 987.659 334.794C992.226 334.767 998.943 344.328 998.405 351.134C1000.87 348.759 1003.01 347.087 1001.23 343.356C1000.56 341.933 1001.14 339.539 1001.86 337.902C1003.27 334.728 1005.17 331.776 1007.05 328.314C1007.02 327.815 1006.82 327.734 1006.61 327.653C1005.31 327.411 1003.12 327.493 1002.89 326.859C1002.38 325.463 1002.31 323.403 1003.02 322.15C1005.42 317.891 1008.24 313.864 1011.06 309.322C1011.03 308.815 1010.82 308.734 1010.61 308.653C1009.97 308.764 1009.33 308.875 1008.28 308.916C1007.86 308.846 1007.65 308.614 1007.65 308.614C1010.06 299.974 1012.56 291.358 1014.84 282.685C1015.94 278.512 1020.62 275.091 1018.13 270.212C1014.62 263.345 1021.28 258.009 1020.13 251.588C1020.66 251.561 1021.19 251.535 1021.72 251.508C1021.99 256.981 1021.81 262.524 1022.65 267.907C1023.63 274.161 1024.48 280.804 1027.32 286.278C1029.49 290.462 1029.14 294.434 1029.89 298.498C1030.47 301.692 1030.55 305.001 1031.36 308.127C1032.13 311.094 1033.58 313.882 1034.62 316.789C1034.66 316.896 1033.49 317.433 1032.57 317.499C1031.93 316.712 1031.6 316.194 1031.27 315.676C1031.1 315.802 1030.92 315.928 1030.74 316.054C1031.13 316.722 1031.53 317.39 1031.92 318.058C1034.86 324.838 1037.73 331.655 1040.82 338.364C1041.42 339.661 1042.94 340.535 1044.04 341.604C1044.94 340.367 1045.89 339.158 1046.75 337.885C1047.51 336.74 1047.98 334.772 1048.93 334.527C1050.16 334.209 1051.86 335.023 1053.14 335.745C1054.84 336.71 1056.33 338.055 1057.92 339.237C1058.26 338.791 1058.6 338.345 1058.94 337.899C1056.76 335.581 1054.22 333.499 1052.49 330.879C1050.81 328.321 1049.62 325.205 1052.78 322.029C1056.02 325.49 1059.16 328.83 1062.29 332.171C1062.81 331.831 1063.33 331.49 1063.85 331.15C1063.22 329.248 1062.59 327.346 1061.89 325.219C1062.7 324.911 1063.55 324.586 1064.57 324.196C1063.43 320.335 1057.67 318.106 1060.56 312.723C1061.77 313.433 1062.84 314.07 1064.1 314.814C1063.76 309.122 1063.43 303.829 1063.09 298.3C1063.84 298.3 1065.05 298.3 1066.46 298.3C1066.58 298.998 1066.76 299.628 1066.78 300.262C1066.88 304.213 1066.95 308.165 1067.03 312.117C1067.04 312.449 1067 312.999 1067.16 313.078C1074.15 316.494 1068.94 319.862 1067.48 323.624C1066.73 325.55 1067.95 328.239 1068.28 330.584C1071.49 329.566 1074.95 328.997 1077.8 327.369C1079.61 326.339 1080.52 323.729 1081.86 321.773C1085.82 322.724 1086.94 328.006 1083.06 331.17C1079.01 334.469 1074.14 336.756 1070.12 339.191C1071.19 339.759 1072.85 340.644 1075.14 341.86C1077.62 339.997 1080.73 337.657 1083.84 335.317C1084.06 335.498 1084.28 335.679 1084.5 335.86C1083.7 337.357 1082.91 338.853 1082.06 340.667C1082.01 340.984 1082.03 340.973 1081.82 341.027C1081.39 341.683 1081.18 342.285 1081.05 343.026C1081.13 343.165 1081.3 343.443 1081.3 343.443C1077.23 347.096 1073.16 350.749 1069.09 354.402C1069.32 354.804 1069.55 355.205 1069.78 355.607C1075.66 353 1081.53 350.393 1087.58 347.945C1087.97 348.185 1088.18 348.266 1088.39 348.348C1090.07 347.013 1091.76 345.678 1094.45 343.541C1094.08 347.283 1093.79 350.17 1093.5 353.095C1096.94 354.563 1096.94 354.563 1103.27 348.481C1102.03 348.237 1101.03 348.041 1100.14 347.866C1101.44 344.279 1102.7 340.79 1104.11 336.904C1102.33 336.433 1101.17 336.125 1099.58 335.704C1105.56 328.44 1108.55 320.819 1105.12 311.994C1107.41 307.596 1110.78 302.889 1112.35 297.646C1114.05 291.997 1114.07 285.845 1114.82 279.913C1115.35 279.918 1115.87 279.923 1116.39 279.929C1116.59 282.265 1117.08 284.619 1116.94 286.935C1116.57 293.149 1118.36 298.555 1121.4 303.979C1123.35 307.451 1123.73 311.818 1124.71 315.808C1126.13 321.564 1127.35 327.438 1134.8 327.511C1133.83 330.061 1133.14 331.895 1132.17 333.748C1131.76 333.735 1131.63 333.703 1131.49 333.672C1131.54 333.911 1131.6 334.151 1131.65 334.391C1133.53 337.127 1135.41 339.864 1137.43 342.798C1134.39 352.807 1135.37 354.878 1145.15 357.449C1143.8 358.698 1142.69 359.726 1141.31 361.008C1142.47 362.506 1145.57 364.077 1141.37 366.016C1143.23 367.225 1144.56 368.09 1145.87 368.934C1145.65 369.469 1145.6 369.943 1145.4 370.028C1143.69 370.736 1141.96 371.372 1140.23 372.03C1141.36 373.758 1142.27 375.701 1143.67 377.167C1146.04 379.643 1148.73 381.816 1151.42 384.238C1148.81 385.591 1147.14 386.459 1145.46 387.327C1146.67 389.052 1147.65 390.999 1149.12 392.453C1151.6 394.91 1154.39 397.054 1157.05 399.33C1157.48 399.087 1157.91 398.844 1158.34 398.602C1158.34 385.381 1158.34 372.16 1158.34 358.939C1158.88 358.891 1159.43 358.843 1159.98 358.794C1160.96 368.333 1162.06 377.862 1162.9 387.413C1163.75 397.095 1164.34 406.8 1165.05 416.495C1165.73 416.449 1166.41 416.404 1167.09 416.359C1166.54 406.15 1165.99 395.941 1165.38 384.5C1170.5 390.619 1165.12 399.888 1174.8 404.057C1174.43 399.337 1174.14 395.593 1173.85 391.501C1173.85 391.153 1174.07 390.927 1174.23 390.908C1174.6 390.731 1174.81 390.574 1175.02 390.417C1174.67 390.27 1174.32 390.124 1173.98 389.987C1174 389.996 1174.03 390.013 1174.03 390.013C1174.11 389.066 1174.19 388.119 1174.3 386.894C1179.12 388.671 1183.64 390.338 1188.61 392.07C1189.05 392.135 1189.3 392.024 1189.3 392.024L1189.28 391.747C1185.76 389.637 1182.28 387.46 1178.71 385.436C1174.73 383.184 1175.24 380.416 1177.44 377.22C1180.11 373.329 1182.1 369.383 1181.2 364.223C1180.83 362.075 1182.55 359.562 1183.71 357.225C1184.24 357.265 1184.37 357.297 1184.51 357.328C1184.46 357.088 1184.4 356.848 1184.35 356.608C1184.22 353.98 1184.09 351.351 1184.07 348.287C1184.18 347.85 1184.44 347.643 1184.44 347.643C1185.46 347.456 1187.35 347.28 1187.36 347.082C1187.38 345.072 1187.09 343.06 1186.87 340.599C1186.85 340.151 1187.07 339.921 1187.25 339.808C1187.28 338.783 1187.13 337.872 1187 336.969C1187.01 336.978 1187.03 336.991 1187.03 336.991C1189.37 338.955 1191.71 340.919 1194.93 343.614C1194.93 338.748 1194.93 334.252 1194.93 329.064C1202.04 333.241 1200.37 338.279 1197.67 343.093C1201.26 343.093 1203.73 343.093 1206.2 343.093C1205.65 347.727 1211.7 351.014 1208.52 356.433C1207.43 357.152 1206.69 357.555 1205.94 357.958C1206.07 358.184 1206.19 358.41 1206.32 358.636C1207.23 358.118 1208.15 357.6 1209.06 357.082C1210.14 356.882 1211.21 356.683 1212.47 356.45C1210.69 360.047 1208.51 363.156 1207.76 366.579C1207.44 368.019 1210.13 370.122 1211.8 372.038C1212.14 372.154 1212.34 372.385 1212.34 372.385C1214.3 376.737 1214.38 381.046 1211.63 384.529C1213.35 386.963 1215.98 381.225 1216.61 386.446C1216.68 386.87 1216.87 386.975 1217.06 387.08C1217.3 387.804 1217.96 388.77 1217.71 389.216C1214.51 394.888 1210.58 399.601 1203.16 399.193C1202.65 399.165 1202.11 399.697 1201.29 400.12C1206.64 401.732 1215.2 399.56 1217.83 395.709C1222.04 389.553 1225.91 383.169 1230.19 376.458C1227.55 376.011 1225.07 375.593 1222.22 375.01C1221.86 374.846 1221.66 374.614 1221.66 374.614C1225.3 368.686 1228.99 362.786 1232.56 356.819C1234.23 354.036 1235.21 351.355 1233.02 348.017C1232.26 346.844 1233.3 343.944 1234.28 342.277C1237.27 337.155 1238.59 331.91 1236.98 326.071C1236.82 325.519 1236.98 324.635 1237.35 324.222C1242.69 318.233 1241.12 310.111 1243.84 303.327C1244.03 302.874 1243.98 302.334 1244.12 301.858C1246.57 293.392 1249.12 284.952 1251.46 276.452C1252.02 274.407 1251.7 272.134 1252.11 270.032C1252.4 268.58 1253.26 267.242 1253.81 265.951C1255.62 274.106 1257.29 281.673 1258.89 289.694C1258.82 290.149 1258.56 290.357 1258.56 290.357C1258.07 291.488 1256.93 292.85 1257.23 293.707C1258.16 296.335 1259.64 298.765 1260.89 301.283C1261.54 302.598 1262.89 304.097 1262.65 305.235C1261.43 310.861 1264.58 314.677 1267.37 318.833C1268.13 319.965 1267.65 321.928 1267.75 323.509C1267.87 325.536 1268.07 327.561 1268.12 329.59C1268.22 333.654 1273.14 337.481 1268.68 341.868C1268.3 342.246 1268.93 344.179 1269.58 345.008C1273.76 350.329 1278.06 355.543 1282.75 361.245C1285.06 363.041 1286.95 364.385 1288.84 365.729C1289.2 365.122 1289.57 364.515 1289.94 363.907C1287.75 362.804 1285.56 361.7 1283.38 360.596C1283.95 357.511 1285.45 357.437 1287.95 358.834C1290.59 360.302 1293.47 361.312 1296.74 362.737C1296.96 355.06 1289.04 356.69 1286.72 351.717C1288.3 351.821 1289.32 351.889 1290.81 352.153C1291.73 352.439 1292.19 352.529 1292.64 352.618C1292.21 352.259 1291.79 351.899 1291.36 351.54C1289.4 348.57 1289.5 343.69 1283.07 344.356C1284.58 341.751 1285.58 340.016 1286.69 338.084C1289.09 339.246 1291.12 340.232 1293.15 341.218C1293.39 340.979 1293.63 340.739 1293.86 340.5C1290.94 336.831 1288.01 333.163 1284.61 328.897C1291.24 324.297 1296.71 334.132 1303.82 331.135C1300.4 328.5 1297.28 326.098 1294.16 323.277C1294.15 322.859 1294.38 322.662 1294.38 322.662C1296.67 323.411 1298.95 324.16 1301.71 325.107C1302.44 325.371 1302.71 325.437 1302.98 325.502C1302.77 325.186 1302.56 324.871 1302.35 324.555C1302.72 319.656 1299.25 317.567 1295.93 315.058C1294.78 314.19 1294.88 311.654 1293.96 308.126C1298.21 310.138 1301.34 311.719 1304.56 313.11C1306.37 313.893 1308.31 314.362 1310.69 315.139C1311.44 315.371 1311.71 315.437 1311.98 315.502C1311.77 315.187 1311.56 314.871 1311.36 314.556C1307.61 309.922 1303.81 305.335 1300.16 300.626C1299.08 299.231 1298.44 297.494 1298.37 295.287C1300.01 297.223 1301.64 299.159 1303.28 301.095C1303.62 300.891 1303.97 300.686 1304.32 300.482C1302.92 297.232 1301.53 293.982 1300.16 290.292C1300.18 289.853 1300.44 289.649 1300.44 289.649C1301.96 291.987 1303.49 294.326 1305.02 296.664C1305.82 296.081 1306.63 295.497 1307.44 294.914C1307.23 292.476 1307.02 290.037 1306.71 286.549C1310.99 291.537 1314.64 295.798 1318.29 300.059C1318.95 299.645 1319.61 299.231 1320.27 298.817C1316.48 290.792 1312.68 282.766 1308.89 274.74C1309.4 274.512 1309.91 274.285 1310.42 274.057C1311.46 275.454 1312.5 276.852 1313.93 278.763C1313.33 273.071 1312.78 267.947 1312.24 262.822C1312.72 262.671 1313.2 262.52 1313.68 262.37C1315.9 268.294 1318.12 274.219 1320.35 280.143C1321.05 280.186 1321.75 280.23 1322.45 280.273C1320.55 267.855 1328.53 258.342 1330.29 247.001C1330.71 247.01 1331.13 247.019 1331.55 247.029C1331.55 248.947 1331.69 250.879 1331.51 252.779C1331.31 254.925 1330.57 257.039 1330.53 259.174C1330.52 260.411 1331.44 261.663 1331.93 262.908C1332.53 262.92 1333.12 262.933 1333.72 262.946C1330.99 268.521 1328.25 274.096 1325.52 279.671C1326.21 280.08 1326.91 280.488 1327.6 280.897C1330.09 277.602 1332.58 274.307 1335.46 270.932C1335.85 270.852 1336.07 271.071 1336.09 271.227C1336.27 271.597 1336.43 271.811 1336.58 272.024C1336.73 271.673 1336.88 271.322 1337.01 270.984C1337 270.998 1336.99 271.026 1336.99 271.026C1337.34 272.455 1337.69 273.884 1337.91 275.709C1337.98 276.185 1338.18 276.266 1338.39 276.347C1339.65 275.616 1340.9 274.886 1342.15 274.155C1342.55 274.368 1342.94 274.582 1343.33 274.796C1342.77 276.139 1342.57 277.929 1341.57 278.748C1337.25 282.296 1332.78 285.677 1328.2 288.879C1325.73 290.602 1324.01 292.194 1326.51 295.537C1326.85 295.848 1327.06 296.077 1327.06 296.219C1327.19 296.564 1327.33 296.767 1327.47 296.971C1327.66 296.638 1327.84 296.305 1328.02 295.985C1328.01 295.998 1327.99 296.026 1327.99 296.026C1329.79 294.7 1331.59 293.373 1333.95 291.641C1333.97 297.896 1328.43 299.685 1326.14 303.997C1330.69 302.91 1334.47 300.449 1338 297.52C1341.48 294.635 1344.92 291.703 1348.91 288.338C1349.96 295.769 1348.87 300.953 1342.56 303.794C1342.07 304.015 1341.94 305.019 1341.89 305.905C1342.14 306.152 1342.34 306.38 1342.34 306.38C1343.34 307.048 1344.33 307.717 1345.59 308.557C1343.13 309.987 1340.79 311.349 1337.38 313.328C1345.6 313.778 1350.88 309.726 1356.31 306.136C1356.74 306.712 1357.17 307.288 1357.59 307.865C1354.41 311.2 1351.22 314.535 1347.89 318.017C1347.89 318.014 1348.75 318.495 1350.15 319.284C1348.1 320.436 1346.26 321.464 1343.75 322.872C1348.22 325.207 1352.05 327.208 1356.26 329.411C1351.52 330.752 1346.39 332.202 1341.26 333.652C1341.54 334.538 1341.82 335.425 1342.1 336.312C1347.16 334.746 1352.23 333.18 1357.68 331.496C1353.76 338.709 1348.96 343.565 1339.98 341.764C1340.16 342.365 1340.33 342.966 1340.5 343.567C1346.88 343.263 1353.26 342.959 1359.74 342.65C1357.3 350.987 1352.49 356.116 1343.63 356.743C1343.77 357.218 1343.91 357.692 1344.05 358.166C1346.37 357.792 1348.71 357.551 1350.99 357.007C1353.36 356.44 1355.67 355.582 1358 354.851C1358.25 355.456 1358.5 356.06 1358.75 356.665C1356.85 357.835 1354.96 359.005 1352.29 360.656C1354.47 361.273 1356.07 361.725 1357.88 362.236C1357.19 363.216 1356.55 364.135 1355.65 365.371C1355.24 365.918 1355.1 366.148 1354.95 366.378C1355.32 366.279 1355.69 366.181 1356.06 366.082C1357.48 365.91 1358.89 365.738 1360.31 365.566C1360.47 365.869 1360.62 366.172 1360.78 366.474C1355.93 370.595 1351.08 374.716 1346.41 378.687C1350.18 377.719 1354.6 376.587 1359.01 375.456C1359.25 375.719 1359.48 375.982 1359.72 376.246C1356.56 379.545 1353.4 382.843 1350.23 386.142C1350.53 386.53 1350.82 386.919 1351.12 387.307C1352.48 387.307 1353.84 387.307 1355.2 387.307C1355.4 387.775 1355.59 388.243 1355.79 388.711C1351.92 390.756 1348.04 392.8 1344.17 394.844C1344.22 395.096 1344.28 395.347 1344.33 395.598C1348.57 394.308 1352.8 393.017 1356.82 391.794C1358.27 392.884 1359.73 393.986 1361.19 395.089C1362.49 392.841 1365 390.537 1364.9 388.354C1364.21 373.804 1367 371.925 1372.21 361.016C1373.02 359.318 1372.49 357.022 1372.82 355.04C1373.2 352.659 1373.73 350.288 1374.39 347.968C1375.28 344.836 1376.36 341.756 1377.11 338.256C1376.86 337.859 1376.64 337.647 1376.64 337.647C1376.86 335.653 1377.07 333.659 1377.07 331.257C1376.86 330.849 1376.66 330.624 1376.66 330.624C1383.06 319.983 1385 308.257 1383.91 295.794C1384.62 295.842 1385.34 295.891 1386.06 295.94C1386.37 298.921 1386.89 301.898 1386.95 304.883C1387.04 309.677 1387.24 314.139 1389.78 318.681C1391.74 322.195 1391.53 326.897 1392.41 331.043C1392.97 333.689 1393.99 336.25 1394.41 338.91C1395.75 347.331 1395.57 356.117 1403.46 362.218C1406.24 364.363 1404.33 367.677 1399.8 368.519C1402.07 374.916 1407.84 380.327 1403.54 388.453C1404.39 388.398 1405.23 388.343 1406.07 388.288C1409.2 383.734 1412.33 379.181 1415.71 374.275C1416.18 374.487 1417.15 374.919 1418.16 375.364C1418.85 370.533 1419.54 365.734 1420.22 360.935C1420.64 360.923 1421.06 360.912 1421.47 360.901C1422.07 365.467 1422.66 370.033 1423.31 375.008C1423.58 375.154 1424.57 375.682 1425.53 376.488C1425.68 376.87 1425.87 376.975 1426.06 377.081C1425.88 378.04 1425.98 379.198 1425.47 379.914C1424.62 381.091 1423.38 381.98 1422.3 382.991C1422.62 383.476 1422.95 383.961 1423.27 384.446C1425.62 383.209 1427.97 381.973 1430.26 380.763C1430.71 381.12 1431.1 381.269 1431.18 381.518C1433.54 388.913 1433.53 388.914 1443.4 384.561C1440.89 383.543 1438.34 382.506 1435.69 381.43C1436.91 378.839 1437.97 376.606 1439.47 373.404C1440.66 373.249 1442.96 373.188 1445.11 372.586C1446.57 372.174 1447.83 371.008 1449.17 370.18C1448.34 369.073 1447.51 367.966 1446.59 366.547C1446.32 366.13 1446.13 366.025 1445.94 365.92C1442.53 364.884 1439.12 363.848 1435.71 362.811C1435.78 362.319 1435.85 361.827 1435.91 361.334C1439.93 361.131 1443.95 360.927 1446.59 360.794C1448.76 358.11 1450.21 356.324 1451.74 354.43C1448.74 353.231 1443.37 357.882 1442.21 350.655C1439.04 350.655 1435.84 350.655 1432.65 350.655C1432.6 350.176 1432.56 349.697 1432.51 349.219C1436.12 348.667 1439.73 348.114 1444.81 347.336C1440.99 346.485 1438.54 345.939 1435.05 345.161C1441.83 343.774 1447.61 342.592 1453.39 341.411C1453.32 341.102 1453.24 340.793 1453.17 340.484C1449.08 340.484 1445 340.484 1440.91 340.484C1440.87 340.197 1440.83 339.91 1440.78 339.624C1444.77 338.191 1448.76 336.759 1452.96 335.249C1453.42 333.372 1447.97 331.624 1452.33 330.181C1447.85 328.446 1443.32 326.693 1438.79 324.94C1438.92 324.333 1439.05 323.727 1439.18 323.12C1448.07 325.322 1456.44 325.403 1463.11 317.317C1463.47 316.627 1463.57 316.327 1463.66 316.028C1463.32 316.231 1462.98 316.434 1462.64 316.638C1459.74 317.713 1456.9 319.427 1453.94 319.657C1451.68 319.832 1449.28 318.128 1446.05 316.929C1447.92 315.599 1449.47 314.67 1450.81 313.498C1451.83 312.602 1452.58 311.396 1453.15 310.087C1452.86 309.845 1452.65 309.612 1452.65 309.612C1454.84 306.47 1456.63 302.907 1459.34 300.299C1462.2 297.542 1462.77 295.83 1459.28 293.364C1458.57 292.857 1458.26 290.692 1458.72 289.785C1460.95 285.444 1463.52 281.281 1465.93 277.035C1466.34 276.318 1466.58 275.508 1467.1 274.283C1467.37 273.555 1467.44 273.286 1467.5 273.017C1467.19 273.226 1466.87 273.435 1466.56 273.644C1465.99 272.263 1464.72 270.717 1464.99 269.532C1465.78 266.167 1467.2 262.949 1468.67 258.825C1470.69 262.97 1472.47 266.62 1474.39 270.547C1471.44 274.62 1475.05 281.27 1483.59 285.84C1481.79 287.268 1480.13 288.587 1478.11 290.187C1479.87 292.566 1481.67 295.001 1483.63 297.644C1481.54 304.263 1481.54 304.263 1491.84 307.901C1489.22 308.562 1487.36 308.586 1486.11 309.475C1484.91 310.33 1484.35 312.08 1483.86 312.881C1485.5 312.97 1488.37 313.126 1491.24 313.282C1491.36 313.851 1491.47 314.419 1491.59 314.988C1488.41 316.234 1485.23 317.48 1482.05 318.727C1482.07 319.043 1482.1 319.359 1482.12 319.675C1489.2 318.447 1496.28 317.22 1503.87 315.905C1499.84 319.228 1496.13 322.28 1491.35 326.217C1494.01 326.495 1495.14 326.613 1496.28 326.732C1496.36 327.162 1496.45 327.592 1496.54 328.022C1493.93 328.63 1491.32 329.238 1488.62 329.868C1489.2 330.305 1490.08 330.975 1491.41 331.982C1488.46 332.123 1485.91 332.244 1482.26 332.417C1491.2 337.464 1498.96 329.904 1506.87 333.029C1503.39 339.717 1494.5 338.44 1489.5 344.231C1494.23 343.581 1498.68 342.971 1503.12 342.361C1503.31 342.754 1503.5 343.147 1503.7 343.54C1499.56 345.668 1495.43 347.795 1490.32 350.425C1495.7 351.048 1499.9 351.534 1504.1 352.021C1504.27 352.55 1504.44 353.08 1504.6 353.609C1500.98 355.514 1497.36 357.419 1493.21 359.6C1495.39 359.891 1497.21 360.134 1499.62 360.455C1498.68 361.443 1498.11 362.043 1497.07 363.14C1500.82 362.572 1503.98 362.092 1507.14 361.613C1507.25 361.955 1507.36 362.298 1507.47 362.64C1504.86 363.746 1502.25 364.852 1498.63 366.38C1500.52 366.765 1501.56 366.8 1502.43 367.196C1503.66 367.756 1504.78 368.581 1505.94 369.294C1504.96 370.307 1504.15 371.686 1502.96 372.258C1500.36 373.502 1497.57 374.335 1495.15 376.438C1500.22 375.413 1505.3 374.389 1510.37 373.364C1510.51 373.672 1510.65 373.98 1510.79 374.288C1507.96 376.6 1505.14 378.912 1502.14 381.361C1502.9 381.852 1503.65 382.328 1504.92 383.147C1502.84 384.178 1501.15 385.017 1499.45 385.855C1499.45 386.162 1499.44 386.468 1499.43 386.774C1502.03 386.774 1504.64 386.612 1507.22 386.845C1508.44 386.956 1509.6 387.821 1510.78 388.344C1509.81 389.265 1509 390.596 1507.85 391.016C1505.72 391.792 1503.39 392.035 1500.99 392.535C1503.9 395.075 1506.55 397.376 1509.84 400.239C1511.29 400.044 1513.96 399.686 1517.21 399.249C1517.48 398.588 1518.55 397.296 1518.38 396.197C1517.88 393.037 1519.32 391.472 1521.75 389.753C1525.86 386.838 1526.49 381.132 1523.94 376.627C1523.51 375.854 1523.69 374.355 1524.16 373.515C1525.54 371.052 1526.9 368.443 1528.83 366.448C1533.83 361.306 1533.23 354.461 1534.84 348.296C1535.06 347.47 1534.45 346.46 1534.38 345.524C1534.25 343.53 1533.51 341.188 1534.27 339.59C1537.7 332.412 1541.61 325.464 1545.24 318.38C1545.72 317.436 1546.13 315.941 1545.72 315.132C1543.55 310.86 1544.69 307.292 1547.03 303.454C1548.04 301.801 1547.59 299.245 1547.75 297.095C1547.8 296.46 1547.43 295.722 1547.64 295.183C1549.39 290.73 1551.53 286.405 1552.95 281.854C1554.06 278.314 1555.32 274.322 1554.69 270.859C1553.82 266.018 1556.49 262.674 1557.6 258.66C1558.14 256.678 1557.83 254.457 1557.91 252.344C1557.96 251.23 1557.82 250.061 1558.11 249.011C1559.76 243.031 1561.51 237.078 1563.17 231.293C1563.36 232.442 1563.56 234.361 1564.02 236.217C1565.07 240.514 1566.35 244.757 1567.31 249.072C1567.65 250.599 1567.16 252.298 1567.38 253.872C1567.74 256.487 1568.12 259.148 1568.95 261.635C1570 264.756 1569.85 273.512 1569.24 276.831C1568.87 278.847 1569.98 281.248 1570.79 283.337C1571.62 285.492 1572.95 287.448 1573.93 289.554C1574.33 290.414 1574.36 291.441 1574.63 292.684C1573.34 292.899 1572.31 293.07 1570.56 293.362C1571.97 295.326 1572.97 297 1574.25 298.426C1575.69 300.026 1577.75 301.174 1578.84 302.947C1579.74 304.416 1580.53 307.027 1579.82 308.237C1575.75 315.255 1580.44 320.334 1583.35 325.697C1584.98 328.692 1587.4 331.253 1589.48 334.001C1591.97 337.287 1591.21 340.188 1590.42 344.229C1589.4 349.395 1591.06 356.007 1593.77 360.736C1596.77 365.977 1602.25 369.796 1606.29 373.869C1604.63 374.217 1601.94 374.782 1598.6 375.481C1599.92 378.014 1600.67 379.434 1601.58 381.19C1596.82 384.201 1599.01 387.142 1601.53 390.483C1603 392.424 1606.07 393.972 1603.63 397.912C1602.98 398.965 1607.53 403.084 1609.49 405.935C1611.35 408.648 1612.95 411.542 1614.17 414.878C1617.71 416.933 1619.13 414.94 1619.09 410.502C1617.96 411.346 1617.05 412.024 1615.72 413.02C1618.13 402.955 1622.73 393.823 1620.78 382.236C1622.06 379.981 1624.15 376.295 1626.05 372.229C1625.86 371.849 1625.66 371.622 1625.66 371.622C1624.08 368.624 1624.29 365.847 1625.97 362.811C1628.88 357.573 1629.68 351.908 1628.6 345.926C1628.33 344.438 1629.11 342.758 1629.41 341.166C1629.9 341.175 1630.39 341.184 1630.87 341.193C1631.6 344.516 1631.99 347.957 1633.13 351.132C1634.85 355.925 1637.08 360.533 1639.1 365.22C1639.66 366.53 1641.74 368.562 1637.56 367.638C1637.05 367.564 1636.86 367.64 1636.67 367.716C1636.75 367.83 1636.83 367.945 1636.92 368.059C1640.56 372.36 1644.21 376.661 1648.39 381.596C1648.21 381.652 1646.92 382.062 1646.95 382.054C1651.31 390.619 1655.24 398.359 1659.22 406.073C1659.51 406.623 1660.09 407.194 1660.66 407.392C1669.51 410.463 1678.4 413.076 1687.81 408.704C1677.49 411.429 1670.55 405.144 1662.94 400.647C1663.04 400.131 1663.14 399.615 1663.25 399.098C1670.29 399.806 1677.34 400.514 1684.38 401.221C1684.56 400.608 1684.74 399.995 1684.92 399.382C1674.9 399.19 1665.11 398.592 1660.58 387.785C1663.72 387.933 1666.61 388.068 1669.77 388.17C1670.05 388.136 1670.3 388.024 1670.3 388.024C1670.3 388.024 1670.28 387.745 1670.28 387.745C1667.51 385.491 1664.74 383.237 1661.91 380.569C1661.86 380.155 1662.06 379.919 1662.06 379.919C1666.12 381.284 1670.18 382.65 1674.24 384.015C1674.33 383.839 1674.42 383.663 1674.52 383.487C1671.73 381.612 1668.95 379.737 1666.17 377.861C1666.35 377.504 1666.53 377.146 1666.71 376.788C1672.19 378.327 1677.66 379.866 1683.13 381.405C1683.17 381.191 1683.2 380.977 1683.24 380.764C1677.59 378.127 1671.92 375.54 1666.31 372.818C1665 372.181 1663.53 371.317 1662.81 370.144C1661.78 368.452 1660.33 365.963 1660.9 364.554C1662.33 361.004 1664.61 363.753 1666.52 364.653C1670.67 366.611 1674.81 368.588 1679.56 370.841C1679.29 369.008 1679.11 367.778 1679.24 366.424C1682.71 367.643 1685.78 369.308 1689.07 370.205C1690.92 370.71 1693.15 369.645 1695.16 369.818C1699.72 370.213 1702.61 369.451 1703.73 367.841C1697.65 367.304 1691.06 366.699 1684.47 366.156C1682.65 366.006 1680.82 366.04 1678.99 365.99C1674.37 361.863 1669.64 357.841 1665.18 353.542C1663.94 352.348 1663.5 350.332 1662.7 348.713C1669.71 351.823 1676.22 354.707 1682.74 357.591C1682.92 357.359 1683.11 357.127 1683.29 356.894C1682.66 355.989 1682.03 355.084 1680.96 353.533C1684.17 353.684 1686.69 353.802 1689.21 353.921C1689.04 354.132 1688.87 354.344 1688.7 354.555C1681.94 350.997 1675.08 347.609 1668.47 343.788C1666.24 342.496 1666.53 341.996 1668.44 340.426C1668.95 340.437 1669.15 340.361 1669.34 340.285C1669.25 340.17 1669.17 340.055 1669.08 339.94C1668.92 339.059 1668.76 338.179 1668.94 337.355C1669.92 337.655 1670.56 337.897 1671.2 338.14C1671.28 337.939 1671.36 337.737 1671.45 337.535C1670.75 337.207 1670.06 336.88 1669.36 336.552C1669.19 333.36 1670.45 334.017 1672.65 334.942C1677.83 337.118 1683.16 338.956 1688.51 340.7C1689.91 341.156 1691.58 340.769 1693.6 340.769C1687.24 336.879 1681.6 333.429 1675.91 329.566C1675.86 329.153 1676.06 328.921 1676.06 328.921C1679.05 329.454 1682.08 329.828 1685.02 330.569C1687.39 331.165 1689.65 332.205 1691.95 333.048C1692.2 332.491 1692.46 331.934 1692.71 331.378C1690.6 330.05 1688.49 328.721 1686 327.153C1688.2 326.513 1690.02 325.981 1691.85 325.45C1679.3 321.986 1668.85 315.745 1663.04 304.098C1665.84 304.23 1668.78 303.825 1671.33 304.638C1673.99 305.486 1677.51 306.945 1678.51 309.12C1682.11 316.983 1689.49 314.93 1696.74 317.358C1693.71 314.244 1688.48 313.621 1691.9 309.06C1688.74 306.878 1685.88 304.91 1682.94 302.549C1682.86 302.156 1683.06 301.919 1683.06 301.919C1685.98 302.629 1688.91 303.339 1691.84 304.05C1692.12 303.565 1692.41 303.08 1692.69 302.594C1685.44 298.056 1677.06 294.66 1674.13 285.297C1674.15 284.857 1674.39 284.655 1674.39 284.655C1676.61 285.611 1678.83 286.568 1681.74 287.821C1681.11 283.325 1680.71 280.38 1680.12 276.149C1682.83 278.399 1684.43 279.731 1686.4 281.287C1686.95 281.436 1687.15 281.361 1687.34 281.285C1687.25 281.17 1687.17 281.055 1687.08 280.94C1687.72 280.975 1688.65 280.748 1688.94 281.082C1693.35 286.128 1700.38 284.662 1705.23 288.559C1705.45 288.185 1705.67 287.81 1705.89 287.435C1701.99 283.829 1698.08 280.222 1694.13 276.263C1694.08 275.911 1694.24 275.787 1694.24 275.787L1693.98 276.016C1693.02 273.905 1692.07 271.794 1691.13 269.27C1691.15 268.857 1691.39 268.652 1691.39 268.652C1694.33 270.806 1697.27 272.96 1699.97 274.944C1701.83 273.9 1703.53 272.947 1705.27 271.968C1702.27 270.49 1698.79 268.742 1695.28 267.069C1691.2 265.124 1689.82 261.536 1689.82 257.437C1689.82 256.299 1691.42 255.162 1693.29 252.719C1694.31 260.536 1699.65 261.475 1704.25 263.366C1706.54 264.306 1708.14 263.551 1707.83 261.107C1707.48 258.458 1706.81 255.648 1705.48 253.385C1703.92 250.737 1703.8 249.855 1706.38 247.325C1708.55 245.193 1708.26 240.409 1708.74 236.758C1708.95 235.192 1708.36 233.52 1708.08 231.501C1709.68 231.362 1711 231.248 1711.9 231.17C1711.57 236.652 1711.27 241.82 1710.94 247.4C1711.94 246.849 1713.03 246.249 1714.32 245.54C1717.39 250.766 1712.08 253.136 1710.37 257.124C1711.22 257.455 1712.03 257.769 1713.05 258.169C1712.37 260.009 1711.67 261.901 1710.97 263.794C1711.49 264.219 1712.01 264.644 1712.53 265.069C1715.69 261.747 1718.86 258.426 1722.03 255.096C1725.94 259.683 1725.44 260.944 1716.13 270.75C1716.36 271.171 1716.59 271.593 1716.82 272.015C1719.34 270.365 1721.86 268.716 1724.35 267.084C1725.33 272.356 1722.97 275.906 1718.18 277.925C1721.93 285.411 1711.14 283.158 1711.77 289.733C1714.49 288.129 1716.91 287.095 1718.84 285.466C1721.89 282.894 1724.55 279.879 1727.45 277.134C1729.47 275.231 1731.44 274.469 1732.55 278.382C1732.68 278.87 1732.87 278.976 1733.06 279.082C1732.02 281.394 1730.98 283.707 1729.71 286.392C1729.68 286.87 1729.87 286.975 1730.06 287.081C1733.2 286.88 1736.33 286.68 1739.47 286.479C1739.75 287.02 1740.02 287.561 1740.29 288.102C1733.35 293.206 1726.41 298.31 1719.47 303.414C1719.47 303.627 1719.47 303.841 1719.46 304.055C1723.81 302.728 1728.16 301.4 1732.51 300.072C1732.74 300.459 1732.97 300.846 1733.2 301.233C1729.8 303.089 1726.56 305.364 1722.96 306.681C1719.47 307.962 1715.61 308.26 1712.02 309.626C1716.94 312.234 1721.54 310.22 1726.66 309.128C1727.14 309.154 1727.34 309.387 1727.34 309.387C1725.59 311.014 1723.84 312.641 1721.81 314.527C1724.91 316.641 1727.11 316.276 1729.56 313.647C1731.28 311.793 1733.6 310.287 1735.94 309.274C1738.08 308.347 1740.45 308.483 1739.63 312.423C1739.68 312.87 1739.87 312.976 1740.06 313.081C1739.53 314.925 1739.41 317.056 1738.38 318.552C1736.48 321.289 1734.04 323.652 1731.83 326.171C1732.11 326.577 1732.4 326.984 1732.68 327.391C1734.9 326.578 1737.09 325.689 1739.33 324.969C1742.48 323.961 1742.98 325.316 1741.41 328.374C1738.53 330.029 1736.09 331.279 1733.3 332.629C1731.11 333.122 1729.26 333.516 1727.41 333.91C1727.53 334.293 1727.64 334.675 1727.76 335.058C1729.86 334.399 1731.96 333.74 1734.43 333.027C1737.22 331.674 1739.64 330.375 1742.07 329.076C1743.39 328.491 1744.7 327.907 1746.2 327.521C1743.4 332.207 1740.37 336.659 1737.49 341.21C1736.96 342.062 1736.52 343.69 1736.96 344.28C1737.59 345.14 1739.43 346.109 1740.11 345.764C1742.93 344.352 1745.52 342.478 1748.14 340.699C1748.31 340.584 1748.04 339.83 1747.96 339.263C1746.57 339.453 1745.33 339.624 1743.81 339.833C1745.74 336.33 1747.4 333.309 1749.08 330.298C1750.47 327.796 1749.87 326.541 1746.89 326.731C1747.2 316.645 1752.84 308.816 1758.06 300.314C1758.03 299.815 1757.82 299.734 1757.61 299.653C1755.94 300.485 1754.26 301.318 1752.59 302.15C1752.22 301.832 1751.84 301.513 1751.47 301.195C1761.16 294.098 1759.83 282.482 1764.16 271.605C1764.59 274.225 1764.72 275.451 1764.99 276.642C1765.96 280.783 1767.04 284.898 1767.97 289.049C1768.77 292.663 1769.05 296.436 1770.23 299.911C1771.5 303.628 1773.46 307.123 1775.3 310.62C1775.97 311.892 1777.16 312.891 1778.36 314.317C1777.03 314.786 1776.03 315.135 1774.84 315.552C1776.46 319.89 1778.03 324.096 1779.59 328.309C1779.76 328.762 1780.09 329.435 1779.91 329.694C1775.54 335.899 1782.16 338.002 1784.65 341.067C1788.74 346.101 1788.95 349.464 1784.34 354.402C1783.18 355.653 1782.72 358.319 1783.1 360.088C1783.66 362.715 1785.25 365.122 1786.74 368.353C1789.11 364.79 1793.23 362.725 1789.04 358.679C1791.36 355.857 1793.63 353.101 1795.9 350.344C1795.33 350.127 1794.76 349.91 1794.19 349.692C1794.37 347.814 1794.35 345.89 1794.77 344.066C1796.16 337.969 1797.71 331.909 1799.19 325.832C1799.33 325.246 1799.2 324.371 1799.55 324.089C1807.69 317.654 1809.37 308.458 1810.41 298.972C1810.44 298.712 1810.81 298.489 1810.72 298.588C1814.15 306.933 1817.65 315.439 1821.14 324.395C1821.14 324.845 1820.94 325.081 1820.94 325.081C1824.36 335.297 1822.5 347.068 1830.06 356.06C1831.71 358.012 1833.11 360.969 1835.59 358.255C1833.41 353.118 1831.37 348.336 1829.34 343.553C1829.8 343.263 1830.27 342.974 1830.73 342.684C1831.76 343.357 1832.78 344.031 1834.08 344.879C1834.08 341.865 1834.08 339.274 1834.08 335.218C1836.66 338.429 1838.25 340.407 1840.62 343.349C1840.62 338.389 1840.62 334.708 1840.74 330.59C1840.86 330.153 1841.06 329.921 1841.06 329.921C1842.09 326.902 1843.12 323.883 1844.15 320.864C1844.37 320.814 1844.59 320.764 1844.8 320.714C1845.28 327.533 1845.75 334.351 1846.27 341.789C1848.36 340.652 1850.72 339.368 1853.09 338.083C1853.44 338.394 1853.8 338.704 1854.16 339.014C1853.22 340.895 1852.29 342.776 1850.83 345.723C1853.49 344.351 1855.25 343.44 1858.64 341.681C1857.55 346.194 1856.77 349.444 1855.98 352.693C1856.34 353.009 1856.69 353.326 1857.05 353.642C1859.84 350.523 1862.62 347.403 1865.69 344.397C1865.96 345.225 1865.96 345.939 1865.96 346.652C1866.25 346.729 1866.53 346.805 1866.82 346.881C1867.67 345.255 1868.52 343.628 1869.37 342.001C1869.17 341.87 1868.98 341.739 1868.78 341.608C1867.85 342.427 1866.92 343.245 1865.98 344.063C1866.64 341.64 1867.3 339.217 1868.13 336.309C1868.37 335.555 1868.44 335.286 1868.5 335.016C1868.19 335.225 1867.87 335.435 1867.56 335.644C1866.29 336.296 1865.02 336.947 1863.75 337.599C1863.46 337.374 1863.18 337.149 1862.89 336.924C1864.41 333.991 1865.93 331.055 1867.46 328.126C1871.35 320.666 1876.14 313.576 1876.15 304.62C1876.16 302.855 1877.43 301.093 1878.12 299.33C1878.66 299.336 1879.2 299.343 1879.74 299.349C1881.32 306.991 1882.25 314.848 1884.68 322.211C1887.03 329.355 1890.93 335.991 1894.15 342.85C1893.73 343.191 1893.32 343.531 1892.91 343.872C1890.92 342.734 1888.93 341.595 1886.94 340.457C1886.52 340.783 1886.11 341.11 1885.7 341.436C1888.07 344.87 1890.44 348.304 1893.43 352.641C1891.13 352.355 1889.55 352.159 1887.05 351.848C1890.05 356.057 1892.83 359.968 1896.09 364.536C1894.34 364.76 1893.46 364.873 1892.24 364.876C1891.76 364.735 1891.63 364.703 1891.49 364.672C1891.54 364.912 1891.6 365.152 1891.65 365.392C1893.27 368.841 1894.89 372.289 1896.91 376.615C1890.37 382.356 1900.22 386.734 1900.14 392.113C1902.91 392.815 1905.1 393.37 1907.74 394.116C1908.44 394.371 1908.71 394.437 1908.98 394.502C1908.77 394.186 1908.56 393.871 1908.36 393.555C1907.15 392.263 1905.95 390.971 1904.63 389.556C1906.41 389.028 1907.85 388.603 1909.75 388.039C1907.38 386.281 1905.7 385.028 1904.01 383.775C1904.19 383.366 1904.38 382.956 1904.56 382.546C1909.97 383.737 1915.38 384.927 1920.78 386.117C1921.05 385.457 1921.31 384.798 1921.57 384.139C1912.33 383.867 1905.57 380.308 1903.79 370.416C1910.21 370.416 1917.35 370.416 1924.49 370.416C1915.58 371.588 1909.97 367.228 1905.89 359.539C1905.86 359.153 1906.06 358.922 1906.06 358.922C1911.19 360.257 1915.67 364.492 1921.54 362.547C1921.69 362.023 1921.84 361.5 1921.99 360.976C1916.89 359.642 1911.78 358.307 1905.96 356.785C1910.89 354.638 1914.96 352.86 1919.87 350.72C1917.77 349.52 1915.94 348.477 1914.11 347.433C1914.38 347.288 1914.64 347.144 1914.91 346.999C1911.21 342.193 1907.52 337.387 1903.83 332.58C1910.55 336.899 1916.95 341.408 1925.66 340.1C1923.07 338.954 1920.48 337.809 1917.49 336.487C1922.74 329.796 1915.59 328.494 1914.18 324.951C1914.03 322.219 1913.88 319.486 1913.71 316.303C1921.28 321.857 1928.66 327.267 1936.03 332.677C1936.38 332.268 1936.72 331.859 1937.06 331.45C1933.47 326.975 1929.88 322.499 1926.29 318.024C1926.8 317.618 1927.3 317.212 1927.8 316.806C1929.03 318.263 1930.13 319.871 1931.54 321.125C1932.49 321.97 1934.17 323.047 1935.01 322.716C1936.31 322.206 1937.67 320.71 1938.02 319.374C1938.28 318.387 1937.27 316.636 1936.31 315.832C1931.89 312.119 1930.58 308.352 1932.36 302.799C1933.87 304.108 1935.28 305.337 1937.87 307.6C1937.54 300.682 1937.27 295.066 1936.99 289.45C1937.61 289.374 1938.23 289.297 1938.85 289.22C1939.54 295.276 1940.23 301.333 1940.92 307.39C1941.44 307.599 1941.96 307.809 1942.48 308.019C1944.07 306.176 1945.57 304.24 1947.32 302.556C1947.76 302.125 1948.98 302.49 1949.77 302.832C1949.63 303.445 1949.56 303.714 1949.5 303.984C1949.81 303.775 1950.13 303.565 1950.45 303.356C1951.21 302.74 1951.97 302.124 1952.73 301.509C1953.19 301.678 1953.66 301.848 1954.12 302.017C1950.3 310.251 1946.49 318.484 1942.67 326.718C1943.26 327.102 1943.84 327.487 1944.43 327.872C1948.09 323.68 1951.75 319.489 1955.85 314.788C1955.85 317.329 1955.85 319.309 1955.81 321.696C1955.97 322.185 1956.18 322.266 1956.39 322.348C1957.76 321.514 1959.13 320.681 1961.3 319.351C1960.4 322.573 1959.74 324.904 1958.93 327.67C1958.97 328.185 1959.18 328.266 1959.39 328.348C1960.16 328.151 1960.92 327.953 1961.69 327.756C1962.08 328.162 1962.47 328.567 1962.86 328.972C1959.12 333.309 1955.38 337.646 1951.64 341.982C1951.81 342.366 1951.98 342.75 1952.15 343.134C1955.19 341.657 1958.14 339.907 1961.32 338.814C1962.97 338.243 1965.03 338.828 1966.91 338.89C1966.49 340.521 1966.51 342.497 1965.56 343.701C1964.15 345.475 1962.05 346.7 1961.31 348.768C1960.47 350.406 1959.64 352.044 1958.67 353.955C1961.87 352.672 1965.18 351.35 1968.48 350.029C1968.76 350.408 1969.04 350.787 1969.32 351.166C1965.36 353.861 1961.4 356.555 1957.44 359.25C1957.51 359.54 1957.58 359.83 1957.64 360.12C1963.94 358.438 1970.24 356.755 1976.54 355.073C1976.76 355.525 1976.98 355.978 1977.2 356.43C1974.68 360.287 1972.16 364.143 1969.06 368.881C1971.74 367.766 1973.62 366.99 1975.27 366.305C1976.95 367.138 1978.5 367.899 1980.44 368.759C1980.84 368.857 1981.08 369.057 1981.08 369.057C1978 371.051 1974.93 373.045 1971.72 375.12C1972.57 375.591 1973.19 375.934 1974.12 376.452C1972.26 377.681 1970.64 378.742 1969.03 379.804C1969.13 380.11 1969.22 380.416 1969.32 380.722C1972.02 379.741 1974.72 378.76 1977.42 377.78C1977.63 378.109 1977.83 378.438 1978.04 378.767C1973.32 381.971 1968.6 385.176 1963.87 388.381C1964.1 389.004 1964.34 389.627 1964.57 390.25C1968.05 388.989 1971.72 388.088 1974.95 386.353C1977.6 384.926 1978.87 385.071 1979.29 388.405C1976.96 390.187 1974.94 391.556 1972.54 393.015C1967.55 393.491 1962.96 393.876 1958.36 394.262C1958.47 394.999 1958.58 395.736 1958.69 396.473C1963.58 395.461 1968.48 394.45 1973.69 393.308C1976.02 391.811 1978.05 390.444 1980.07 389.077C1980.99 387.087 1981.98 385.122 1982.82 383.099C1983.54 381.387 1983.91 379.509 1984.77 377.888C1985.59 376.36 1986.85 375.071 1988.07 373.287C1988.03 372.815 1987.82 372.734 1987.61 372.653C1985.83 373.031 1983.83 373.588 1985.15 370.511C1985.74 369.145 1986.32 367.634 1987.34 366.619C1992.91 361.049 1994.1 353.992 1994.57 346.605C1994.69 344.664 1995.15 342.745 1996.45 340.606C1998.96 347.777 2001.42 354.972 2004.02 362.11C2005.65 366.567 2007.52 370.937 2009.09 375.556C2008.76 375.734 2008.63 375.703 2008.49 375.671C2008.54 375.912 2008.6 376.153 2008.65 376.393C2013.68 373.991 2016.62 369.991 2018.06 364.638C2018.85 361.701 2020.34 358.957 2021.17 356.027C2021.54 354.724 2020.79 353.14 2020.99 351.747C2021.33 349.363 2021.43 346.64 2022.69 344.76C2024.78 341.631 2026.43 338.707 2025.39 334.551C2025.32 334.13 2025.13 334.024 2024.94 333.918C2025.22 331.845 2025 329.524 2025.88 327.749C2027.94 323.607 2030.52 319.728 2033.12 315.236C2033.44 314.272 2033.53 313.815 2033.62 313.359C2033.26 313.787 2032.9 314.214 2032.54 314.642C2031.99 313.438 2030.98 312.226 2030.99 311.03C2031.02 309.312 2031.7 307.575 2032.26 305.899C2033.56 302.008 2035.93 298.232 2032.78 294.059C2032.52 293.719 2033.85 292.158 2034.47 291.183C2036.89 287.368 2039.45 284.071 2038.98 278.67C2038.68 275.17 2042.39 271.387 2044.05 267.62C2044.53 266.539 2047.02 264.052 2042.55 264.185C2042.19 264.15 2041.92 263.946 2041.92 263.946C2043.75 257.909 2045.58 251.871 2047.87 244.317C2050.34 250.354 2054.12 255.161 2053.74 259.619C2053.04 267.993 2058.13 274.039 2059.71 281.325C2060.33 284.155 2059.61 287.314 2060.42 290.052C2061.25 292.845 2063.2 295.306 2064.87 298.3C2064.16 298.785 2063.36 299.33 2061.83 300.376C2064.21 306.304 2066.7 312.385 2069.06 318.514C2069.36 319.295 2069.36 320.735 2068.88 321.186C2065.7 324.116 2067.21 326.954 2068.9 329.71C2072.55 335.649 2076.31 341.514 2080.36 347.94C2077.65 348.29 2075.17 348.612 2072.3 348.849C2071.76 348.734 2071.63 348.703 2071.49 348.672C2071.54 348.912 2071.6 349.153 2071.65 349.393C2075.87 356.136 2079.58 363.267 2084.45 369.494C2088.17 374.243 2094.47 373.449 2100.4 373.513C2090.79 372.026 2083.79 368.482 2085.04 356.949C2086.5 357.383 2087.44 357.666 2088.78 358.127C2089.44 358.372 2089.71 358.437 2089.98 358.502C2089.77 358.186 2089.57 357.87 2089.36 357.555C2088.16 353.862 2085.75 350.223 2089.12 346.396C2090.31 345.046 2092.28 343.439 2092.18 342.076C2091.9 338.327 2090.72 334.645 2089.88 330.546C2089.86 330.155 2090.06 329.92 2090.06 329.92C2092.61 330.817 2095.16 331.715 2098.4 332.857C2095.78 330.377 2093.79 328.492 2091.98 326.457C2092.44 326.372 2092.71 326.437 2092.98 326.502C2092.77 326.186 2092.57 325.87 2092.36 325.554C2092.47 324.556 2092.42 323.496 2092.77 322.587C2092.95 322.132 2094.34 321.949 2094.33 321.647C2094.3 315.743 2096.93 314.311 2102.06 316.887C2102.48 315.694 2103.53 314.285 2103.21 313.342C2101.19 307.408 2101.09 307.442 2104.8 302.693C2110.42 306.554 2104.95 312.132 2107.15 317.37C2109.19 314.765 2110.93 312.554 2112.73 310.251C2116.7 313.406 2112.82 316.142 2112.59 319.4C2112.34 320.211 2112.3 320.556 2112.25 320.901C2112.52 320.626 2112.8 320.351 2113.07 320.076C2118.85 321.265 2117.69 325.534 2117.14 330.012C2118.43 329.644 2119.49 329.341 2120.31 329.107C2120.13 336.47 2118.59 343.729 2123.97 350.1C2127.5 354.283 2126.91 356.419 2122.02 358.949C2118.07 360.992 2113.98 362.765 2109.56 364.842C2114.89 366.176 2118.78 363.568 2122.85 361.251C2123.95 360.625 2126.44 357.641 2126.64 362.435C2126.68 362.87 2126.87 362.975 2127.06 363.081C2127.08 365.358 2127.1 367.634 2127.11 369.911C2127.12 371.972 2127.11 374.033 2127.11 376.378C2132.28 375.93 2132.82 372.723 2133.05 369.018C2133.25 365.64 2133.87 362.287 2134.3 358.922C2134.95 358.972 2135.6 359.022 2136.24 359.071C2135.68 369.279 2135.12 379.486 2134.56 389.693C2135.11 389.748 2135.67 389.804 2136.22 389.859C2137.97 370.401 2139.71 350.944 2141.46 331.486C2142.24 331.548 2143.02 331.609 2143.8 331.671C2144.65 354.222 2141.34 376.65 2140.61 399.154C2141.12 399.272 2141.62 399.389 2142.13 399.506C2142.53 397.862 2142.95 396.222 2143.32 394.573C2143.72 392.829 2143.99 391.047 2144.49 389.336C2145.45 386.063 2146.55 382.828 2147.87 378.695C2147.02 377.473 2145.55 375.339 2144 373.106C2146.82 370.606 2149.7 368.374 2152.16 365.745C2153.64 364.167 2154.45 361.971 2155.56 360.052C2153.89 359.363 2152.22 358.674 2149.77 357.668C2152.37 355.17 2154.94 352.909 2157.26 350.417C2158.65 348.914 2159.66 347.05 2160.85 345.348C2159.16 344.39 2157.46 343.432 2155.34 342.23C2156.73 341.411 2158.28 340.501 2159.17 339.978C2159.17 337.761 2159.17 335.984 2159.17 333.188C2159.09 333.115 2158.03 332.128 2157.1 331.254C2160.02 329.238 2163.97 327.896 2165.19 325.279C2166.39 322.719 2164.81 318.859 2164.42 315.408C2168.99 312.215 2170.11 304.882 2165.93 300.864C2173.87 299.348 2175.91 294.257 2176.17 286.904C2176.26 284.079 2177.98 280.009 2179.62 277.621C2184 271.249 2184.82 264.483 2185 257.284C2185.04 255.886 2185.32 254.494 2186.38 253.09C2187.23 259.036 2187.39 265.195 2189.13 270.865C2190.7 275.952 2194.01 280.503 2196.59 285.37C2193.55 286.296 2193.75 288.74 2194.66 292.272C2196.11 297.856 2196.41 303.764 2201.09 308.43C2201.14 308.845 2200.94 309.08 2200.94 309.08C2195.27 310.248 2199.42 313.909 2199.28 316.368C2199.22 317.369 2200.72 318.465 2201.86 319.979C2197.68 320.64 2198.08 322.797 2199.74 325.401C2201.08 327.497 2201.91 330.092 2203.66 331.717C2207.8 335.566 2207.24 338.969 2203.24 342.659C2202.76 342.735 2202.63 342.703 2202.49 342.671C2202.54 342.912 2202.6 343.152 2202.65 343.392C2203.64 345.02 2204.61 346.656 2205.61 348.274C2206.93 350.409 2207.44 352.228 2203.63 352.568C2203.05 352.564 2202.86 352.64 2202.67 352.715C2202.75 352.83 2202.83 352.945 2202.92 353.059C2204.25 360.304 2210.14 362.842 2217.75 365.219C2214.55 366.545 2213.12 367.139 2211.6 367.769C2211.89 368.53 2212.17 369.251 2212.62 370.417C2211.05 370.241 2209.7 370.091 2207.83 369.882C2207.83 373.562 2207.83 376.961 2207.83 380.361C2209.03 380.348 2210.43 380.74 2211.39 380.259C2220.26 375.83 2229.64 372.073 2235.57 363.44C2239.32 357.961 2241.89 352.153 2239.62 345.293C2238.33 341.382 2242.55 332.065 2246.55 330.055C2248.03 329.307 2249.48 328.348 2251.07 327.953C2262.28 325.156 2263.11 316.179 2263.7 307.028C2264.03 301.891 2263.94 296.676 2264.87 291.651C2265.27 289.475 2267.66 287.574 2269.38 285.773C2270.38 284.725 2271.96 284.25 2273.09 283.301C2279.2 278.192 2284.72 272.143 2291.43 268.039C2306.64 258.737 2321.23 247.789 2339.04 243.822C2344.44 242.619 2351.02 242.82 2356.07 244.843C2363.8 247.935 2371.13 246.159 2378.55 245.643C2387.15 245.046 2395.66 242.97 2404.27 242.426C2409.13 242.118 2414.17 243.293 2419.01 244.353C2424.31 245.511 2429.04 247.265 2434.87 244.767C2440.16 242.497 2446.66 243.229 2452.33 241.611C2465.58 237.831 2478.5 232.762 2491.88 229.602C2497.67 228.236 2504.57 229.296 2510.4 231.081C2516.27 232.876 2520.87 233.079 2526.38 229.978C2544.39 219.852 2564 214.174 2584.17 210.105C2589.33 209.064 2594.24 206.782 2599.27 205.079C2616.92 199.106 2634.58 193.181 2652.19 187.122C2655.15 186.106 2657.98 184.657 2660.74 183.17C2666.65 179.992 2672.4 178.553 2678.59 182.713C2682.69 185.475 2686.91 188.397 2691.51 190.018C2700.39 193.142 2709.46 195.9 2718.65 197.843C2725.59 199.31 2730.17 201.715 2733.89 208.609C2738.72 217.556 2743.95 226.752 2753.83 232.199C2760.42 235.835 2765.86 241.56 2771.83 246.327C2776.23 249.835 2780.66 253.307 2784.95 256.7C2793.11 253.073 2801.11 249.461 2809.15 245.957C2817.76 242.205 2826.68 241.261 2835.27 245.364C2841.95 248.549 2848.35 245.855 2854.81 245.692C2861.92 245.512 2869.09 244.459 2876.06 242.986C2884.12 241.285 2891.6 243.239 2899.14 245.226C2903.05 246.254 2906.51 246.84 2910.67 245.12C2914.48 243.54 2919.25 244.44 2923.32 243.267C2938.16 238.985 2952.83 234.109 2967.68 229.835C2974.51 227.869 2981.48 228.372 2988.2 231.069C2992.22 232.686 2996.27 234.696 3000.71 231.162C3001 305.991 3001 380.981 3001 455.954C2001 455.954 1001 455.954 1 455.954C1 378.918 1 301.927 1 224.469ZM1666.34 369.444C1667.13 369.835 1667.92 370.226 1668.71 370.618C1668.84 370.393 1668.96 370.168 1669.08 369.943C1668.17 369.48 1667.27 369.017 1666.1 368.042C1665.25 367.296 1664.4 366.55 1663.55 365.804C1663.27 366.175 1662.99 366.547 1662.71 366.918C1663.79 367.639 1664.86 368.361 1666.34 369.444ZM1676.58 388.675C1675.69 388.504 1674.8 388.333 1673.91 388.162C1673.9 388.424 1673.89 388.685 1673.89 388.947C1674.95 388.947 1676.01 388.947 1677.27 389.35C1680.94 393.994 1688.31 394.077 1693.18 389C1687.46 389 1682.24 389 1676.58 388.675ZM1274.76 363.599C1276.72 369.562 1278.21 370.158 1284.61 367.247C1283.08 365.618 1281.86 363.67 1280.1 362.653C1278.9 361.963 1276.95 362.58 1275.14 362.846C1275.14 362.846 1274.94 363.08 1274.76 363.599ZM1085.14 378.154C1085.14 378.154 1085.35 378.387 1085.06 378.941C1083.92 380.139 1082.78 381.337 1081.21 382.687C1080.67 382.91 1080.12 383.133 1079.58 383.356C1079.67 383.556 1079.76 383.757 1079.85 383.957C1080.58 383.665 1081.32 383.373 1082.75 382.99C1084.7 382.899 1086.66 382.829 1088.61 382.712C1091.07 382.565 1098.92 374.396 1098.24 371.905C1097.55 369.36 1095.7 366.897 1093.75 365.042C1092.99 364.319 1090.41 365.007 1088.93 365.665C1086.64 366.682 1084.59 368.225 1082.44 369.545C1082.66 370.056 1082.88 370.567 1083.1 371.078C1086.05 370.358 1088.99 369.639 1092.14 369.155C1092.14 369.155 1092.35 369.39 1091.97 369.94C1089.56 371.532 1087.15 373.119 1084.75 374.717C1082.98 375.889 1082.25 377.013 1085.14 378.154ZM1739.58 350.495C1736.87 351.498 1734.15 352.5 1731.46 353.494C1734.84 363.252 1733.11 365.426 1723.12 365.083C1721.29 365.021 1719.46 364.986 1717.63 364.965C1715.84 364.945 1714.05 364.961 1712.27 364.961C1716.48 368.282 1720.91 368.378 1725.54 367.309C1726.92 366.99 1729.27 366.55 1729.73 367.194C1733.17 372.049 1737 368.962 1739.47 368.595C1739.85 366.128 1739.81 364.574 1740.35 363.258C1741.41 360.674 1743.32 358.329 1743.86 355.678C1744.23 353.901 1742.86 351.765 1742.19 349.499C1741.99 349.567 1741.08 349.873 1739.58 350.495ZM1158.42 402.311C1156.47 403.389 1154.51 404.468 1153.28 405.148C1155.62 412.709 1157.68 419.379 1159.75 426.049C1160.35 425.92 1160.95 425.791 1161.55 425.662C1160.6 418.043 1159.65 410.423 1158.42 402.311ZM1056.57 352.935C1058.63 354.098 1060.69 355.26 1062.75 356.423C1063.16 355.746 1063.57 355.07 1063.98 354.393C1062.11 353.148 1059.97 352.154 1058.44 350.58C1057.13 349.244 1056.52 347.237 1055.6 345.527C1055.93 345.084 1056.27 344.642 1056.61 344.199C1053.81 343.443 1051.01 342.687 1048.21 341.931C1048.11 342.369 1048.01 342.808 1047.91 343.246C1050.62 346.32 1053.33 349.394 1056.57 352.935ZM1902.47 400.309C1906.65 402.416 1910.82 404.523 1915 406.629C1915.22 406.163 1915.45 405.697 1915.68 405.231C1913.89 404.176 1911.17 403.532 1910.5 401.993C1908.1 396.478 1904.12 395.91 1898.8 396.919C1900.09 398.065 1901.07 398.93 1902.47 400.309ZM2130.8 380.599C2126.16 382.835 2121.53 385.072 2115.51 387.973C2120.53 387.628 2124.45 387.537 2128.33 387.04C2132.18 386.545 2132.99 384.226 2130.8 380.599ZM1175.2 414.528C1178.37 414.528 1181.53 414.528 1185.56 414.528C1179.51 411.954 1174.46 409.807 1169.79 407.818C1170.29 412.832 1170.29 412.832 1175.2 414.528ZM1081.9 406.781C1086.69 409.769 1090.07 405.951 1093.92 404.306C1089.57 402.515 1085.88 404.555 1081.9 406.781ZM1438.79 397.309C1442.21 396.671 1445.64 396.033 1449.93 395.233C1444.05 391.318 1440.46 392.141 1438.79 397.309ZM958.033 355.761C961.107 356.555 964.182 357.35 968.439 358.449C965.001 352.345 960.842 351.704 958.033 355.761ZM1860.95 359.525C1861.83 357.955 1862.71 356.385 1863.59 354.815C1862.92 354.422 1862.25 354.028 1861.58 353.635C1859.4 357.001 1857.22 360.367 1855.04 363.732C1855.52 364.079 1855.99 364.425 1856.47 364.772C1857.81 363.188 1859.14 361.605 1860.95 359.525ZM1719.29 325.92C1716.8 325.367 1714.3 324.815 1711.46 324.186C1712.97 328.372 1716.2 329.041 1722.56 326.78C1721.38 326.422 1720.67 326.205 1719.29 325.92ZM1292.28 396.875C1295.49 396.386 1298.7 395.897 1301.91 395.407C1301.83 394.875 1301.75 394.343 1301.67 393.81C1297.78 394.213 1293.89 394.615 1290 395.017C1289.99 395.419 1289.99 395.821 1289.98 396.223C1290.53 396.432 1291.08 396.642 1292.28 396.875ZM1502.67 400.814C1503.53 400.09 1504.38 399.367 1505.23 398.644C1505 398.379 1504.77 398.113 1504.53 397.848C1501.14 398.41 1497.74 398.971 1494.34 399.533C1494.34 399.988 1494.35 400.444 1494.35 400.899C1496.87 400.899 1499.39 400.899 1502.67 400.814ZM1296.23 367.986C1299.82 367.986 1303.41 367.986 1307.01 367.986C1306.99 367.597 1306.97 367.209 1306.96 366.82C1302.32 366.82 1297.68 366.82 1293.04 366.82C1293.04 367.125 1293.04 367.431 1293.03 367.736C1293.85 367.814 1294.67 367.893 1296.23 367.986ZM1904.48 411.271C1902.19 410.426 1899.91 409.582 1896.67 408.387C1898.74 413.643 1902.44 412.366 1905.29 413.058C1905.15 412.603 1905 412.147 1904.48 411.271ZM1310.81 345.752C1312.49 345.29 1314.18 344.828 1316.83 344.099C1310.26 344.099 1304.76 344.099 1299.26 344.099C1299.22 344.303 1299.17 344.506 1299.13 344.71C1302.76 345.09 1306.38 345.469 1310.81 345.752ZM1512.26 406.412C1513.12 407.109 1514.33 408.57 1514.77 408.366C1516.26 407.667 1517.47 406.384 1518.79 405.324C1518.48 404.871 1518.17 404.418 1517.86 403.964C1516.12 404.659 1514.37 405.354 1512.26 406.412ZM1074.91 376.453C1073.16 376.139 1071.41 375.824 1069.66 375.509C1069.58 376.202 1069.5 376.896 1069.42 377.589C1072.34 377.969 1075.27 378.349 1078.19 378.73C1078.25 378.228 1078.32 377.727 1078.38 377.225C1077.43 377.039 1076.48 376.852 1074.91 376.453ZM1673.72 429.4C1671.27 429.4 1668.81 429.4 1666.36 429.4C1669.05 431.552 1671.68 432.694 1673.72 429.4ZM1699.46 309.668C1698.45 309.912 1697.43 310.156 1696.42 310.4C1696.53 310.9 1696.63 311.4 1696.74 311.899C1699.68 311.343 1702.62 310.786 1705.56 310.229C1705.46 309.655 1705.36 309.08 1705.25 308.505C1703.53 308.822 1701.81 309.138 1699.46 309.668ZM1356.75 398.373C1356.18 399.146 1355.6 399.92 1355.02 400.694C1355.7 400.963 1356.38 401.231 1357.06 401.5C1357.13 400.491 1357.21 399.483 1356.75 398.373ZM1943.39 320.299C1943.29 319.929 1943.2 319.558 1943.1 319.187C1942.87 319.331 1942.64 319.475 1942.42 319.619C1942.65 319.904 1942.88 320.19 1943.39 320.299ZM1456.89 309.21C1457 309.15 1457.12 309.089 1457.23 309.028C1457.15 308.935 1457.06 308.842 1456.98 308.749C1456.91 308.855 1456.84 308.961 1456.89 309.21ZM1191.22 350.1C1191.07 350.07 1190.91 350.04 1190.76 350.01C1190.86 350.083 1190.97 350.155 1191.22 350.1ZM2107.03 325.407C2107.12 325.571 2107.2 325.735 2107.29 325.9C2107.27 325.718 2107.25 325.536 2107.03 325.407ZM1078.32 354.042C1078.29 354.172 1078.26 354.301 1078.23 354.431C1078.29 354.343 1078.36 354.254 1078.32 354.042ZM1696.94 287.147C1696.84 287.217 1696.73 287.286 1696.62 287.355C1696.72 287.339 1696.83 287.323 1696.94 287.147ZM1191.95 391.718C1191.84 391.792 1191.73 391.866 1191.62 391.94C1191.73 391.919 1191.83 391.898 1191.95 391.718ZM1144.09 383.635L1144.03 383.428C1144.03 383.428 1143.97 383.631 1144.09 383.635ZM1004.91 324.428L1004.97 324.634C1004.97 324.634 1005.03 324.431 1004.91 324.428ZM1937.04 325.385L1936.86 325.507C1936.86 325.507 1937.09 325.497 1937.04 325.385ZM1015.37 291.089L1015.57 291.032C1015.57 291.032 1015.37 290.967 1015.37 291.089ZM942.115 276.536L941.901 276.457C941.901 276.457 942.036 276.628 942.115 276.536ZM948.051 268.441L947.869 268.562C947.869 268.562 948.094 268.554 948.051 268.441ZM1750.91 316.427L1750.97 316.634C1750.97 316.634 1751.04 316.431 1750.91 316.427ZM1265.43 322.087L1265.63 322.035C1265.63 322.035 1265.43 321.965 1265.43 322.087ZM1427.91 386.463L1428.12 386.538C1428.12 386.538 1427.98 386.37 1427.91 386.463ZM1408.37 391.066L1408.57 391.011C1408.57 391.011 1408.37 390.944 1408.37 391.066ZM1204.97 351.554L1205.16 351.431C1205.16 351.431 1204.93 351.44 1204.97 351.554ZM1836.48 347.876L1836.4 348.087C1836.4 348.087 1836.57 347.954 1836.48 347.876ZM1460.09 306.537L1459.88 306.462C1459.88 306.462 1460.02 306.63 1460.09 306.537ZM1051.1 337.479L1050.89 337.399C1050.89 337.399 1051.02 337.571 1051.1 337.479ZM1402.09 364.635L1402.03 364.428C1402.03 364.428 1401.97 364.631 1402.09 364.635ZM1838.89 359.465L1839.1 359.542C1839.1 359.542 1838.97 359.372 1838.89 359.465ZM797.479 297.899L797.399 298.111C797.399 298.111 797.571 297.978 797.479 297.899ZM1345.93 297.369L1345.99 297.574C1345.99 297.574 1346.06 297.372 1345.93 297.369ZM2157.48 356.899L2157.4 357.111C2157.4 357.111 2157.57 356.978 2157.48 356.899ZM1194.46 353.094L1194.54 352.882C1194.54 352.882 1194.37 353.016 1194.46 353.094ZM1863.56 351.47C1863.56 351.47 1863.48 351.507 1863.56 351.47V351.47Z" fill="#2D112B"/>
<path id="Vector_2" d="M1964.81 324.307C1964.51 323.817 1964.3 323.172 1964.09 322.527C1964.44 322.563 1964.79 322.599 1965.14 322.635C1965.06 323.141 1964.98 323.646 1964.81 324.307Z" fill="#2D112B"/>
<path id="Vector_3" d="M1186.74 340.265C1186.65 339.383 1186.66 338.387 1186.86 337.191C1187.03 336.991 1187.01 336.978 1186.97 337.339C1186.98 338.44 1187.02 339.181 1187.07 339.921C1187.07 339.921 1186.85 340.151 1186.74 340.265Z" fill="#2D112B"/>
<path id="Vector_4" d="M1689.07 252.926C1688.72 252.75 1688.47 252.48 1688.24 252.193C1688.23 252.183 1688.42 252.011 1688.52 251.915C1688.74 252.219 1688.96 252.524 1689.07 252.926Z" fill="#2D112B"/>
<path id="Vector_5" d="M1086.65 319.823C1086.31 319.747 1086.06 319.549 1085.8 319.351C1086.04 319.209 1086.28 319.068 1086.52 318.927C1086.59 319.185 1086.66 319.443 1086.65 319.823Z" fill="#2D112B"/>
<path id="Vector_6" d="M1963.08 317.081C1962.94 316.836 1962.93 316.596 1962.91 316.355C1963.05 316.359 1963.19 316.362 1963.33 316.366C1963.29 316.606 1963.25 316.846 1963.08 317.081Z" fill="#2D112B"/>
<path id="Vector_7" d="M1184.05 347.954C1183.53 347.39 1183.14 346.722 1182.74 346.055C1182.92 345.929 1183.1 345.804 1183.27 345.678C1183.6 346.196 1183.93 346.715 1184.35 347.438C1184.44 347.643 1184.18 347.85 1184.05 347.954Z" fill="#2D112B"/>
<path id="Vector_8" d="M1398.58 348.352C1398.3 348.313 1398.09 348.176 1397.89 348.039C1397.98 347.933 1398.07 347.827 1398.16 347.721C1398.32 347.898 1398.49 348.076 1398.58 348.352Z" fill="#2D112B"/>
<path id="Vector_9" d="M1968.77 336.986C1968.9 336.865 1969.02 336.84 1969.15 336.816C1969.02 336.905 1968.89 336.994 1968.77 336.986Z" fill="#2D112B"/>
<path id="Vector_10" d="M1376.96 337.966C1376.74 338.292 1376.4 338.512 1376.07 338.732C1376.18 338.444 1376.29 338.156 1376.52 337.758C1376.64 337.647 1376.86 337.859 1376.96 337.966Z" fill="#2D112B"/>
<path id="Vector_11" d="M1736.82 283.151C1736.83 282.974 1736.91 282.868 1736.98 282.762C1737.06 282.855 1737.14 282.947 1737.23 283.04C1737.11 283.101 1737 283.162 1736.82 283.151Z" fill="#2D112B"/>
<path id="Vector_12" d="M2042.32 264.252C2042.1 264.783 2041.74 265.213 2041.38 265.642C2041.47 265.186 2041.56 264.729 2041.79 264.109C2041.92 263.946 2042.19 264.15 2042.32 264.252Z" fill="#2D112B"/>
<path id="Vector_13" d="M952.278 269.679C952.785 269.918 953.174 270.289 953.563 270.659C953.161 270.765 952.758 270.871 952.165 270.973C951.975 270.969 952.002 270.996 951.994 270.771C951.986 270.547 951.931 270.072 951.931 270.072C951.931 270.072 952.162 269.809 952.278 269.679Z" fill="#2D112B"/>
<path id="Vector_14" d="M1736.01 271.791C1736.05 271.792 1735.98 271.789 1736.01 271.791V271.791Z" fill="#2D112B"/>
<path id="Vector_15" d="M1685.36 312.662C1685.36 312.809 1685.31 312.897 1685.25 312.986C1685.18 312.911 1685.11 312.836 1685.03 312.76C1685.12 312.708 1685.21 312.656 1685.36 312.662Z" fill="#2D112B"/>
<path id="Vector_16" d="M1082 340.987C1081.88 341.699 1081.76 342.409 1081.47 343.28C1081.3 343.443 1081.13 343.165 1081.18 342.785C1081.5 341.928 1081.76 341.451 1082.03 340.973C1082.03 340.973 1082.01 340.984 1082 340.987Z" fill="#2D112B"/>
<path id="Vector_17" d="M1258.95 290.046C1259.18 290.312 1259.28 290.682 1259.38 291.051C1259.15 290.903 1258.92 290.754 1258.62 290.481C1258.56 290.357 1258.82 290.149 1258.95 290.046Z" fill="#2D112B"/>
<path id="Vector_18" d="M1300.05 289.954C1299.82 289.688 1299.72 289.321 1299.62 288.954C1299.85 289.103 1300.08 289.252 1300.37 289.525C1300.44 289.649 1300.18 289.853 1300.05 289.954Z" fill="#2D112B"/>
<path id="Vector_19" d="M1212.04 372.038C1212.13 372.025 1212.32 372.128 1212.43 372.308C1212.34 372.385 1212.14 372.154 1212.04 372.038Z" fill="#2D112B"/>
<path id="Vector_20" d="M1688.5 309.951C1688.56 309.93 1688.57 310.156 1688.57 310.156C1688.57 310.156 1688.45 309.971 1688.5 309.951Z" fill="#2D112B"/>
<path id="Vector_21" d="M1661.76 380.272C1661.6 380.15 1661.55 379.911 1661.49 379.672C1661.63 379.704 1661.76 379.736 1661.98 379.844C1662.06 379.919 1661.86 380.155 1661.76 380.272Z" fill="#2D112B"/>
<path id="Vector_22" d="M1674.04 284.957C1673.84 284.944 1673.75 284.831 1673.67 284.717C1673.86 284.642 1674.04 284.567 1674.31 284.574C1674.39 284.655 1674.15 284.857 1674.04 284.957Z" fill="#2D112B"/>
<path id="Vector_23" d="M1221.96 374.963C1221.87 374.975 1221.68 374.871 1221.57 374.691C1221.66 374.614 1221.86 374.846 1221.96 374.963Z" fill="#2D112B"/>
<path id="Vector_24" d="M1338.42 287.075C1338.37 287.036 1338.54 286.901 1338.54 286.901C1338.54 286.901 1338.46 287.115 1338.42 287.075Z" fill="#2D112B"/>
<path id="Vector_25" d="M1625.96 371.963C1625.87 371.975 1625.69 371.874 1625.58 371.697C1625.66 371.622 1625.86 371.849 1625.96 371.963Z" fill="#2D112B"/>
<path id="Vector_26" d="M1980.73 368.756C1980.82 368.735 1981.03 368.816 1981.16 368.977C1981.08 369.057 1980.84 368.857 1980.73 368.756Z" fill="#2D112B"/>
<path id="Vector_27" d="M1821.24 324.728C1821.4 324.85 1821.45 325.089 1821.51 325.327C1821.37 325.296 1821.24 325.264 1821.02 325.156C1820.94 325.081 1821.14 324.845 1821.24 324.728Z" fill="#2D112B"/>
<path id="Vector_28" d="M1691.04 268.958C1690.84 268.945 1690.75 268.83 1690.67 268.716C1690.86 268.64 1691.04 268.565 1691.31 268.571C1691.39 268.652 1691.15 268.857 1691.04 268.958Z" fill="#2D112B"/>
<path id="Vector_29" d="M1335.73 270.742C1336.03 270.678 1336.43 270.723 1336.91 270.897C1336.99 271.026 1337 270.998 1336.78 271.007C1336.55 271.015 1336.07 271.071 1336.07 271.071C1336.07 271.071 1335.85 270.852 1335.73 270.742Z" fill="#2D112B"/>
<path id="Vector_30" d="M2119.5 318.073C2119.45 318.095 2119.44 317.868 2119.44 317.868C2119.44 317.868 2119.56 318.051 2119.5 318.073Z" fill="#2D112B"/>
<path id="Vector_31" d="M2116.42 311.074C2116.37 311.035 2116.54 310.902 2116.54 310.902C2116.54 310.902 2116.46 311.113 2116.42 311.074Z" fill="#2D112B"/>
<path id="Vector_32" d="M1452.96 309.963C1452.87 309.975 1452.68 309.871 1452.57 309.689C1452.65 309.612 1452.86 309.845 1452.96 309.963Z" fill="#2D112B"/>
<path id="Vector_33" d="M1294.04 322.958C1293.84 322.943 1293.76 322.831 1293.67 322.719C1293.86 322.646 1294.04 322.573 1294.3 322.581C1294.38 322.662 1294.15 322.859 1294.04 322.958Z" fill="#2D112B"/>
<path id="Vector_34" d="M2201.24 308.729C2201.4 308.851 2201.45 309.089 2201.51 309.328C2201.37 309.295 2201.24 309.263 2201.02 309.155C2200.94 309.08 2201.14 308.845 2201.24 308.729Z" fill="#2D112B"/>
<path id="Vector_35" d="M1173.74 391.265C1173.56 391.081 1173.45 390.788 1173.43 390.488C1173.43 390.387 1173.65 390.272 1173.9 390.088C1174.03 390.013 1174 389.996 1174.01 390.224C1174.01 390.453 1174.07 390.927 1174.07 390.927C1174.07 390.927 1173.85 391.153 1173.74 391.265Z" fill="#2D112B"/>
<path id="Vector_36" d="M966.042 284.038C966.13 284.025 966.319 284.128 966.426 284.308C966.344 284.385 966.142 284.154 966.042 284.038Z" fill="#2D112B"/>
<path id="Vector_37" d="M1284.43 350.026C1284.43 349.966 1284.63 350.035 1284.63 350.035C1284.63 350.035 1284.43 350.086 1284.43 350.026Z" fill="#2D112B"/>
<path id="Vector_38" d="M1840.76 330.269C1840.61 330.148 1840.55 329.911 1840.5 329.674C1840.63 329.706 1840.76 329.738 1840.98 329.846C1841.06 329.921 1840.86 330.153 1840.76 330.269Z" fill="#2D112B"/>
<path id="Vector_39" d="M2089.76 330.271C2089.6 330.15 2089.55 329.911 2089.49 329.673C2089.63 329.704 2089.76 329.736 2089.98 329.844C2090.06 329.92 2089.86 330.155 2089.76 330.271Z" fill="#2D112B"/>
<path id="Vector_40" d="M974.75 346.268C974.568 346.086 974.455 345.792 974.434 345.491C974.427 345.389 974.652 345.272 974.899 345.085C975.026 345.009 974.999 344.992 975.006 345.22C975.013 345.448 975.066 345.924 975.066 345.924C975.066 345.924 974.856 346.154 974.75 346.268Z" fill="#2D112B"/>
<path id="Vector_41" d="M1376.96 330.962C1376.87 330.975 1376.69 330.875 1376.58 330.7C1376.66 330.624 1376.86 330.849 1376.96 330.962Z" fill="#2D112B"/>
<path id="Vector_42" d="M1727.04 309.037C1727.13 309.025 1727.32 309.129 1727.43 309.31C1727.34 309.387 1727.14 309.154 1727.04 309.037Z" fill="#2D112B"/>
<path id="Vector_43" d="M1359.05 304.503C1359.07 304.56 1358.84 304.569 1358.84 304.569C1358.84 304.569 1359.03 304.447 1359.05 304.503Z" fill="#2D112B"/>
<path id="Vector_44" d="M1342.04 306.038C1342.13 306.025 1342.31 306.126 1342.42 306.304C1342.34 306.38 1342.14 306.152 1342.04 306.038Z" fill="#2D112B"/>
<path id="Vector_45" d="M1281.58 340.946C1281.63 340.985 1281.46 341.117 1281.46 341.117C1281.46 341.117 1281.54 340.908 1281.58 340.946Z" fill="#2D112B"/>
<path id="Vector_46" d="M898.477 292.084C898.431 292.046 898.597 291.914 898.597 291.914C898.597 291.914 898.523 292.122 898.477 292.084Z" fill="#2D112B"/>
<path id="Vector_47" d="M1326.75 295.732C1327.04 295.668 1327.44 295.719 1327.92 295.899C1327.99 296.026 1328.01 295.999 1327.78 296.009C1327.54 296.019 1327.06 296.077 1327.06 296.077C1327.06 296.077 1326.85 295.848 1326.75 295.732Z" fill="#2D112B"/>
<path id="Vector_48" d="M1675.76 329.269C1675.61 329.147 1675.55 328.911 1675.5 328.674C1675.63 328.706 1675.76 328.738 1675.98 328.846C1676.06 328.921 1675.86 329.153 1675.76 329.269Z" fill="#2D112B"/>
<path id="Vector_49" d="M1905.76 359.269C1905.61 359.147 1905.55 358.911 1905.5 358.674C1905.63 358.706 1905.76 358.738 1905.98 358.846C1906.06 358.922 1905.86 359.153 1905.76 359.269Z" fill="#2D112B"/>
<path id="Vector_50" d="M1370.43 358.006C1370.43 357.946 1370.63 358.015 1370.63 358.015C1370.63 358.015 1370.43 358.066 1370.43 358.006Z" fill="#2D112B"/>
<path id="Vector_51" d="M1180.07 355.581C1180.04 355.627 1179.9 355.458 1179.9 355.458C1179.9 355.458 1180.11 355.535 1180.07 355.581Z" fill="#2D112B"/>
<path id="Vector_52" d="M1007.96 308.963C1007.87 308.975 1007.68 308.871 1007.57 308.69C1007.65 308.614 1007.86 308.846 1007.96 308.963Z" fill="#2D112B"/>
<path id="Vector_53" d="M1682.75 302.274C1682.6 302.152 1682.54 301.912 1682.49 301.672C1682.63 301.703 1682.76 301.735 1682.98 301.843C1683.06 301.919 1682.86 302.156 1682.75 302.274Z" fill="#2D112B"/>
<path id="Vector_54" d="M1943.25 320.388C1942.88 320.19 1942.65 319.904 1942.42 319.619C1942.64 319.475 1942.87 319.331 1943.1 319.187C1943.2 319.558 1943.29 319.929 1943.25 320.388Z" fill="black"/>
<path id="Vector_55" d="M1032.05 317.953C1031.53 317.39 1031.13 316.722 1030.74 316.054C1030.92 315.928 1031.1 315.802 1031.27 315.676C1031.6 316.194 1031.93 316.712 1032.35 317.434C1032.44 317.638 1032.18 317.849 1032.05 317.953Z" fill="black"/>
<path id="Vector_56" d="M2032.68 314.746C2032.9 314.214 2033.26 313.787 2033.62 313.359C2033.53 313.815 2033.44 314.272 2033.22 314.892C2033.08 315.055 2032.81 314.849 2032.68 314.746Z" fill="black"/>
<path id="Vector_57" d="M1187.25 339.808C1187.02 339.181 1186.98 338.44 1186.96 337.33C1187.13 337.872 1187.28 338.783 1187.25 339.808Z" fill="black"/>
<path id="Vector_58" d="M1456.83 309.139C1456.84 308.961 1456.91 308.855 1456.98 308.749C1457.06 308.842 1457.15 308.935 1457.23 309.028C1457.12 309.089 1457 309.15 1456.83 309.139Z" fill="black"/>
<path id="Vector_59" d="M1191.15 350.164C1190.97 350.155 1190.86 350.083 1190.76 350.01C1190.91 350.04 1191.07 350.07 1191.15 350.164Z" fill="black"/>
<path id="Vector_60" d="M2107.13 325.381C2107.25 325.536 2107.27 325.718 2107.29 325.9C2107.2 325.735 2107.12 325.571 2107.13 325.381Z" fill="black"/>
<path id="Vector_61" d="M1462.75 316.746C1462.98 316.434 1463.32 316.231 1463.66 316.028C1463.57 316.327 1463.47 316.627 1463.23 316.998C1463.08 317.07 1462.86 316.854 1462.75 316.746Z" fill="black"/>
<path id="Vector_62" d="M2112.96 319.967C2112.8 320.351 2112.52 320.626 2112.25 320.901C2112.3 320.556 2112.34 320.211 2112.51 319.753C2112.64 319.641 2112.85 319.857 2112.96 319.967Z" fill="black"/>
<path id="Vector_63" d="M1174.23 390.908C1174.07 390.927 1174.01 390.453 1173.99 390.215C1174.32 390.124 1174.67 390.27 1175.02 390.417C1174.81 390.574 1174.6 390.731 1174.23 390.908Z" fill="black"/>
<path id="Vector_64" d="M951.774 270.091C951.931 270.072 951.986 270.547 952.007 270.785C951.676 270.875 951.323 270.727 950.97 270.579C951.186 270.423 951.401 270.266 951.774 270.091Z" fill="black"/>
<path id="Vector_65" d="M1081.82 341.027C1081.76 341.451 1081.5 341.928 1081.1 342.646C1081.18 342.285 1081.39 341.683 1081.82 341.027Z" fill="black"/>
<path id="Vector_66" d="M1950.31 303.252C1950.13 303.565 1949.81 303.775 1949.5 303.984C1949.56 303.714 1949.63 303.445 1949.81 303.06C1949.92 302.944 1950.18 303.149 1950.31 303.252Z" fill="black"/>
<path id="Vector_67" d="M1336.09 271.227C1336.07 271.071 1336.55 271.015 1336.79 270.993C1336.88 271.322 1336.73 271.673 1336.58 272.024C1336.43 271.811 1336.27 271.597 1336.09 271.227Z" fill="black"/>
<path id="Vector_68" d="M1466.69 273.747C1466.87 273.435 1467.19 273.226 1467.5 273.017C1467.44 273.286 1467.37 273.555 1467.19 273.94C1467.08 274.056 1466.82 273.851 1466.69 273.747Z" fill="black"/>
<path id="Vector_69" d="M1078.37 354.104C1078.36 354.254 1078.29 354.343 1078.23 354.431C1078.26 354.301 1078.29 354.172 1078.37 354.104Z" fill="black"/>
<path id="Vector_70" d="M2089.25 357.686C2089.57 357.87 2089.77 358.186 2089.98 358.502C2089.71 358.437 2089.44 358.372 2089.06 358.195C2088.94 358.083 2089.15 357.818 2089.25 357.686Z" fill="black"/>
<path id="Vector_71" d="M1327.06 296.219C1327.06 296.077 1327.54 296.019 1327.79 295.995C1327.84 296.305 1327.66 296.638 1327.47 296.971C1327.33 296.767 1327.19 296.564 1327.06 296.219Z" fill="black"/>
<path id="Vector_72" d="M1908.25 393.687C1908.56 393.871 1908.77 394.186 1908.98 394.502C1908.71 394.437 1908.44 394.371 1908.06 394.194C1907.94 394.083 1908.15 393.818 1908.25 393.687Z" fill="black"/>
<path id="Vector_73" d="M1355.95 365.95C1355.69 366.181 1355.32 366.279 1354.95 366.378C1355.1 366.148 1355.24 365.918 1355.52 365.621C1355.64 365.555 1355.85 365.818 1355.95 365.95Z" fill="black"/>
<path id="Vector_74" d="M1696.94 287.227C1696.83 287.323 1696.72 287.339 1696.62 287.355C1696.73 287.286 1696.84 287.217 1696.94 287.227Z" fill="black"/>
<path id="Vector_75" d="M1191.95 391.798C1191.83 391.898 1191.73 391.919 1191.62 391.94C1191.73 391.866 1191.84 391.792 1191.95 391.798Z" fill="black"/>
<path id="Vector_76" d="M1867.69 335.747C1867.87 335.435 1868.19 335.225 1868.5 335.016C1868.44 335.286 1868.37 335.555 1868.19 335.94C1868.08 336.056 1867.82 335.851 1867.69 335.747Z" fill="black"/>
<path id="Vector_77" d="M2092.25 325.686C2092.57 325.87 2092.77 326.186 2092.98 326.502C2092.71 326.437 2092.44 326.372 2092.06 326.195C2091.94 326.084 2092.15 325.818 2092.25 325.686Z" fill="black"/>
<path id="Vector_78" d="M1144.03 383.633C1143.97 383.631 1144.03 383.428 1144.03 383.428C1144.03 383.428 1144.09 383.635 1144.03 383.633Z" fill="black"/>
<path id="Vector_79" d="M1004.97 324.429C1005.03 324.431 1004.97 324.634 1004.97 324.634C1004.97 324.634 1004.91 324.428 1004.97 324.429Z" fill="black"/>
<path id="Vector_80" d="M1425.96 376.963C1425.87 376.975 1425.68 376.87 1425.57 376.688C1425.65 376.611 1425.86 376.845 1425.96 376.963Z" fill="black"/>
<path id="Vector_81" d="M2008.75 376.275C2008.6 376.153 2008.54 375.912 2008.49 375.671C2008.63 375.703 2008.76 375.734 2008.98 375.841C2009.06 375.917 2008.86 376.156 2008.75 376.275Z" fill="black"/>
<path id="Vector_82" d="M1987.73 372.755C1987.82 372.734 1988.03 372.815 1988.16 372.977C1988.08 373.058 1987.84 372.856 1987.73 372.755Z" fill="black"/>
<path id="Vector_83" d="M1216.96 386.963C1216.87 386.975 1216.68 386.87 1216.57 386.688C1216.65 386.611 1216.86 386.845 1216.96 386.963Z" fill="black"/>
<path id="Vector_84" d="M1729.96 286.963C1729.87 286.975 1729.68 286.87 1729.57 286.688C1729.65 286.61 1729.86 286.845 1729.96 286.963Z" fill="black"/>
<path id="Vector_85" d="M1637.04 367.958C1636.83 367.945 1636.75 367.83 1636.67 367.716C1636.86 367.64 1637.05 367.564 1637.31 367.57C1637.39 367.652 1637.16 367.856 1637.04 367.958Z" fill="black"/>
<path id="Vector_86" d="M1937.06 325.441C1937.09 325.497 1936.86 325.507 1936.86 325.507C1936.86 325.507 1937.04 325.385 1937.06 325.441Z" fill="black"/>
<path id="Vector_87" d="M1015.37 291.028C1015.37 290.967 1015.57 291.033 1015.57 291.033C1015.57 291.033 1015.37 291.089 1015.37 291.028Z" fill="black"/>
<path id="Vector_88" d="M942.075 276.582C942.036 276.628 941.901 276.457 941.901 276.457C941.901 276.457 942.115 276.536 942.075 276.582Z" fill="black"/>
<path id="Vector_89" d="M943.754 257.274C943.598 257.152 943.544 256.912 943.49 256.671C943.625 256.703 943.761 256.734 943.977 256.842C944.058 256.918 943.856 257.156 943.754 257.274Z" fill="black"/>
<path id="Vector_90" d="M1739.96 312.963C1739.87 312.976 1739.68 312.87 1739.57 312.687C1739.65 312.61 1739.86 312.845 1739.96 312.963Z" fill="black"/>
<path id="Vector_91" d="M948.073 268.498C948.094 268.555 947.869 268.563 947.869 268.563C947.869 268.563 948.051 268.441 948.073 268.498Z" fill="black"/>
<path id="Vector_92" d="M1750.97 316.429C1751.04 316.431 1750.97 316.634 1750.97 316.634C1750.97 316.634 1750.91 316.427 1750.97 316.429Z" fill="black"/>
<path id="Vector_93" d="M1693.98 276.004C1693.98 276.016 1694.24 275.787 1694.24 275.787C1694.24 275.787 1694.08 275.911 1694.01 275.942C1693.94 275.974 1693.97 275.992 1693.98 276.004Z" fill="black"/>
<path id="Vector_94" d="M1265.43 322.026C1265.43 321.965 1265.63 322.035 1265.63 322.035C1265.63 322.035 1265.43 322.087 1265.43 322.026Z" fill="black"/>
<path id="Vector_95" d="M1427.95 386.416C1427.98 386.37 1428.12 386.538 1428.12 386.538C1428.12 386.538 1427.91 386.463 1427.95 386.416Z" fill="black"/>
<path id="Vector_96" d="M1338.27 276.246C1338.18 276.266 1337.98 276.185 1337.84 276.023C1337.92 275.942 1338.16 276.144 1338.27 276.246Z" fill="black"/>
<path id="Vector_97" d="M1732.96 278.963C1732.87 278.976 1732.68 278.87 1732.57 278.687C1732.65 278.61 1732.86 278.845 1732.96 278.963Z" fill="black"/>
<path id="Vector_98" d="M1408.37 391.005C1408.37 390.944 1408.57 391.011 1408.57 391.011C1408.57 391.011 1408.37 391.066 1408.37 391.005Z" fill="black"/>
<path id="Vector_99" d="M1686.96 281.042C1687.17 281.055 1687.25 281.17 1687.34 281.285C1687.15 281.361 1686.95 281.436 1686.69 281.43C1686.61 281.348 1686.85 281.144 1686.96 281.042Z" fill="black"/>
<path id="Vector_100" d="M1956.27 322.246C1956.18 322.266 1955.97 322.185 1955.84 322.022C1955.92 321.942 1956.16 322.144 1956.27 322.246Z" fill="black"/>
<path id="Vector_101" d="M1006.73 327.755C1006.82 327.734 1007.02 327.815 1007.16 327.977C1007.08 328.058 1006.84 327.856 1006.73 327.755Z" fill="black"/>
<path id="Vector_102" d="M1131.75 334.273C1131.6 334.151 1131.54 333.911 1131.49 333.672C1131.63 333.703 1131.76 333.735 1131.98 333.843C1132.06 333.919 1131.86 334.156 1131.75 334.273Z" fill="black"/>
<path id="Vector_103" d="M1204.95 351.497C1204.93 351.44 1205.16 351.431 1205.16 351.431C1205.16 351.431 1204.97 351.554 1204.95 351.497Z" fill="black"/>
<path id="Vector_104" d="M2071.75 349.275C2071.6 349.153 2071.54 348.912 2071.49 348.672C2071.63 348.703 2071.76 348.734 2071.98 348.841C2072.06 348.917 2071.86 349.156 2071.75 349.275Z" fill="black"/>
<path id="Vector_105" d="M1088.27 348.246C1088.18 348.266 1087.97 348.185 1087.84 348.023C1087.92 347.942 1088.16 348.144 1088.27 348.246Z" fill="black"/>
<path id="Vector_106" d="M1836.52 347.915C1836.57 347.954 1836.4 348.087 1836.4 348.087C1836.4 348.087 1836.48 347.876 1836.52 347.915Z" fill="black"/>
<path id="Vector_107" d="M975.177 345.857C975.066 345.924 975.013 345.448 974.993 345.21C975.162 345.134 975.36 345.287 975.526 345.47C975.544 345.489 975.373 345.68 975.177 345.857Z" fill="black"/>
<path id="Vector_108" d="M1446.04 366.037C1446.13 366.025 1446.32 366.13 1446.43 366.312C1446.35 366.389 1446.14 366.155 1446.04 366.037Z" fill="black"/>
<path id="Vector_109" d="M2202.75 343.274C2202.6 343.152 2202.54 342.912 2202.49 342.671C2202.63 342.703 2202.76 342.735 2202.98 342.842C2203.06 342.918 2202.86 343.156 2202.75 343.274Z" fill="black"/>
<path id="Vector_110" d="M1668.96 340.042C1669.17 340.055 1669.25 340.17 1669.34 340.285C1669.15 340.361 1668.95 340.437 1668.69 340.431C1668.61 340.349 1668.84 340.144 1668.96 340.042Z" fill="black"/>
<path id="Vector_111" d="M1460.05 306.584C1460.02 306.63 1459.88 306.462 1459.88 306.462C1459.88 306.462 1460.09 306.537 1460.05 306.584Z" fill="black"/>
<path id="Vector_112" d="M2025.04 334.037C2025.13 334.024 2025.32 334.13 2025.43 334.313C2025.35 334.391 2025.14 334.155 2025.04 334.037Z" fill="black"/>
<path id="Vector_113" d="M982.963 335.042C983.165 335.055 983.25 335.17 983.335 335.284C983.145 335.36 982.955 335.436 982.688 335.43C982.611 335.348 982.845 335.144 982.963 335.042Z" fill="black"/>
<path id="Vector_114" d="M1051.06 337.525C1051.02 337.571 1050.89 337.399 1050.89 337.399C1050.89 337.399 1051.1 337.479 1051.06 337.525Z" fill="black"/>
<path id="Vector_115" d="M1184.25 356.726C1184.4 356.848 1184.46 357.088 1184.51 357.328C1184.37 357.297 1184.24 357.265 1184.02 357.158C1183.94 357.082 1184.14 356.844 1184.25 356.726Z" fill="black"/>
<path id="Vector_116" d="M1010.73 308.755C1010.82 308.734 1011.03 308.815 1011.16 308.977C1011.08 309.058 1010.84 308.856 1010.73 308.755Z" fill="black"/>
<path id="Vector_117" d="M1891.75 365.274C1891.6 365.152 1891.54 364.912 1891.49 364.672C1891.63 364.703 1891.76 364.735 1891.98 364.842C1892.06 364.918 1891.86 365.156 1891.75 365.274Z" fill="black"/>
<path id="Vector_118" d="M1402.03 364.633C1401.97 364.631 1402.03 364.428 1402.03 364.428C1402.03 364.428 1402.09 364.635 1402.03 364.633Z" fill="black"/>
<path id="Vector_119" d="M2126.96 362.963C2126.87 362.975 2126.68 362.87 2126.57 362.688C2126.65 362.61 2126.86 362.845 2126.96 362.963Z" fill="black"/>
<path id="Vector_120" d="M1838.93 359.418C1838.97 359.372 1839.1 359.542 1839.1 359.542C1839.1 359.542 1838.89 359.464 1838.93 359.418Z" fill="black"/>
<path id="Vector_121" d="M797.525 297.938C797.571 297.978 797.399 298.111 797.399 298.111C797.399 298.111 797.479 297.899 797.525 297.938Z" fill="black"/>
<path id="Vector_122" d="M2203.04 352.958C2202.83 352.945 2202.75 352.83 2202.67 352.715C2202.86 352.64 2203.05 352.564 2203.31 352.57C2203.39 352.652 2203.16 352.856 2203.04 352.958Z" fill="black"/>
<path id="Vector_123" d="M1346 297.37C1346.06 297.372 1345.99 297.574 1345.99 297.574C1345.99 297.574 1345.93 297.369 1346 297.37Z" fill="black"/>
<path id="Vector_124" d="M2157.52 356.938C2157.57 356.978 2157.4 357.111 2157.4 357.111C2157.4 357.111 2157.48 356.899 2157.52 356.938Z" fill="black"/>
<path id="Vector_125" d="M1757.73 299.755C1757.82 299.734 1758.03 299.815 1758.16 299.977C1758.08 300.058 1757.84 299.856 1757.73 299.755Z" fill="black"/>
<path id="Vector_126" d="M1959.27 328.246C1959.18 328.266 1958.97 328.185 1958.84 328.023C1958.92 327.942 1959.16 328.144 1959.27 328.246Z" fill="black"/>
<path id="Vector_127" d="M1194.42 353.055C1194.37 353.016 1194.54 352.882 1194.54 352.882C1194.54 352.882 1194.46 353.094 1194.42 353.055Z" fill="black"/>
<path id="Vector_128" d="M1189.2 391.83C1189.28 391.747 1189.3 392.024 1189.3 392.024C1189.3 392.024 1189.05 392.135 1189 392.106C1188.94 392.076 1189.11 391.913 1189.2 391.83Z" fill="black"/>
<path id="Vector_129" d="M1670.2 387.829C1670.28 387.745 1670.3 388.024 1670.3 388.024C1670.3 388.024 1670.05 388.136 1670 388.107C1669.94 388.078 1670.11 387.913 1670.2 387.829Z" fill="black"/>
<path id="Vector_130" d="M1863.52 351.488C1863.48 351.507 1863.56 351.47 1863.52 351.488V351.488Z" fill="black"/>
<path id="Vector_131" d="M1089.63 379.895C1089.64 379.746 1089.71 379.658 1089.77 379.57C1089.74 379.699 1089.71 379.828 1089.63 379.895Z" fill="#2D112B"/>
<path id="Vector_132" d="M1085.04 378.037C1085.13 378.025 1085.32 378.129 1085.43 378.31C1085.35 378.387 1085.14 378.154 1085.04 378.037Z" fill="#2D112B"/>
<path id="Vector_133" d="M1092.04 369.037C1092.13 369.025 1092.32 369.13 1092.43 369.312C1092.35 369.39 1092.14 369.155 1092.04 369.037Z" fill="#2D112B"/>
<path id="Vector_134" d="M1275.24 362.729C1275.4 362.851 1275.45 363.089 1275.51 363.327C1275.37 363.295 1275.24 363.263 1275.02 363.155C1274.94 363.08 1275.14 362.846 1275.24 362.729Z" fill="#2D112B"/>
</g>
<defs>
<clipPath id="clip0_1_2">
<rect width="3000" height="455" fill="white"/>
</clipPath>
</defs>
</svg>
