<svg width="3000" height="455" viewBox="0 0 3000 455" fill="none" xmlns="http://www.w3.org/2000/svg">
<g id="Vector 5" clip-path="url(#clip0_1_1103)">
<path id="Vector" d="M1444.11 296.074C1444.08 296.505 1444.04 296.936 1443.59 297.708C1440.47 298.049 1437.75 298.049 1435.08 298.049C1432.54 291.576 1432.54 291.576 1426.88 292.066C1426.88 292.066 1426.95 292.052 1426.94 291.652C1426.43 285.339 1425.92 279.426 1425.41 273.514C1424.81 273.567 1424.2 273.621 1423.59 273.674C1424.1 279.473 1424.61 285.272 1425.12 291.071C1425.09 291.467 1425.06 291.863 1425.03 292.87C1425.05 293.689 1425.05 293.898 1425.06 294.106C1425.06 294.106 1425.06 294.038 1424.75 294.052C1421.92 293.021 1419.4 291.977 1416.88 290.932C1416.88 290.932 1416.94 290.541 1416.96 290.02C1416.97 289.285 1416.96 289.07 1416.95 288.855C1416.95 288.855 1416.94 288.462 1417.11 287.988C1418.56 284.107 1416.14 284.194 1413.83 283.818C1413.05 282.452 1412.43 281.295 1411.99 280.47C1410.52 282.317 1409.24 283.926 1407.96 285.534C1406.32 284.136 1404.68 282.738 1403.15 281.435C1403.16 281.419 1403.05 281.737 1403.03 282.061C1402.56 289.225 1401.28 291.064 1395.06 290.618C1390.12 290.263 1389.9 285.925 1389.99 281.96C1390.03 279.872 1390 277.782 1390 275.693C1389.58 275.714 1389.17 275.735 1388.76 275.755C1388.23 280.323 1387.9 284.931 1387.02 289.43C1386.81 290.482 1384.39 292.129 1383.58 291.839C1381.19 290.982 1379.09 289.295 1376.88 287.932C1376.88 287.932 1376.94 287.541 1376.96 287.02C1376.97 286.285 1376.96 286.07 1376.95 285.855C1376.95 285.855 1377 285.402 1377.25 284.849C1377.83 279.481 1378.16 274.666 1378.49 269.851C1377.84 269.798 1377.19 269.744 1376.54 269.691C1375.87 273.407 1375.51 277.218 1374.4 280.798C1373.85 282.573 1371.79 285.304 1370.66 285.191C1368.02 284.926 1366.23 283.096 1366.66 279.569C1367.97 268.735 1368.9 257.854 1369.98 246.577C1369.88 240.261 1372.04 235.604 1377.55 232.996C1381.74 231.016 1385.91 228.824 1390.32 227.517C1395.24 226.06 1397.39 222.996 1397.86 218.239C1398.02 216.633 1398.2 215.029 1398.38 213.424C1398.71 213.466 1399.05 213.507 1399.38 213.548C1399.92 216.015 1400.45 218.482 1401.05 221.262C1407.51 217.683 1417.7 221.445 1418.99 210.081C1419.55 211.248 1420.11 212.414 1421.23 214.735C1422.94 210.792 1424.21 207.835 1425.44 205.007C1429.01 209.817 1434.18 208.866 1438.21 202.388C1446.5 205.17 1442.2 195.935 1446.25 194.162C1447.5 196.866 1448.74 199.577 1449.99 202.289C1450.36 202.559 1450.74 202.828 1451.11 203.098C1452.18 195.571 1457.51 195.791 1462.51 195.388C1462.67 195.376 1462.81 195.247 1462.96 195.173C1468.25 196.547 1469.05 191.054 1472.46 188.007C1472.84 190.762 1473.07 192.453 1473.43 195.064C1476.26 192.31 1478.59 190.041 1481.41 187.294C1481.81 189.539 1482.09 191.074 1482.64 194.175C1485.19 190.045 1487.14 186.883 1489.44 183.143C1492.01 185.884 1493.93 187.94 1496.47 190.655C1497.98 186.448 1499.17 183.131 1500.69 178.862C1502.17 181.423 1503.03 182.919 1504.03 184.67C1507.25 183.377 1510.38 182.117 1513.52 180.858C1513.68 181.202 1513.85 181.546 1514.01 181.89C1515.6 178.975 1517.19 176.06 1518.93 172.865C1521.02 176.367 1522.75 179.268 1524.48 182.169C1524.95 181.944 1525.42 181.72 1525.89 181.496C1525.98 182.808 1526.08 184.12 1526.23 186.346C1529.57 181.219 1536.99 185.808 1539.29 179.376C1542.74 180.473 1544.62 177.986 1546.58 175.995C1547.41 175.162 1547.69 173.808 1548.26 172.715C1548.73 171.822 1549.27 170.965 1549.78 170.092C1550.53 170.995 1551.66 171.796 1551.93 172.824C1552.35 174.423 1552.19 176.176 1553.47 177.881C1553.88 174.983 1554.3 172.084 1554.71 169.186C1555.17 169.228 1555.63 169.269 1556.08 169.31C1557.14 172.778 1558.2 176.246 1559.36 180.032C1560.64 180.213 1562.73 180.507 1565.58 180.91C1566.79 175.744 1568.17 169.882 1569.55 164.02C1569.82 164.034 1570.09 164.048 1570.36 164.062C1571.06 167.295 1571.76 170.528 1572.55 174.193C1573.64 173.297 1574.6 171.966 1575.16 172.12C1582.18 174.064 1580.86 168.348 1581.96 164.877C1582.7 162.538 1583.41 160.19 1584.48 156.737C1587.42 162.181 1590.1 163.02 1594.19 159.649C1595.39 158.667 1599.49 159.184 1600.49 160.432C1602.47 162.912 1604.35 161.12 1606.11 161.226C1609.5 161.432 1612.39 161.717 1614.12 165.318C1614.84 166.817 1616.75 168.766 1618.06 168.718C1619.91 168.649 1622.12 167.286 1623.4 165.807C1624.73 164.274 1625.02 161.873 1626.01 159.98C1626.83 158.411 1628 157.029 1629.38 155.977C1630.66 153.223 1631.93 150.47 1633.21 147.716C1633.62 147.811 1634.04 147.905 1634.45 148C1634.77 149.084 1635.09 150.169 1635.55 151.727C1639.99 146.531 1644.19 141.609 1648.07 137.067C1651.24 137.067 1654.34 137.067 1657.57 137.067C1658.76 132.179 1660.08 131.711 1665.27 134.966C1665.97 133.365 1666.66 131.785 1667.34 130.217C1676.02 133.657 1677.41 124.726 1683.04 121.627C1685.83 122.4 1688.17 127.171 1692.77 125.044C1692.98 124.945 1693.57 125.15 1693.65 125.346C1696.09 131.517 1700.7 129.443 1705.08 128.427C1710.1 127.26 1712.47 123.932 1713.02 119.008C1713.06 118.64 1713.55 118.323 1713.91 117.891C1718.55 121.236 1722.7 125.419 1727.72 127.419C1730.96 128.713 1735.49 126.846 1739.43 126.309C1739.89 126.246 1740.62 125.295 1740.65 125.326C1745.99 130.722 1752.85 124.573 1757.14 128.129C1759.84 124.616 1762.12 122.178 1763.75 119.361C1765.49 116.361 1766.62 113.009 1767.98 109.797C1769.67 105.81 1771.33 101.81 1772.97 97.8904C1778.82 99.6733 1778.82 99.6733 1781.05 91.8627C1786.25 88.1346 1790.39 90.1928 1795.06 93.2746C1799.08 95.9226 1804.51 96.2823 1806.33 102.086C1806.68 103.202 1810.1 103.228 1811.99 104.022C1814.39 105.032 1816.61 106.513 1819.05 107.423C1821.95 108.505 1824.41 109.037 1824.45 113.368C1824.48 116.507 1826.91 119.624 1828.39 123.032C1832.08 121.434 1835.48 119.687 1839.08 118.529C1840.58 118.047 1842.55 118.579 1844.19 119.074C1848.79 120.47 1853.18 120.978 1857.1 117.38C1859.4 115.263 1861.66 114.112 1865.24 114.73C1868.04 115.212 1871.39 113.977 1874.18 112.768C1879.78 110.339 1885.35 107.718 1890.53 104.523C1892.49 103.314 1893.34 100.3 1894.47 98.4706C1897.12 98.984 1899.98 98.8655 1901.95 100.125C1903.63 101.194 1904.3 103.853 1905.39 105.771C1906.8 104.189 1908.06 102.768 1908.52 102.253C1911.97 105.686 1914.26 108.872 1917.34 110.812C1921.42 113.377 1926.12 114.922 1930.51 117.007C1931.46 117.458 1932.67 118.184 1932.96 119.05C1936.16 128.678 1945.68 131.462 1952.63 136.878C1954.84 138.601 1959.26 137.408 1962.65 137.717C1967.18 138.13 1972.25 136.629 1975.94 140.442C1980.02 144.661 1984.36 147.385 1990.51 145.491C1991.1 145.309 1992.3 145.859 1992.67 146.427C1996.56 152.323 2003.44 152.393 2009.02 155.001C2018.15 159.273 2025.43 154.267 2033 150.499C2034.16 149.921 2035.37 149.114 2036.59 149.049C2042.13 148.756 2047.25 146.733 2053.32 148.595C2061.02 150.954 2068.3 146.333 2075.31 143.104C2077.35 142.165 2079.59 141.29 2081.16 139.785C2082.52 138.482 2083.26 136.399 2083.92 134.533C2084.64 132.467 2084.95 130.256 2085.44 128.109C2085.9 128.15 2086.36 128.191 2086.83 128.232C2087.38 129.156 2087.94 130.081 2088.62 131.215C2090.59 127.386 2089.18 118.921 2098.2 124.074C2098.8 122.823 2099.38 121.594 2099.85 120.604C2102 120.604 2103.84 120.604 2106.07 120.604C2107.38 123.194 2108.88 126.143 2109.8 127.962C2112.8 126.785 2115.09 125.83 2117.42 124.985C2119.38 124.275 2121.45 123.846 2123.36 123.029C2130.41 120.008 2138.02 117.765 2144.29 113.556C2151.56 108.679 2157.75 108.987 2165.01 112.788C2167.24 113.956 2170.65 113.308 2173.44 112.911C2183.2 111.519 2191.66 115.78 2200.44 118.756C2203.04 119.638 2205.81 120.089 2208.31 121.189C2210.55 122.178 2213.69 123.329 2214.42 125.196C2218.35 135.256 2225.35 140.398 2236.05 141.65C2241.91 142.336 2247.55 144.71 2253.36 146.025C2258.5 147.189 2263.55 148.149 2268.98 146.217C2272.45 144.982 2276.26 146.221 2279.46 150.339C2273.22 151.224 2267.7 152.009 2261.89 152.833C2265.48 162.684 2263.85 171.656 2261.75 180.707C2258.3 195.591 2250.81 207.927 2239.49 218.138C2234.24 222.871 2230 228.939 2224.25 232.831C2219.06 236.336 2212.56 239.111 2206.4 239.688C2195.49 240.711 2183.99 241.574 2173.74 236.814C2165.71 233.087 2158.53 227.498 2151.09 222.558C2148.13 220.595 2145.5 218.152 2142.02 215.374C2142.02 295.692 2142.02 375.377 2142.01 455.531C1985.31 456 1828.62 456 1671.46 455.558C1671.31 448.867 1671.79 442.62 1671.93 436.366C1672.11 429.166 1672.42 428.703 1680.04 428.233C1680.04 426.12 1679.63 423.888 1680.11 421.862C1684.12 404.704 1687.19 387.211 1692.84 370.597C1695.96 361.418 1698.69 352.356 1700.61 342.895C1702.64 332.901 1705.36 323.043 1707.86 313.148C1710.16 304.064 1712.57 295.009 1714.9 286.059C1721.62 286.879 1722.54 285.808 1723.05 280.122C1723.71 272.904 1724.61 265.669 1726.06 258.575C1727.98 249.146 1730.59 239.857 1732.72 230.468C1732.88 229.764 1731.6 228.733 1730.81 227.704C1730.37 227.377 1730.11 227.206 1729.63 227.022C1729.41 227.003 1729.01 226.855 1728.97 226.486C1728.04 223.293 1726.61 220.52 1726.34 217.636C1725.48 208.619 1725.1 199.557 1724.4 190.524C1724.32 189.565 1723.47 188.372 1722.64 187.876C1722.11 187.564 1720.55 188.073 1720.11 188.685C1718 191.639 1715.89 194.633 1714.22 197.843C1712.25 201.624 1710.74 205.642 1708.62 210.486C1706.97 208.497 1705.74 207.7 1705.69 206.836C1705.44 202.485 1702.59 201.44 1699.02 200.978C1697.38 200.765 1695.77 200.33 1694.07 199.679C1693.96 198.931 1693.92 198.5 1694.09 197.735C1695.56 192.892 1695.34 188.829 1689.59 185.972C1689.43 189.338 1689.28 192.704 1689.08 196.392C1688.98 197.142 1688.91 197.57 1688.6 198.125C1687.59 202.053 1688.43 203.388 1691.56 203.153C1691.72 203.197 1691.85 203.505 1691.71 203.864C1691.99 205.483 1692.42 206.743 1692.93 208.391C1693.04 209.83 1693.08 210.881 1692.93 212.196C1692.86 213.662 1692.99 214.863 1693.08 216.423C1693.07 217.498 1693.1 218.216 1692.83 219.066C1692.39 221.487 1692.26 223.776 1692.09 226.26C1692.06 226.455 1692.04 226.849 1691.95 227.254C1691.01 232.723 1689.96 237.764 1689.4 242.86C1689.14 245.207 1689.85 247.66 1690.09 250.261C1690.06 250.457 1690.05 250.854 1690.04 251.177C1690.03 251.715 1690.04 251.93 1690.06 252.344C1690.06 252.543 1690.13 252.936 1689.8 253.108C1687.01 259.058 1686.2 264.959 1688.08 271.389C1687.98 272.14 1687.91 272.569 1687.61 273.102C1687.28 274.826 1687.2 276.445 1687.08 278.459C1686.98 279.907 1686.92 280.96 1686.65 282.262C1686.34 284.029 1686.23 285.547 1686.08 287.388C1685.98 288.14 1685.91 288.569 1685.56 289.15C1683.92 291.187 1682.21 293.064 1685.08 295.383C1684.98 296.137 1684.91 296.567 1684.56 297.149C1682.5 301.335 1680.34 304.62 1675.07 301.68C1674.96 300.933 1674.92 300.502 1675.09 299.762C1675.08 296.086 1674.86 292.72 1674.64 289.354C1673.11 293.794 1672.25 298.05 1672.2 302.317C1672.14 307.229 1672.79 312.149 1673.09 317.376C1673.07 318.103 1673.1 318.52 1672.85 319.042C1672.67 320.1 1672.76 321.051 1672.92 322.332C1672.95 323.107 1672.9 323.552 1672.53 324.201C1671.8 328.443 1671.77 332.576 1670.81 336.481C1670.31 338.536 1668.46 340.6 1666.65 341.829C1665.94 342.313 1663.7 340.516 1662.14 339.785C1660.72 339.125 1659.3 338.502 1657.79 337.823C1658.16 336.815 1658.57 335.716 1658.98 334.618C1658.46 334.301 1657.95 333.983 1657.43 333.666C1656.18 335.534 1654.9 337.391 1653.67 339.274C1652.54 341.005 1651.44 342.763 1650.33 344.509C1649.02 342.479 1647.4 340.577 1646.5 338.381C1645.63 336.272 1645.56 333.848 1645.05 331.581C1644.11 327.384 1643.12 323.201 1642.07 318.803C1642 318.593 1641.96 318.15 1641.97 317.731C1641.37 315.207 1640.76 313.102 1640.07 310.68C1639.96 309.932 1639.92 309.5 1640.03 308.842C1639.75 307.721 1639.31 306.827 1638.91 305.624C1638.93 304.9 1638.9 304.485 1639.04 303.79C1638.52 301.339 1637.83 299.168 1637.07 296.68C1636.96 295.931 1636.92 295.499 1637.05 294.841C1636.87 293.742 1636.51 292.87 1636.07 291.681C1635.96 290.931 1635.92 290.499 1636.07 289.802C1635.8 288.377 1635.34 287.217 1634.91 286.048C1634.94 286.039 1634.94 286.107 1634.95 285.794C1634.96 285.273 1634.96 285.064 1634.95 284.657C1634.94 284.46 1634.88 284.068 1635.01 283.856C1634.71 283.075 1634.29 282.506 1633.91 281.627C1633.93 280.9 1633.9 280.484 1634.07 279.813C1633.89 278.37 1633.52 277.183 1633.07 275.679C1632.96 274.931 1632.92 274.499 1633.09 273.744C1634.38 269.869 1634.49 266.536 1631.07 263.68C1630.96 262.932 1630.92 262.5 1631.07 261.825C1631.46 260.605 1631.67 259.629 1631.88 258.654C1631.63 258.572 1631.37 258.49 1631.12 258.409C1630.72 259.315 1630.33 260.222 1629.65 261.184C1628.96 261.839 1628.55 262.438 1628.05 263.14C1627.81 263.468 1627.77 263.717 1627.93 264.199C1628 264.41 1628.05 264.854 1628.04 265.177C1628.04 265.715 1628.04 265.93 1628.03 266.364C1628 266.583 1627.85 266.997 1627.54 267.162C1626.51 269.438 1625.33 271.509 1625.13 273.668C1624.32 282.53 1623.78 291.417 1623.22 300.3C1623.04 303.237 1623.09 306.19 1623.15 309.438C1622.74 310.757 1622.16 312.67 1621.72 312.639C1619.51 312.485 1617.34 311.816 1614.67 311.218C1614.12 315.991 1613.53 320.989 1612.98 325.992C1611.65 338.1 1609.5 350.192 1609.25 362.323C1608.96 376.299 1610.09 390.331 1611.1 404.302C1612.04 417.329 1613.87 430.253 1617.89 442.788C1619.27 447.083 1619.98 451.59 1621 456C1619.29 456 1617.57 456 1615.43 456C1611.67 442.875 1607.83 429.85 1605.21 416.586C1603.75 409.21 1604.27 401.435 1603.96 393.838C1603.6 384.947 1602.76 376.032 1603.11 367.166C1603.73 351.576 1605.1 336.015 1606.72 319.894C1608.31 314.097 1609.33 308.848 1610.35 303.6C1609.87 303.264 1609.4 302.928 1608.92 302.592C1606.59 303.999 1604.26 305.407 1601.06 307.336C1601.55 304.733 1601.92 302.784 1602.44 300.013C1600.38 301.297 1599.08 302.109 1597.98 302.798C1596.17 301.117 1594.52 299.588 1592.87 298.059C1592.87 298.059 1592.94 298.055 1592.89 297.756C1591.94 296.304 1591.04 295.151 1590.15 293.998C1590.08 292.951 1590.02 291.905 1590.1 290.238C1589.87 288.744 1589.51 287.87 1589.15 286.996C1589.09 286.567 1589.02 286.138 1589.22 285.246C1592.44 280.008 1588.24 280.718 1585.85 280.042C1585.51 280.027 1585.26 279.877 1585.03 278.96C1584.82 276.581 1584.66 274.833 1584.51 273.086C1582.21 275.375 1580.9 277.65 1580.14 280.095C1579.92 280.817 1581.24 282.019 1581.85 283.002C1581.91 283.429 1581.98 283.855 1581.86 284.822C1578.27 294.226 1572.52 297.452 1567.94 293.477C1566.25 295.286 1564.46 296.991 1562.95 298.921C1562.28 299.782 1562.21 301.1 1561.84 302.203C1561.45 303.374 1561.03 304.535 1560.62 305.7C1559.52 304.964 1558.34 304.325 1557.36 303.457C1556.73 302.891 1556.39 301.993 1555.95 301.294C1554.03 304.222 1552.29 306.877 1550.14 310.179C1547.33 305.936 1544.94 302.313 1542.83 299.112C1539.78 311.764 1538.51 313.443 1533.53 311.392C1532.38 306.174 1531.26 301.103 1530.15 296.058C1520.67 297.528 1527.12 304.698 1525.86 309.45C1519.59 305.246 1513.91 302.344 1506.7 303.627C1503.31 304.23 1499.99 303.193 1499.65 298.156C1499.17 290.911 1497.79 283.73 1496.97 276.501C1496.4 271.407 1496.12 266.279 1495.71 261.166C1494.99 270.52 1495.09 279.832 1494.94 289.139C1494.88 292.273 1494.62 295.552 1493.58 298.454C1493.1 299.794 1489.59 301.558 1489.06 301.132C1484.62 297.562 1479.85 298.806 1475.23 299.805C1471.11 300.696 1469.03 299.044 1468.43 295.371C1467.72 290.954 1467.46 286.461 1467.04 281.976C1467.09 281.951 1467 281.997 1466.67 282.09C1462.85 285.069 1459.52 288.169 1455.83 290.76C1453.81 292.184 1451.05 293.661 1448.87 293.347C1447.65 293.171 1446.25 289.426 1446.14 287.226C1445.54 275.95 1445.35 264.653 1444.98 253.364C1444.94 252.063 1444.69 250.769 1444.53 249.471C1443.39 250.366 1443.08 251.144 1443.07 251.928C1442.88 262.234 1442.57 272.542 1442.67 282.846C1442.71 287.26 1443.61 291.665 1444.11 296.074ZM1765 200C1765 200 1764.99 199.995 1764.99 199.18C1764.99 196.971 1764.99 194.763 1764.99 192.555C1764.42 192.344 1763.86 192.133 1763.29 191.922C1762.17 193.989 1761.05 196.055 1759.28 198.352C1754.57 205.58 1749.85 212.807 1744.71 220.425C1742.86 222.147 1742.06 224.036 1744.45 225.825C1745.88 226.89 1748.47 228.647 1749.05 228.194C1751.05 226.629 1752.4 224.229 1754.61 222.001C1755.02 221.987 1755.44 221.972 1756.46 221.943C1757.22 221.548 1757.98 221.154 1758.73 220.759C1758.2 220.505 1757.68 220.251 1757.01 219.338C1757.05 218.894 1757.1 218.449 1757.74 218.126C1758.89 217.433 1760.77 216.956 1761.05 216.011C1762.58 210.739 1763.73 205.353 1765 200ZM1667.03 266.768C1666.97 267.178 1666.91 267.588 1666.21 268.407C1665.87 268.963 1665.25 269.517 1665.24 270.077C1665.11 283.808 1665.03 297.54 1664.99 311.272C1664.99 311.415 1665.52 311.558 1666.04 311.824C1666.32 311.245 1666.77 310.704 1666.83 310.125C1667.52 302.851 1668.24 295.576 1668.73 288.286C1668.8 287.23 1667.71 286.095 1667.01 284.337C1667.05 283.892 1667.1 283.448 1667.75 282.666C1668.13 279.756 1668.5 276.846 1668.96 273.15C1669.02 272.101 1669.08 271.052 1669.76 269.656C1671.49 266.132 1674.02 262.615 1669.4 258.917C1669.12 258.738 1668.97 258.481 1668.97 257.5C1668.97 257.285 1668.96 257.07 1668.94 256.459C1668.94 256.459 1668.88 256.068 1669.31 255.422C1668.92 252.948 1668.53 250.473 1668.01 247.338C1668.05 246.892 1668.1 246.447 1668.69 245.684C1668.31 239.303 1667.92 232.922 1667.54 226.541C1666.73 226.568 1665.92 226.594 1665.11 226.621C1665.11 229.439 1665.11 232.257 1665.04 235.724C1664.98 236.153 1664.91 236.582 1664.55 237.371C1664.38 237.628 1664.21 237.889 1664.03 238.504C1664.03 238.504 1664.05 238.855 1664.03 239.499C1664.03 239.714 1664.04 239.929 1664.03 240.919C1663.97 241.949 1663.91 242.98 1663.42 244.347C1663.32 245.253 1663.22 246.159 1663.05 247.687C1663.07 248.104 1663.1 248.52 1662.66 249.098C1662.73 249.733 1662.79 250.368 1662.99 251.662C1662.95 252.106 1662.9 252.551 1662.4 253.185C1662.35 254.654 1661.76 256.422 1662.37 257.527C1663.49 259.558 1665.32 261.199 1667 263.609C1667.02 264.024 1667.03 264.439 1667.03 265.499C1667.03 265.714 1667.04 265.929 1667.03 266.768ZM1623.77 222.029C1627.85 222.168 1628.12 224.43 1627.29 227.77C1626.26 231.865 1625.64 236.06 1624.85 240.212C1625.34 240.411 1625.82 240.61 1626.31 240.809C1628.5 237.353 1630.78 235.199 1633.53 239.949C1634.04 239.592 1634.55 239.234 1635.73 238.704C1638.77 234.457 1641.82 230.21 1645.34 225.52C1647.38 223.579 1648.05 221.713 1646.04 219.103C1644.02 216.479 1642.1 216.8 1639.71 218.232C1635.61 220.684 1632.53 218.566 1629.67 215.808C1628.45 214.621 1627.36 213.29 1626.21 212.025C1625.71 212.098 1625.22 212.172 1624.72 212.246C1624.15 215.497 1623.57 218.748 1622.91 222.049C1622.91 222.049 1623 222.002 1623.77 222.029ZM1654 250.268C1654.05 249.513 1654.1 248.758 1654.75 247.64C1655.13 244.739 1655.5 241.837 1655.94 238.542C1655.94 238.542 1655.95 238.145 1655.97 237.5C1655.97 237.285 1655.96 237.071 1655.97 236.232C1656.03 235.822 1656.09 235.412 1656.77 234.622C1657.22 233.103 1657.75 231.603 1658.1 230.061C1659.34 224.544 1660.53 219.012 1662.04 212.075C1660.05 214.89 1658.54 217.015 1656.77 219.765C1650.13 229.186 1643.48 238.607 1636.5 248.674C1636.95 250.784 1637.4 252.893 1638 255.636C1638.04 256.068 1638.08 256.5 1637.71 257.426C1637.98 261.347 1638.26 265.269 1638.54 269.253C1641.68 268.638 1643.42 268.298 1645.59 268.082C1645.88 268.26 1646.03 268.516 1646.02 269.782C1646.49 276.302 1646.96 282.821 1647.43 289.341C1647.63 289.237 1647.83 289.133 1648.03 289.029C1649.31 282.997 1650.59 276.966 1651.96 270.288C1652.02 269.86 1652.08 269.432 1652.7 268.72C1652.76 267.458 1652.82 266.197 1652.94 264.542C1652.94 264.542 1652.95 264.145 1652.97 263.5C1652.97 263.285 1652.96 263.07 1653 262.409C1653 262.409 1653.15 261.986 1653.49 261.325C1653.65 259.834 1653.8 258.343 1653.97 256.498C1653.97 256.498 1653.95 256.144 1653.97 255.5C1653.97 255.285 1653.96 255.07 1654 254.409C1654 254.409 1654.15 253.986 1654.44 253.527C1654.34 252.69 1654.24 251.852 1654 250.268ZM1650 299.311C1649.9 297.314 1649.81 295.317 1649.72 293.32C1649.3 293.354 1648.89 293.387 1648.48 293.421C1648.48 296.808 1648.48 300.196 1648.48 303.583C1648.8 303.612 1649.12 303.641 1649.45 303.67C1649.63 302.487 1649.81 301.304 1650 299.311ZM1649.7 309.345C1649.59 309.465 1649.49 309.586 1649.39 309.707C1649.52 309.648 1649.64 309.589 1649.7 309.345ZM1377.53 265.501C1377.53 265.501 1377.49 265.516 1377.53 265.501ZM1757.47 223.501C1757.47 223.501 1757.51 223.486 1757.47 223.501ZM1578.53 279.501C1578.53 279.501 1578.49 279.516 1578.53 279.501V279.501Z" fill="#EF4339"/>
<path id="Vector_2" d="M1462.55 195.105C1462.81 195.247 1462.67 195.376 1462.51 195.389C1457.51 195.791 1452.18 195.571 1451.11 203.098C1450.74 202.828 1450.36 202.559 1449.99 202.289C1448.74 199.577 1447.5 196.866 1446.25 194.162C1442.2 195.936 1446.5 205.17 1438.21 202.388C1434.18 208.867 1429.01 209.817 1425.44 205.007C1424.21 207.835 1422.94 210.793 1421.23 214.735C1420.11 212.414 1419.55 211.248 1418.99 210.081C1417.7 221.445 1407.51 217.683 1401.05 221.262C1400.45 218.482 1399.92 216.015 1399.38 213.549C1399.05 213.507 1398.71 213.466 1398.38 213.424C1398.2 215.029 1398.02 216.633 1397.86 218.24C1397.39 222.996 1395.24 226.06 1390.32 227.518C1385.91 228.824 1381.74 231.016 1377.55 232.996C1372.04 235.604 1369.88 240.261 1369.57 246.579C1367.49 246.996 1365.83 246.995 1364.17 246.995C1364.11 246.258 1364.05 245.522 1364.16 244.061C1364.89 231.369 1365.44 219.401 1365.99 207.433C1365.43 207.412 1364.87 207.39 1364.31 207.369C1363.54 216.204 1362.96 225.062 1361.93 233.867C1361.28 239.501 1362.7 245.335 1355.81 249.667C1351.87 252.149 1350.27 253.101 1347.17 249.994C1347.11 249.258 1347.05 248.521 1347.16 247.077C1347.5 243.677 1347.68 240.984 1347.86 238.291C1347.41 238.258 1346.97 238.225 1346.52 238.192C1345.66 240.768 1345.51 244.449 1343.72 245.605C1341.98 246.733 1338.57 245.282 1335.89 244.963C1335.6 243.245 1335.3 241.527 1335.09 239.24C1334.83 238.112 1334.5 237.553 1334.17 236.995C1334.12 236.577 1334.06 236.16 1333.99 234.968C1333.98 231.23 1333.98 228.268 1333.98 225.305C1333.51 225.308 1333.04 225.31 1332.57 225.313C1331.64 230.274 1330.72 235.234 1329.8 240.194C1329.27 240.25 1328.75 240.306 1328.22 240.362C1326.86 238.1 1325.5 235.838 1324.09 233.388C1324.08 232.549 1324.12 231.9 1324.48 230.97C1325.45 229.007 1326.48 227.372 1326.71 225.634C1327.6 218.725 1328.27 211.787 1328.98 204.855C1329.31 201.701 1329.53 198.537 1329.8 195.377C1329.33 195.32 1328.85 195.262 1328.38 195.204C1326.27 206.172 1324.15 217.14 1322.01 228.334C1321.97 228.561 1321.83 228.995 1321.53 229.179C1321.19 231.59 1321.15 233.816 1321.11 236.043C1320.73 237.449 1320.36 238.855 1319.53 240.719C1314.61 243.161 1310.86 241.269 1307.17 238.994C1307.11 238.561 1307.05 238.129 1307.1 237.099C1307.2 229.43 1307.2 222.357 1307.2 215.284C1306.68 215.255 1306.16 215.225 1305.65 215.195C1305.13 221.479 1304.62 227.762 1304.1 234.046C1304.06 234.786 1304.01 235.526 1303.58 236.733C1302.64 237.553 1302.12 237.975 1301.53 238.242C1299.96 238.955 1298.36 239.6 1296.77 240.272C1296.18 238.688 1295.45 237.139 1295.05 235.51C1294.69 234.104 1294.71 232.607 1294.56 231.151C1294.11 230.91 1293.66 230.669 1293.21 230.429C1294.03 236.513 1290.19 235.887 1286.91 236.056C1286.91 236.056 1286.97 236.026 1286.97 235.619C1286.97 228.274 1286.97 221.335 1286.97 214.396C1286.42 214.387 1285.88 214.378 1285.33 214.369C1285.02 219.561 1284.57 224.749 1284.46 229.946C1284.39 233.23 1283.88 235.85 1280.16 236.782C1278.93 237.089 1277.87 238.01 1276.7 238.586C1275.6 239.123 1274.47 239.574 1273.35 240.063C1272.91 238.872 1272.24 237.712 1272.07 236.482C1271.58 233.056 1271.3 229.6 1270.84 225.219C1269.65 226.53 1269.39 226.73 1269.25 226.991C1268.36 228.547 1267.51 230.118 1266.64 231.684C1265.36 230.219 1263.5 228.958 1262.89 227.252C1260.96 221.8 1259.65 216.13 1257.8 210.643C1255.68 204.32 1254.67 204.046 1249.19 207.466C1241.72 203.079 1233.91 206.98 1232.85 215.345C1232.63 217.05 1230.59 218.47 1229.62 220.155C1229.17 220.954 1229.26 222.069 1229.1 223.041C1230.45 230.485 1231.78 237.93 1233.15 245.37C1233.38 246.629 1233.71 247.869 1233.84 249.706C1233.56 250.415 1233.43 250.535 1233.3 250.656C1230.99 249.663 1227.97 244.558 1227.23 252.023C1226.97 254.726 1225.01 257.231 1224.04 259.903C1222.28 264.703 1219.03 266.505 1213.89 266.522C1210.33 266.534 1207.09 267.398 1203.9 264.653C1201.94 262.964 1194.98 265.766 1194.33 268.538C1193.37 272.659 1190.83 273.39 1187.38 272.968C1183.85 272.535 1180.35 271.674 1176.81 271.447C1174.06 271.271 1171.26 272.04 1168.5 271.936C1163.45 271.746 1163.39 270.931 1164.67 266.23C1165.44 263.422 1164.39 260.162 1164.44 257.11C1164.51 253.174 1164.87 249.244 1165.08 245.544C1160.3 245.544 1155.95 245.544 1150.26 245.544C1149.45 247.142 1147.88 250.132 1146.41 253.174C1145.51 255.041 1144.99 258.475 1143.93 258.626C1140.41 259.129 1136.72 258.469 1133.09 258.247C1131.58 258.155 1130.08 258.018 1128.57 257.942C1125.4 257.783 1122.19 257.844 1119.07 257.365C1118.33 257.252 1117.28 255.311 1117.37 254.294C1117.87 248.405 1118.66 242.54 1119.45 235.88C1116.98 236.214 1115.18 236.459 1112.1 236.877C1111.9 232.637 1111.7 228.497 1111.53 224.947C1108.07 223.774 1104.7 222.629 1102.07 221.737C1098.02 222.106 1094.09 223.26 1090.63 222.437C1088.96 222.04 1088.18 217.917 1086.98 215.463C1082.94 216.229 1078.36 217.062 1073.8 217.969C1070.03 218.719 1068.87 214.705 1069.39 213.591C1071.88 208.329 1068.53 205.521 1065.74 202.282C1065.24 201.704 1064.91 200.983 1064.12 199.704C1059.94 205.392 1055.78 210.722 1051.98 216.294C1044.6 227.097 1036.1 235.715 1021.58 235.111C1018.26 234.973 1014.91 236.565 1011.53 236.947C1003.1 237.898 1002.42 237.402 999.003 229.42C998.824 229.003 998.658 228.579 998.492 228.175C989.321 230.71 985.252 228.835 981.371 220.495C977.681 221.325 974.039 222.575 970.346 222.752C968.98 222.817 966.803 220.606 966.225 218.993C965.375 216.622 965.629 213.856 964.495 211.066C963.791 215.116 963.023 219.156 962.407 223.219C962.027 225.722 962.467 228.544 961.434 230.69C960.673 232.27 958.168 233.072 956.357 234.07C952.792 236.035 949.281 237.62 944.861 236.257C943.644 235.882 940.441 237.896 940.169 239.226C939.188 244.038 935.272 244.903 931.859 245.785C928.724 246.596 925.132 245.527 921.912 246.157C918.055 246.91 914.306 248.411 910.651 249.927C908.284 250.91 906.347 252.088 903.641 250.416C902.621 249.786 900.539 250.958 898.924 251.181C896.753 251.482 894.566 251.68 892.381 251.859C892.131 251.879 891.849 251.49 891.581 251.291C888.663 255.778 886.478 251.09 883.929 250.748C882.511 250.558 881.012 250.984 879.263 251.162C877.733 243.169 876.139 234.841 874.544 226.512C874.334 226.495 874.124 226.478 873.914 226.461C873.914 227.264 873.954 228.07 873.907 228.871C873.54 235.1 864.464 240.814 858.66 239.216C856.018 238.489 851.97 240.433 849.437 242.334C845.83 245.04 843.264 243.865 840.522 241.862C840.522 246.524 840.285 251.305 840.59 256.051C840.884 260.628 838.16 263.446 834.927 265.275C832.808 266.473 829.65 265.833 826.899 265.062C824.652 265.529 822.404 265.994 820.157 266.465C819.765 266.547 819.352 266.597 818.994 266.76C818.238 267.103 817.512 267.512 816.774 267.893C816.376 266.933 815.49 265.869 815.668 265.03C816.288 262.095 815.399 261.199 812.564 262.092C812.037 262.257 811.2 262.536 810.944 262.296C808.477 259.987 807.25 255.575 802.309 257.473C802.112 257.548 801.07 255.424 800.165 253.888C802.142 252.12 807.112 251.712 807.01 246.173C805.846 247.267 804.953 248.106 804.06 248.945C803.88 247.764 803.7 246.584 803.67 246.382C800.558 246.605 797.406 246.832 793.919 247.082C797.159 243.41 799.938 240.259 802.412 237.455C801.559 235.534 800.759 233.73 799.534 230.968C799.125 233.226 798.927 234.321 798.739 235.361C790.932 234.294 791.684 239.701 791.657 244.345C789.997 244.45 788.23 244.561 786.048 244.699C786.074 244.781 785.83 244.019 785.53 243.08C781.857 246.394 778.22 249.309 774.314 243.804C774.139 244.203 774.211 244.296 774.211 244.296C774.105 242.267 776.031 239.158 771.349 239.59C770.669 239.652 769.577 236.853 768.934 235.273C768.154 233.355 767.647 231.326 766.869 228.862C764.175 229.307 761.71 229.715 757.967 230.334C756.872 227.237 755.51 223.39 753.819 218.611C748.89 219.23 743.163 219.948 736.566 220.776C736.203 220.054 735.303 218.268 734.893 217.454C730.255 217.095 725.997 216.536 721.742 216.552C720.104 216.558 718.533 218.232 716.825 218.52C712.368 219.273 707.847 219.693 706.825 213.255C704.926 213.851 702.207 213.962 701.841 214.947C700.2 219.358 699.142 223.998 698.07 228.601C697.726 230.078 697.987 231.695 697.605 233.715C696.235 236.225 695.231 238.268 693.807 241.168C691.823 238.803 690.208 236.877 688.477 234.813C684.859 235.588 680.418 236.771 679.502 231.366C678.124 223.235 677.159 214.993 676.725 206.761C676.53 203.047 675.215 201.465 671.561 200.426C671.561 205.289 671.612 209.721 671.549 214.15C671.45 221.112 671.419 228.078 671.093 235.03C670.742 242.502 675.356 251.533 664.806 256.055C664.207 256.312 664.36 258.003 663.786 258.729C663.179 259.496 662.086 260.41 661.268 260.353C660.087 260.272 658.261 259.636 657.939 258.777C656.805 255.752 655.943 252.57 655.437 249.375C654.174 241.411 653.163 233.408 652.195 226.455C648.965 225.35 646.423 224.87 644.287 223.668C639.808 221.148 639.656 217.007 640.35 212.377C641.714 203.293 642.628 194.153 639.929 184.973C637.65 189.289 635.671 193.637 634.29 198.168C632.956 202.543 632.701 207.278 631.115 211.536C629.704 215.326 627.657 219.154 622.527 219.482C621.202 219.567 619.452 220.47 618.747 221.55C615.125 227.102 610.977 231.54 603.624 231.288C602.798 231.259 601.332 232.078 601.193 232.725C600.244 237.149 599.459 241.618 598.858 246.104C598.588 248.122 599.22 250.283 598.829 252.257C597.267 260.163 593.687 267.735 595.04 276.107C595.04 276.107 595.027 276.533 594.876 277.023C594.449 282.62 594.537 287.783 593.763 292.813C593.293 295.869 595.607 300.585 590.536 301.662C585.795 302.668 581.509 303.487 582.507 310.666C579.53 306.383 576.582 304.199 571.992 306.247C571.441 306.493 569.652 305.46 569.44 304.728C568.227 300.552 567.334 296.283 566.292 292.056C566.081 291.2 565.866 290.263 565.363 289.574C562.106 285.113 556.31 282.077 557.718 275.323C555.62 274.492 553.826 273.782 552.033 273.071C549.27 274.93 546.302 275.84 543.269 276.401C538.664 277.252 534.342 272.547 535.165 267.874C535.418 266.437 535.514 264.911 535.333 263.469C534.101 253.631 535.839 244.06 538.742 234.822C541.276 226.759 538.511 217.632 530.516 214.974C522.976 212.468 514.92 211.538 507.137 209.717C505.334 209.296 503.534 208.307 502.066 207.156C500.449 205.888 499.215 204.131 497.813 202.59C502.529 194.417 503.269 194.198 511.43 197.399C512.912 197.98 514.723 197.723 516.382 197.852C516.087 196.149 516.091 194.321 515.444 192.763C512.585 185.87 509.431 179.098 506.601 172.194C504.984 168.249 504.043 164.018 502.324 160.125C500.489 155.967 498.204 151.991 495.89 148.069C495.051 146.646 493.559 145.608 492.779 144.814C492.779 149.24 492.759 153.211 492.806 157.181C492.812 157.636 493.283 158.066 493.39 158.54C495.193 166.548 497.392 174.497 498.618 182.594C499.511 188.488 493.474 192.107 488.313 189.165C486.921 188.372 486.084 186.664 484.803 185.604C482.795 183.942 479.888 182.904 478.681 180.833C476.296 176.74 474.782 172.135 472.973 167.715C472.153 165.711 471.49 163.643 470.736 161.549C467.834 164.815 465.874 168.945 463.129 169.558C460.5 170.145 457.055 167.08 454.266 165.761C454.791 169.797 454.726 173.86 455.906 177.522C459.566 188.886 463.687 200.102 467.66 211.365C468.435 213.563 466.394 222.331 465.001 222.063C462.866 221.653 461.061 219.547 459.106 218.174C458.158 217.509 457.04 217.015 456.26 216.195C455.064 214.936 453.748 213.607 453.094 212.051C451.37 207.955 450.229 203.603 448.366 199.581C447.015 196.666 444.881 194.115 443.096 191.402C442.576 191.573 442.055 191.744 441.535 191.915C443.838 200.41 448.305 209.518 435.561 213.502C432.192 209.581 428.473 205.251 424.754 200.921C424.754 200.921 424.308 200.769 424.51 200.45C425.007 199.498 425.696 198.732 425.534 198.254C424.065 193.905 422.641 189.522 420.824 185.313C418.363 179.61 415.566 174.052 412.912 168.432C412.37 168.47 411.827 168.508 411.285 168.546C411.285 170.847 411.005 173.192 411.349 175.44C411.896 179.015 412.877 182.522 413.643 186.064C414.408 189.596 415.043 193.159 415.898 196.669C417.285 202.361 420.05 208.045 419.936 213.687C419.809 219.979 421.876 225.222 423.659 230.838C424.597 233.792 424.903 237.077 424.803 240.19C424.715 242.924 423.603 244.352 419.857 243.542C416.292 242.771 411.667 242.973 408.574 244.68C398.703 250.126 391.296 247.719 388.205 237.039C387.421 234.333 387.146 231.48 386.372 228.77C385.885 227.067 385.341 224.925 384.075 223.97C374.489 216.739 373.265 205.103 369.472 195.157C364.623 182.438 361.999 168.871 358.35 155.688C358.223 155.231 357.382 154.971 355.303 153.533C355.303 157.235 354.937 159.746 355.379 162.106C356.333 167.207 357.839 172.202 358.871 177.29C360.615 185.88 362.302 194.487 363.706 203.137C364.075 205.41 364.192 208.84 362.88 210.016C360.736 211.938 358.128 215.108 354.142 212.664C353.187 212.079 351.565 212.344 350.301 212.545C344.255 213.504 338.239 214.661 332.182 215.533C330.995 215.704 329.636 215.023 328.419 214.567C325.623 213.52 322.945 212.05 320.074 211.33C315.127 210.09 312.382 207.111 311.263 202.237C310.633 199.496 310.314 196.207 308.589 194.325C306.773 192.345 303.448 191.748 300.782 190.547C299.968 192.763 298.909 194.928 298.432 197.215C298.144 198.592 298.918 200.155 298.941 201.639C299.02 206.676 296.858 208.507 291.747 208.648C289.333 208.714 286.964 209.807 284.537 210.208C279.754 210.997 273.855 213.711 270.812 208.48C267.099 202.098 257.065 201.487 256.843 192.336C256.83 191.806 255.523 191.39 254.99 190.772C253.704 189.279 252.587 187.638 251.276 186.169C249.785 184.498 248.157 182.948 245.947 180.692C245.399 186.911 242.06 190.345 239.102 188.556C235.725 186.513 233.313 187.689 230.999 189.645C227.961 192.212 225.413 192.866 222.448 189.509C220.827 187.675 217.924 187.09 217.441 190.072C216.869 193.601 217.817 197.377 218.107 201.046C217.734 202.77 217.05 204.491 217.037 206.218C216.945 218.544 216.99 230.871 216.991 243.198C216.991 244.763 216.991 246.329 216.991 247.895C215.3 243.763 205.345 238.693 201.404 240.42C199.392 236.486 197.379 232.551 194.867 227.64C195.288 232.885 195.417 236.963 196.271 241.176C197.15 245.517 195.843 250.292 195.562 254.882C195.438 256.896 195.402 258.925 195.475 260.941C195.571 263.571 196.684 266.55 195.789 268.737C194.487 271.922 196.386 276.676 191.486 278.416C191.011 278.584 191.422 281.247 191.422 282.954C190.237 283.25 188.052 277.928 187.755 283.902C186.817 282.361 186.159 281.28 185.321 279.902C184.257 280.569 183.213 281.223 182.253 281.824C173.171 277.16 174.996 268.41 173.528 260.541C172.884 257.091 174.456 252.461 170.58 249.647C170.321 249.459 170.913 247.898 171.296 247.061C173.637 241.944 168.527 238.166 168.817 233.296C168.908 231.767 166.773 230.104 165.582 228.395C165.05 229.465 164.662 230.244 164.433 230.704C156.496 225.533 157.476 216.801 155.806 209.162C153.312 221.405 141.582 223.628 135.3 231.271C134.887 230.989 134.474 230.708 134.061 230.426C134.343 231.4 134.625 232.373 134.778 232.902C132.558 233.644 129.911 235.449 128.714 234.754C125.131 232.676 124.627 237.554 122.071 237.033C121.738 238.697 121 240.4 121.157 242.017C121.478 245.34 122.831 248.634 122.726 251.907C122.62 255.21 121.666 258.646 120.341 261.703C119.073 264.63 116.469 266.823 119.383 270.478C120.045 271.308 117.671 274.558 117.012 276.001C117.562 280.307 118.403 284.48 118.502 288.67C118.552 290.755 116.17 293.239 116.742 294.907C118.808 300.93 116.425 306.522 115.678 312.188C115.335 314.789 112.833 317.121 111.249 319.536C110.556 320.593 109.711 321.55 109.006 322.461C104.634 322.043 105.301 326.037 104.581 328.934C105.321 328.391 106.061 327.847 107.172 327.032C107.758 328.017 108.42 329.128 109.127 330.316C107.202 330.58 105.6 330.8 103.542 331.083C105.144 333.263 106.197 334.696 108.002 337.154C105.477 336.63 104.272 336.221 103.055 336.18C102.186 336.15 101.228 336.476 100.443 336.894C99.6517 337.316 99.0255 338.047 98.327 338.643C98.1073 337.865 97.8876 337.087 97.4874 335.67C96.6666 337.177 96.0997 338.218 95.3691 339.559C94.9919 338.396 94.6286 337.277 93.7726 334.639C93.0779 337.244 92.7231 338.574 92.2458 340.365C90.8254 338.197 89.619 336.278 88.3288 334.417C87.5923 333.355 86.4582 332.502 85.9536 331.357C83.9433 326.794 80.5713 322.134 80.6287 317.546C80.6904 312.615 79.1261 308.507 77.9709 304.122C76.6064 298.942 74.8743 293.86 73.3469 288.722C73.1164 287.946 73.2398 287.066 73.0104 286.29C72.6168 284.959 72.074 283.672 71.5938 282.366C69.9412 283.057 68.2886 283.747 67.0262 284.275C64.4974 284.029 61.8929 283.775 59.2884 283.522C58.9107 284.196 58.5329 284.871 58.1552 285.545C55.4063 281.352 52.5984 277.195 49.9693 272.928C49.5547 272.255 49.8768 271.075 49.9822 270.144C50.378 266.647 50.9903 263.167 51.2167 259.661C51.6212 253.399 49.7198 245.794 52.6411 241.208C55.8401 236.187 51.8796 230.158 56.793 226.402C57.1013 226.166 57.0925 224.816 56.7741 224.565C52.3738 221.105 49.2057 216.103 42.4748 215.806C36.6452 215.548 30.8905 213.673 25.0935 212.561C22.7163 212.105 20.1831 212.133 17.9522 211.312C13.2752 209.59 10.0981 204.007 9.95029 198.641C9.8922 196.532 9.17138 194.442 7.61397 192.337C7.12015 193.249 6.62632 194.162 6.23737 194.881C4.51666 191.877 2.92927 189.105 1.17094 186.667C1 166.313 1 145.625 1 124.469C1.1666 123.997 1.38144 124.062 1.49294 123.982C10.087 117.836 16.7108 122.367 23.4033 127.749C25.3255 129.295 28.1117 129.722 30.3966 130.871C34.1782 132.774 37.8799 134.835 41.6056 136.848C49.4545 141.088 56.8678 137.527 64.1726 135.244C68.7782 133.804 73.0217 131.198 77.4109 129.081C78.2844 128.659 79.0726 127.658 79.9163 127.639C90.822 127.392 97.461 118.384 106.688 114.693C112.993 112.171 119.136 111.679 124.925 115.515C129.21 118.355 133.197 116.421 137.069 115.226C140.665 114.116 143.946 111.977 147.354 110.268C155.32 106.27 163.348 102.386 171.205 98.1856C174.054 96.6626 176.663 94.5595 179.079 92.3854C183.799 88.1384 189.588 88.2548 195.29 88.0413C199.801 87.8725 204.589 88.9708 208.784 87.8082C217.553 85.3779 227.264 87.61 235.362 82.2474C240.127 79.0915 245.467 78.3286 250.966 79.0585C256.42 79.7824 260.599 78.1374 263.856 73.6943C266.185 70.5178 268.906 70.1116 273.181 70.6416C281.275 71.6452 289.749 71.9123 297 66.1952C298.382 65.1049 301.371 65.3557 303.38 65.8894C308.84 67.3405 314.082 69.6685 319.578 70.9146C325.919 72.3524 332.444 73.8426 338.878 73.7918C347.438 73.7243 352.881 79.3662 359.404 83.0393C363.497 85.3439 367.327 88.1791 371.039 91.0783C373.952 93.354 376.871 95.8076 379.12 98.7008C381.673 101.984 385.222 103.232 388.275 101.805C396.513 97.9534 403.025 101.988 409.24 105.855C420.783 113.039 433.691 116.196 446.422 120.063C449.772 121.08 453.097 122.656 455.976 124.639C459.693 127.199 463.028 128.502 467.694 126.839C474.37 124.46 481.32 122.82 488.209 121.083C492.661 119.96 495.959 122.676 499.458 124.881C502.837 127.011 506.521 128.652 510.05 130.547C513.924 132.628 517.686 134.939 521.653 136.821C530.718 141.122 539.07 136.954 547.371 134.064C551.167 132.743 554.575 130.307 558.164 128.388C558.74 128.08 559.348 127.588 559.938 127.591C569.721 127.643 575.85 120.186 583.585 116.073C591.258 111.993 598.514 111.864 606.466 115.819C609.25 117.204 613.688 116.134 617.087 115.176C620.694 114.159 623.994 112.001 627.375 110.241C636.428 105.528 645.479 100.813 654.464 95.9733C656.315 94.9761 658.015 93.5814 659.537 92.1132C664.06 87.7494 669.837 88.3867 675.323 88.0563C679.491 87.8053 683.686 88.0023 687.87 88.0001C688.536 87.9997 689.292 88.2093 689.855 87.9688C697.371 84.7629 703.29 89.1476 709.651 91.8774C714.996 94.1712 720.669 95.7104 725.983 98.0644C728.249 99.068 731.228 101.007 731.692 103.024C732.796 107.831 736.011 108.968 739.902 110.096C745.028 111.582 750.026 113.507 755.151 114.995C756.699 115.445 758.498 114.942 760.161 115.1C764.736 115.534 768.332 118.507 769.707 122.166C771.942 128.119 776.491 130.899 781.348 133.77C782.185 134.264 783.44 134.621 783.745 135.356C786.677 142.425 793.217 140.842 798.678 141.594C801.646 142.003 804.82 141.193 807.714 141.81C815.678 143.51 820.376 138.15 825.43 133.902C829.809 130.221 833.664 125.904 837.619 121.744C838.534 120.781 839.155 119.374 839.503 118.063C841.451 110.721 844.832 109.236 851.7 112.217C853.993 113.212 856.847 112.854 859.413 113.296C865.28 114.309 871.22 115.088 876.956 116.617C881.909 117.936 886.498 120.801 891.483 121.765C895.031 122.451 898.963 120.87 902.739 120.75C906.398 120.634 910.452 120.2 913.638 121.547C916.854 122.907 919.312 123.264 922.526 122.075C928.568 119.839 934.943 118.441 940.851 115.923C947.074 113.27 952.986 109.845 958.889 106.503C961.988 104.748 964.442 104.929 967.483 106.826C970.594 108.766 974.443 109.501 977.627 111.352C986.174 116.321 994.42 121.751 1000.22 128.985C1003.62 129.437 1006.56 129.787 1009.49 130.227C1013.1 130.769 1016.86 132.303 1020.24 131.692C1023.11 131.175 1025.55 128.221 1028.17 126.338C1031.93 123.632 1035.67 120.876 1039.47 118.222C1043.42 115.47 1047.32 112.64 1051.46 110.198C1053.28 109.123 1055.67 109.072 1057.7 108.296C1060.82 107.104 1064.14 106.098 1066.86 104.264C1070.4 101.89 1073.43 98.7792 1076.49 96.1479C1076.15 95.9243 1075.05 95.2104 1073.8 94.3995C1084.47 87.6375 1098.31 88.9334 1099.62 96.6639C1098.16 96.4961 1096.71 96.3297 1095.26 96.1632C1095.18 96.6302 1095.1 97.0973 1095.02 97.5643C1096.24 97.7198 1097.61 97.5805 1098.63 98.1061C1099.9 98.7539 1101.67 99.8225 1101.86 100.94C1102.83 106.708 1107.21 110.868 1113.36 111.138C1115.69 114.691 1117.95 118.439 1120.55 121.932C1121.8 123.607 1122.97 125.057 1126.15 124.272C1131.25 123.013 1132.93 127.861 1134.98 131.388C1137.88 136.381 1139.82 142.394 1146.74 143.267C1148.9 143.54 1151.17 143.052 1153.39 142.869C1158.81 142.424 1162.94 140.664 1164.98 134.783C1166.35 130.815 1170.43 129.574 1174.57 129.937C1175.81 121.689 1179.55 117.88 1188.73 116.06C1188.73 113.251 1188.73 110.356 1188.73 107.461C1188.99 107.45 1189.25 107.44 1189.52 107.429C1190.12 109.533 1190.72 111.637 1191.69 115.012C1193.87 112.233 1195.47 110.183 1197.48 107.622C1197.7 109.264 1197.63 110.546 1198.09 111.602C1198.49 112.52 1199.8 113.981 1200.15 113.837C1205.77 111.537 1209.19 115.057 1213.78 117.435C1219.63 120.461 1226.92 121.019 1233.68 121.825C1237 122.221 1239.52 123.001 1240.93 125.882C1245.72 135.69 1256.05 135.49 1264.35 138.868C1265.48 139.328 1268.14 138.436 1268.72 137.399C1271.07 133.216 1273.38 134.926 1275.44 136.815C1278.46 135.175 1281.17 133.7 1284.54 131.868C1284.85 134.917 1285.03 136.684 1285.25 138.807C1290.11 139.249 1295.28 138.859 1299.76 140.431C1302.69 141.459 1304.57 145.38 1307.01 147.916C1308.71 149.68 1310.45 152.543 1312.37 152.718C1316.62 153.104 1318.23 155.027 1318.26 158.287C1323.14 157.905 1328.2 156.217 1332.32 157.519C1337.2 159.063 1341.36 163.046 1345.65 166.232C1348.74 168.531 1351.47 171.309 1354.47 173.737C1355.01 174.169 1356.1 174.087 1356.91 173.978C1363.96 173.02 1370.15 175.359 1376.09 179.245C1378.89 176.916 1381.31 174.189 1384.33 172.636C1386.27 171.644 1389.42 170.15 1391.23 174.056C1391.75 175.155 1394.28 176.093 1395.67 175.858C1400.12 175.108 1404.47 172.983 1408.87 172.932C1411.97 172.897 1416.78 174.562 1417.9 176.882C1421.51 184.336 1428.54 185.556 1434.9 187.827C1442.51 190.543 1450.42 192.444 1458.22 194.619C1459.47 194.968 1460.83 194.907 1462.55 195.105ZM21.1933 168.825C20.5318 172.142 19.1386 175.478 21.9662 178.588C22.3762 179.039 22.0096 180.207 21.9814 181.043C21.868 184.4 21.1079 187.895 21.7931 191.079C22.6102 194.875 25.4444 189.777 27.1485 191.607C27.3513 191.824 27.7277 191.998 28.0208 191.994C29.343 191.975 30.6642 191.885 31.95 191.823C28.4439 184.092 25.266 177.085 22.5066 169.959C22.3347 169.576 22.1629 169.193 21.1933 168.825ZM19.0328 165.277C19.6616 166.391 20.2905 167.504 20.9193 168.617C21.2898 168.358 21.6603 168.098 22.0307 167.838C21.1156 166.759 20.2004 165.68 19.0328 165.277ZM1330.46 189.148C1330.12 189.248 1329.79 189.342 1329.46 189.464C1329.45 189.47 1329.54 189.738 1329.57 189.884C1329.9 189.757 1330.22 189.631 1330.46 189.148Z" fill="#FF573D"/>
<path id="Vector_3" d="M218.445 201.169C217.817 197.377 216.869 193.601 217.441 190.072C217.924 187.09 220.827 187.675 222.448 189.509C225.413 192.866 227.961 192.212 230.999 189.645C233.313 187.689 235.725 186.513 239.102 188.556C242.06 190.345 245.399 186.911 245.947 180.692C248.157 182.948 249.785 184.498 251.276 186.169C252.587 187.638 253.704 189.279 254.99 190.772C255.523 191.39 256.83 191.806 256.843 192.336C257.065 201.487 267.099 202.098 270.812 208.48C273.855 213.711 279.754 210.996 284.537 210.208C286.964 209.807 289.333 208.714 291.747 208.647C296.858 208.507 299.02 206.675 298.941 201.639C298.918 200.155 298.144 198.592 298.432 197.215C298.909 194.928 299.968 192.763 300.782 190.547C303.448 191.748 306.773 192.345 308.589 194.325C310.314 196.207 310.633 199.496 311.263 202.237C312.382 207.111 315.127 210.09 320.074 211.33C322.945 212.05 325.623 213.52 328.419 214.567C329.636 215.023 330.995 215.704 332.182 215.533C338.239 214.661 344.255 213.504 350.301 212.545C351.565 212.344 353.187 212.079 354.142 212.664C358.128 215.108 360.736 211.938 362.88 210.016C364.192 208.84 364.075 205.409 363.706 203.137C362.302 194.487 360.615 185.88 358.871 177.29C357.839 172.202 356.333 167.207 355.379 162.106C354.937 159.746 355.303 157.235 355.303 153.533C357.382 154.971 358.223 155.231 358.35 155.688C361.999 168.871 364.623 182.438 369.472 195.157C373.265 205.103 374.489 216.738 384.075 223.97C385.341 224.925 385.885 227.066 386.372 228.77C387.146 231.48 387.421 234.333 388.205 237.039C391.296 247.719 398.703 250.126 408.574 244.68C411.667 242.973 416.292 242.771 419.857 243.542C423.603 244.352 424.715 242.924 424.803 240.19C424.903 237.077 424.597 233.792 423.659 230.838C421.876 225.222 419.809 219.979 419.936 213.687C420.05 208.045 417.285 202.361 415.898 196.669C415.043 193.159 414.408 189.596 413.643 186.064C412.877 182.522 411.896 179.015 411.349 175.44C411.005 173.192 411.285 170.847 411.285 168.546C411.827 168.508 412.37 168.469 412.912 168.431C415.566 174.052 418.363 179.61 420.824 185.313C422.641 189.522 424.065 193.905 425.534 198.254C425.696 198.732 425.007 199.498 424.412 200.236C418.991 198.78 420.776 194.012 419.142 189.216C418.933 191.174 418.74 191.835 418.815 192.465C419.706 199.937 420.89 207.266 423.61 214.432C426.117 221.036 426.01 228.917 429.509 234.769C432.276 239.396 431.874 243.259 431.727 247.674C431.613 251.093 429.173 251.619 426.4 251.79C422.716 252.018 419.041 252.399 415.152 252.733C415.091 252.352 414.924 251.305 414.737 250.134C414.138 250.209 413.448 250.107 413.283 250.355C412.925 250.892 412.741 251.597 412.663 252.254C412.574 253.015 412.983 254.081 412.605 254.494C412.227 254.909 411.143 254.757 410.375 254.723C407.671 254.6 404.748 253.671 402.307 254.393C391.426 257.616 389.443 254.668 387.002 245.07C385.483 239.097 384.541 232.91 382.329 227.21C381.332 224.642 377.867 223.032 376.613 221.938C375.852 220.013 375.45 219.089 375.118 218.141C373.577 213.744 372.141 209.309 370.497 204.952C369.493 202.293 368.18 199.751 367.006 197.157C366.427 197.351 365.848 197.546 365.269 197.741C366.213 200.778 367.157 203.814 368.193 207.148C367.13 209.667 365.833 212.741 363.978 217.135C361.167 216.871 356.387 215.525 351.965 216.278C348.09 216.938 344.82 216.801 341.094 215.939C339.527 215.577 337.43 218.37 335.354 219.119C332.798 220.041 330.009 220.725 327.327 220.701C326.175 220.691 325.041 218.642 323.898 217.519C322.275 219.811 321.336 217.833 319.828 217.154C312 213.627 308.64 207.433 307.308 199.241C306.928 196.904 303.68 195.034 301.152 193.231C303.34 199.434 303.511 205.234 300.34 210.923C299.4 210.619 298.525 210.336 297.649 210.053C297.747 210.497 297.845 210.942 297.944 211.387C295.246 212.938 293.052 216.021 289.802 213.756C285.082 215.974 280.88 217.949 276.972 219.786C273.171 215.06 264.86 215.177 264.753 207.402C257.575 205.375 255.741 198.189 251.593 192.459C252.023 197.226 252.36 200.974 252.219 204.51C250.587 203.916 249.434 203.534 248.28 203.152C248.157 203.481 248.034 203.81 247.912 204.139C249.044 204.651 250.177 205.163 251.309 205.675C251.557 206.226 251.804 206.776 252.055 207.334C250.625 207.334 249.421 207.334 247.799 207.746C247.33 208.609 247.279 209.06 247.229 209.511C247.709 209.239 248.189 208.968 248.669 208.696C250.275 208.921 251.88 209.146 253.049 209.31C253.103 212.7 251.677 215.647 253.514 219.629C256.453 225.997 259.362 232.953 256.923 240.365C256.133 242.764 254.566 244.907 253.213 247.429C253.897 247.364 254.666 247.29 256.495 247.115C253.426 249.493 251.131 251.272 248.403 253.386C248.129 252.166 247.96 251.417 247.791 250.667C247.581 250.625 247.371 250.584 247.16 250.543C246.929 251.815 246.698 253.088 246.465 254.377C244.764 252.878 243.062 250.997 241.007 249.658C238.328 247.913 234.846 246.931 236.528 242.537C231.419 240.897 234.67 238.071 235.415 235.319C234.431 235.111 233.267 234.864 232.09 234.615C232.207 234.045 232.199 233.511 232.343 233.465C235.463 232.489 237.921 227.479 237.474 222.647C237.001 217.535 236.406 212.433 235.862 207.327C235.703 205.834 229.401 203.179 228.089 203.944C226.168 205.063 224.158 206.029 222.613 206.837C220.988 204.485 219.886 202.889 218.445 201.169ZM240.842 210.379C240.391 210.329 239.94 210.279 239.489 210.229C239.761 210.709 240.032 211.189 240.736 212.215C241.344 213.485 241.951 214.756 242.662 216.241C243.841 215.488 244.738 214.914 245.636 214.341C245.568 214.816 245.5 215.292 245.432 215.768C246.736 216.067 248.04 216.366 249.343 216.666C249.576 215.917 249.809 215.168 250.042 214.419C247.052 213.252 244.061 212.084 240.842 210.379ZM253.227 224.372C253.285 224.989 253.343 225.607 253.401 226.224C253.614 226.206 253.828 226.189 254.042 226.171C253.991 225.443 253.94 224.715 253.227 224.372Z" fill="#FB523C"/>
<path id="Vector_4" d="M424.85 201.293C428.473 205.251 432.192 209.581 435.561 213.502C448.305 209.518 443.838 200.41 441.535 191.915C442.055 191.744 442.576 191.573 443.096 191.402C444.881 194.115 447.015 196.666 448.366 199.581C450.229 203.603 451.37 207.955 453.094 212.051C453.748 213.607 455.064 214.936 456.26 216.195C457.04 217.015 458.158 217.509 459.106 218.174C461.061 219.546 462.866 221.653 465.001 222.063C466.394 222.331 468.435 213.563 467.66 211.365C463.687 200.102 459.566 188.886 455.906 177.522C454.726 173.86 454.791 169.797 454.266 165.761C457.055 167.08 460.5 170.145 463.129 169.558C465.874 168.945 467.835 164.815 470.736 161.549C471.49 163.643 472.153 165.711 472.973 167.715C474.782 172.135 476.296 176.74 478.681 180.832C479.889 182.904 482.795 183.942 484.803 185.604C486.084 186.664 486.921 188.371 488.313 189.165C493.474 192.107 499.511 188.488 498.618 182.593C497.392 174.497 495.193 166.548 493.39 158.54C493.283 158.066 492.812 157.636 492.806 157.181C492.759 153.211 492.779 149.24 492.779 144.814C493.559 145.607 495.051 146.646 495.89 148.069C498.204 151.991 500.489 155.967 502.324 160.125C504.043 164.018 504.984 168.249 506.601 172.194C509.431 179.098 512.585 185.87 515.444 192.762C516.091 194.321 516.087 196.148 516.382 197.852C514.723 197.722 512.912 197.98 511.43 197.399C503.269 194.198 502.529 194.417 497.813 202.589C499.216 204.131 500.449 205.888 502.066 207.156C503.535 208.307 505.334 209.296 507.137 209.717C514.92 211.538 522.976 212.468 530.516 214.974C538.511 217.631 541.276 226.759 538.742 234.822C535.839 244.06 534.101 253.631 535.333 263.469C535.514 264.911 535.418 266.437 535.165 267.874C534.342 272.547 538.664 277.252 543.269 276.4C546.302 275.84 549.27 274.93 552.033 273.071C553.826 273.781 555.62 274.492 557.718 275.323C556.31 282.077 562.106 285.113 565.363 289.574C565.866 290.263 566.081 291.2 566.292 292.056C567.334 296.283 568.227 300.552 569.44 304.728C569.652 305.46 571.441 306.493 571.992 306.247C576.582 304.199 579.53 306.383 582.507 310.666C581.509 303.487 585.795 302.668 590.536 301.661C595.607 300.585 593.293 295.869 593.763 292.813C594.537 287.783 594.449 282.62 594.912 277.233C600.234 278.061 597.905 282.724 598.699 285.588C599.381 288.051 597.449 291.171 596.965 294.049C596.564 296.435 596.207 298.939 596.493 301.31C597.379 308.645 596.363 315.149 590.091 320.025C589.446 320.527 589.524 321.96 589.151 323.41C588.508 322.653 588.039 322.101 587.306 321.239C586.119 323.678 584.976 326.026 583.833 328.375C584.117 328.573 584.4 328.771 584.683 328.969C585.414 328.36 586.145 327.751 587.229 326.848C587.862 328.078 588.448 329.219 589.118 330.522C587.186 330.628 585.673 330.711 583.482 330.831C585.089 333.073 586.142 334.541 588.093 337.262C585.534 336.61 584.284 336.133 583.001 336.019C582.133 335.941 581.111 336.187 580.359 336.631C579.637 337.056 579.175 337.923 578.598 338.595C578.218 337.81 577.837 337.025 577.263 335.84C576.621 337.236 576.1 338.368 575.388 339.914C574.906 338.444 574.508 337.232 573.632 334.564C573.029 337.154 572.737 338.406 572.3 340.281C570.895 338.094 569.695 336.13 568.393 334.236C567.65 333.156 566.468 332.311 565.953 331.152C563.923 326.583 560.388 321.848 560.61 317.332C560.867 312.129 558.747 307.968 557.874 303.351C556.939 298.406 554.991 293.654 553.509 288.81C553.279 288.056 553.222 287.25 553.006 286.491C552.62 285.137 552.174 283.801 551.754 282.458C549.996 283.157 548.239 283.856 547.324 284.219C544.337 283.965 541.863 283.755 539.389 283.545C539.002 284.226 538.616 284.908 538.229 285.59C535.486 281.396 532.689 277.236 530.055 272.975C529.635 272.296 529.832 271.152 529.938 270.245C530.346 266.742 531.021 263.26 531.249 259.748C531.657 253.479 529.701 245.83 532.639 241.281C535.895 236.239 531.795 230.19 536.769 226.439C537.085 226.201 537.09 224.819 536.786 224.6C532.729 221.676 528.944 217.87 524.392 216.254C517.365 213.761 509.81 211.652 502.46 211.585C497.922 211.545 494.809 209.557 492.113 207.555C490.232 206.158 490.629 201.7 489.998 198.612C489.568 196.513 489.12 194.418 488.411 191.04C487.091 193.284 486.564 194.181 486.429 194.409C484.151 191.321 482.21 188.021 479.62 185.352C476.512 182.15 471.903 180.321 471.807 174.747C471.779 173.184 470.267 171.647 469.877 170.92C465.845 172.402 462.126 173.769 458.779 174.999C460.236 180.172 461.525 185.098 463.026 189.958C464.086 193.393 465.479 196.723 466.641 200.129C468.967 206.94 475.714 212.562 472.16 221.014C471.758 221.97 472.666 223.477 472.997 224.859C470.908 226.329 468.776 227.829 465.591 230.071C465.067 229.618 463.508 228.238 461.906 226.91C461.453 226.535 460.805 225.975 460.364 226.066C452.271 227.753 454.093 218.929 450.153 216.168C449.888 215.982 446.26 213.322 449.553 211.329C449.224 210.968 448.8 210.252 448.585 210.31C447.726 210.542 446.842 210.893 446.131 211.421C443.063 213.699 440.21 216.33 436.927 218.219C435.911 218.803 433.358 217.903 432.246 216.881C430.04 214.853 426.684 213.53 426.719 209.695C426.734 207.987 427.093 205.977 424.423 205.815C424.597 204.432 424.772 203.048 424.85 201.293ZM501.195 168.863C501.188 171.731 501.117 174.601 501.202 177.467C501.243 178.857 501.713 180.235 501.752 181.626C501.843 184.835 501.67 188.062 502.018 191.236C502.046 191.494 505.238 191.384 506.957 191.498C507.25 191.518 507.521 191.935 507.811 191.946C509.175 191.996 510.541 191.968 511.999 191.968C508.472 184.181 505.277 177.127 502.497 169.954C502.326 169.574 502.155 169.194 501.195 168.863ZM499.782 167.934C500.43 168.052 501.078 168.169 502.525 168.432C501.106 166.7 500.239 165.64 499.145 164.305C499.145 165.609 499.145 166.56 499.782 167.934Z" fill="#FB523C"/>
<path id="Vector_5" d="M1467 282.001C1467.46 286.461 1467.72 290.954 1468.43 295.371C1469.03 299.044 1471.11 300.696 1475.23 299.805C1479.85 298.806 1484.62 297.562 1489.06 301.132C1489.59 301.558 1493.1 299.794 1493.58 298.454C1494.62 295.553 1494.88 292.273 1494.94 289.139C1495.09 279.832 1494.99 270.52 1495.71 261.166C1496.12 266.279 1496.4 271.407 1496.97 276.501C1497.79 283.73 1499.17 290.911 1499.65 298.157C1499.99 303.193 1503.31 304.23 1506.7 303.627C1513.91 302.344 1519.59 305.246 1525.86 309.45C1527.12 304.698 1520.67 297.528 1530.15 296.058C1531.26 301.103 1532.38 306.174 1533.53 311.392C1538.51 313.444 1539.78 311.764 1542.83 299.112C1544.94 302.313 1547.33 305.936 1550.14 310.179C1552.29 306.877 1554.03 304.222 1555.95 301.294C1556.39 301.993 1556.73 302.891 1557.36 303.457C1558.34 304.325 1559.52 304.964 1560.62 305.7C1561.03 304.535 1561.45 303.374 1561.84 302.203C1562.21 301.1 1562.28 299.782 1562.95 298.921C1564.46 296.991 1566.25 295.286 1567.94 293.477C1572.52 297.452 1578.27 294.226 1581.9 285.144C1581.72 288.298 1581.73 291.788 1580.79 295.003C1580.09 297.419 1578.32 299.592 1576.75 301.664C1575.77 302.959 1574.27 304.706 1573.02 304.695C1571.9 304.685 1570.76 302.568 1569.71 301.319C1569.29 300.818 1569.06 300.151 1568.76 299.596C1563.85 304.04 1563.19 309.953 1565.82 314.562C1566.93 316.49 1566.51 319.283 1566.78 321.638C1564.61 322.017 1562.7 322.349 1560.11 322.799C1559 320.686 1557.69 318.193 1556.23 315.406C1556.01 316.395 1555.58 317.285 1555.67 318.116C1556.37 324.359 1557.81 330.593 1557.79 336.824C1557.75 345.192 1559.84 353.161 1560.77 361.323C1561.2 365.141 1559.54 369.197 1558.67 374.016C1556.96 368.897 1550.54 366.459 1553.75 360.081C1554.09 359.397 1552.46 357.857 1552.03 356.615C1551.38 354.757 1551.24 353.077 1554.17 354.239C1554.36 354.314 1555.08 353.688 1555.12 353.343C1555.19 352.693 1555.15 351.599 1554.78 351.404C1549.12 348.424 1550.49 342.901 1550.06 338.173C1549.3 329.741 1548.91 321.275 1548.32 312.826C1548.27 312.028 1547.92 311.25 1547.71 310.456C1542.28 312.855 1538.19 318.038 1531.79 317.5C1532.21 324.182 1532.79 330.408 1532.85 336.639C1532.86 337.925 1531.21 339.828 1529.9 340.343C1528.77 340.784 1526.13 340.061 1525.71 339.139C1523.84 335.093 1522.05 330.888 1521.14 326.551C1519.91 320.661 1519.51 314.598 1518.69 308.165C1514.64 308.361 1510.38 305.702 1507.28 311.601C1505.93 314.171 1502.12 312.895 1500.99 309.614C1499.51 305.326 1498.44 300.897 1497.05 296.029C1496.81 296.46 1496.31 296.996 1496.21 297.6C1494.69 306.42 1491.8 305.887 1484.12 302.787C1481.5 301.733 1477.82 301.596 1475.23 302.599C1470.68 304.361 1467.55 303.119 1466.99 298.164C1466.56 294.256 1466.06 290.356 1465.58 286.456C1460.71 287.348 1455.79 292.741 1454.67 297.498C1454.27 299.147 1452.2 300.965 1450.5 301.532C1449.39 301.902 1447.42 300.346 1446.14 299.286C1445.38 298.659 1445.21 297.321 1444.45 296.188C1443.61 291.665 1442.71 287.26 1442.67 282.846C1442.57 272.542 1442.88 262.234 1443.07 251.928C1443.08 251.144 1443.39 250.366 1444.53 249.471C1444.69 250.769 1444.94 252.063 1444.98 253.364C1445.35 264.653 1445.54 275.95 1446.14 287.226C1446.25 289.427 1447.65 293.172 1448.87 293.347C1451.05 293.661 1453.81 292.184 1455.83 290.76C1459.52 288.169 1462.85 285.069 1466.67 282.091C1467 282 1467 282.001 1467 282.001ZM1527.53 309.497C1527.53 309.497 1527.49 309.512 1527.53 309.497V309.497Z" fill="#FA513B"/>
<path id="Vector_6" d="M595.398 276.055C593.687 267.735 597.267 260.163 598.829 252.257C599.22 250.283 598.588 248.122 598.858 246.104C599.459 241.618 600.244 237.149 601.193 232.725C601.332 232.078 602.798 231.259 603.624 231.288C610.977 231.54 615.125 227.102 618.747 221.55C619.452 220.469 621.202 219.567 622.527 219.482C627.657 219.153 629.704 215.326 631.115 211.536C632.701 207.278 632.956 202.543 634.29 198.168C635.671 193.637 637.65 189.289 639.929 184.972C642.628 194.153 641.714 203.292 640.35 212.377C639.656 217.006 639.808 221.148 644.287 223.668C646.423 224.87 648.965 225.35 652.195 226.455C653.163 233.408 654.174 241.411 655.437 249.375C655.943 252.57 656.805 255.752 657.939 258.777C658.261 259.636 660.087 260.272 661.268 260.353C662.086 260.41 663.179 259.496 663.786 258.729C664.36 258.003 664.207 256.312 664.806 256.055C675.356 251.533 670.742 242.502 671.093 235.03C671.419 228.078 671.45 221.111 671.549 214.15C671.612 209.721 671.561 205.289 671.561 200.426C675.215 201.465 676.53 203.047 676.725 206.761C677.159 214.993 678.124 223.235 679.502 231.366C680.418 236.771 684.859 235.588 688.477 234.813C690.208 236.877 691.823 238.803 693.807 241.168C695.231 238.268 696.235 236.224 697.535 234.088C697.83 238.841 697.83 243.686 697.83 248.532C697.354 248.52 696.878 248.508 696.402 248.496C695.238 243.831 685.575 238.569 681.414 240.466C679.393 236.527 677.374 232.59 675.355 228.653C675.07 228.716 674.784 228.779 674.498 228.842C675.196 232.952 676.336 237.046 676.473 241.174C676.625 245.751 675.846 250.357 675.505 254.953C675.365 256.839 674.606 259.096 675.357 260.549C677.282 264.275 676.595 267.565 675.356 271.218C674.391 274.062 674.684 277.379 671.165 278.887C670.916 278.993 671.569 281.205 671.858 282.73C670.523 283.564 667.716 277.816 667.763 284.017C666.778 282.366 666.118 281.26 665.3 279.89C664.21 280.589 663.163 281.259 661.565 282.284C659.396 279.599 655.952 277.168 655.256 274.111C653.566 266.681 653.584 258.87 652.023 251.399C651.356 248.209 652.086 245.194 651.653 242.446C650.894 237.624 648.161 233.114 645.849 227.487C645.07 229.565 644.803 230.274 644.387 231.382C643.27 229.999 642.368 229.076 641.69 228.01C639.584 224.695 636.311 221.915 637.217 217.244C637.654 214.993 637.605 212.62 637.486 210.317C637.466 209.928 635.967 209.615 635.06 209.228C634.805 215.605 630.758 221.451 626.476 222.172C620.317 223.21 621.037 232.278 613.784 229.922C614.306 231.454 614.605 232.332 614.867 233.102C611.336 233.852 607.639 234.135 604.381 235.479C601.516 236.66 601.418 240.11 601.408 242.798C601.396 246.245 602.539 249.716 602.376 253.138C602.235 256.101 601.262 259.132 600.112 261.908C598.95 264.714 596.713 266.819 599.264 270.391C600.307 271.853 599.112 275.442 595.398 276.055Z" fill="#FB523C"/>
<path id="Vector_7" d="M1364.01 247.33C1365.83 246.995 1367.49 246.996 1369.57 246.994C1368.9 257.854 1367.97 268.735 1366.66 279.569C1366.23 283.096 1368.02 284.926 1370.66 285.191C1371.79 285.304 1373.85 282.573 1374.4 280.798C1375.51 277.218 1375.87 273.407 1376.54 269.691C1377.19 269.745 1377.84 269.798 1378.49 269.851C1378.16 274.666 1377.83 279.481 1377.32 284.634C1376.71 284.569 1376.27 284.167 1375.83 283.764C1375.55 284.665 1375.21 285.552 1375.01 286.47C1374.47 289.006 1376.57 292.283 1372.29 293.851C1371.28 294.221 1371.31 297.719 1371.05 299.802C1370.64 303.17 1370.21 306.553 1370.1 309.939C1369.91 316.146 1370.11 322.369 1369.76 328.564C1369.7 329.758 1367.99 331.641 1366.82 331.822C1364.7 332.154 1361.86 332.07 1362.04 328.6C1362.22 325.047 1362.8 321.513 1362.97 317.96C1363.7 302.951 1364.65 287.942 1364.87 272.924C1364.98 265.258 1363.67 257.574 1363.09 249.892C1363.03 249.173 1363.57 248.408 1364.01 247.33Z" fill="#FB523C"/>
<path id="Vector_8" d="M1286.95 236.403C1290.19 235.887 1294.03 236.513 1293.21 230.429C1293.66 230.669 1294.11 230.91 1294.56 231.15C1294.71 232.607 1294.69 234.104 1295.05 235.509C1295.45 237.139 1296.18 238.688 1296.77 240.272C1298.36 239.6 1299.96 238.954 1301.53 238.242C1302.12 237.975 1302.64 237.552 1303.51 237.098C1302.39 242.001 1300.92 246.999 1299.53 252.018C1298.94 254.137 1298.59 255.485 1301.11 257.561C1303.31 259.375 1303.67 264.055 1303.82 267.513C1303.96 270.607 1302.34 273.741 1302.15 276.896C1301.96 280.059 1300.82 281.789 1297.65 281.543C1294.12 281.268 1292.08 279.319 1291.99 275.589C1291.82 268.245 1291.48 260.904 1291.44 253.56C1291.41 248.913 1291.81 244.264 1291.99 240.342C1290.01 238.922 1288.5 237.836 1286.95 236.403Z" fill="#FB523C"/>
<path id="Vector_9" d="M1324.14 233.576C1325.5 235.838 1326.86 238.1 1328.22 240.361C1328.75 240.306 1329.27 240.25 1329.8 240.194C1330.72 235.234 1331.64 230.273 1332.57 225.313C1333.04 225.31 1333.51 225.307 1333.98 225.305C1333.98 228.267 1333.98 231.23 1333.97 234.652C1333.18 242.127 1331.77 249.145 1331.79 256.16C1331.81 264.256 1333.14 272.345 1333.81 280.445C1334.18 285.091 1331.15 285.314 1326.58 284.691C1325.46 277.277 1323.94 269.561 1323.34 261.773C1323.19 259.834 1325.98 257.667 1327.09 256.07C1326.65 255.508 1325.6 254.777 1325.46 253.896C1324.53 248.247 1323.81 242.566 1323.26 236.424C1323.33 235.574 1323.15 235.195 1322.98 234.815C1322.59 235.087 1322.2 235.359 1321.46 235.837C1321.15 233.816 1321.19 231.589 1321.6 229.586C1322.04 234.285 1322.04 234.285 1324.14 233.576Z" fill="#FB523C"/>
<path id="Vector_10" d="M1376.55 288.151C1379.09 289.295 1381.19 290.982 1383.58 291.84C1384.39 292.129 1386.81 290.482 1387.02 289.431C1387.9 284.931 1388.23 280.324 1388.76 275.755C1389.17 275.735 1389.58 275.714 1390 275.694C1390 277.782 1390.03 279.872 1389.99 281.96C1389.9 285.925 1390.12 290.263 1395.06 290.618C1401.28 291.065 1402.56 289.225 1403.03 282.061C1403.05 281.738 1403.16 281.42 1403.15 281.435C1404.68 282.738 1406.32 284.136 1407.96 285.535C1409.24 283.926 1410.52 282.317 1411.99 280.471C1412.43 281.295 1413.05 282.452 1413.82 284.086C1413.97 284.742 1413.97 284.92 1413.96 285.099C1410.88 287.991 1407.93 291.042 1404.65 293.696C1403.4 294.711 1401.41 294.818 1399.76 295.342C1398.48 295.747 1397.08 295.943 1395.95 296.607C1393.4 298.11 1391.49 297.825 1389.99 294.875C1386.16 298.778 1388.96 307.388 1379.62 308.067C1378.75 303.771 1377.82 299.434 1377.03 295.07C1376.63 292.861 1376.49 290.605 1376.55 288.151Z" fill="#FB523C"/>
<path id="Vector_11" d="M1229.45 223.167C1229.26 222.069 1229.17 220.954 1229.62 220.155C1230.59 218.47 1232.63 217.05 1232.85 215.344C1233.91 206.98 1241.72 203.079 1249.19 207.466C1254.67 204.046 1255.68 204.32 1257.8 210.643C1259.65 216.13 1260.96 221.8 1262.89 227.252C1263.5 228.958 1265.36 230.219 1266.64 231.684C1267.51 230.118 1268.36 228.547 1269.25 226.991C1269.39 226.73 1269.65 226.53 1270.84 225.219C1271.3 229.6 1271.58 233.056 1272.07 236.482C1272.24 237.712 1272.91 238.871 1273.35 240.063C1274.47 239.574 1275.6 239.123 1276.7 238.585C1277.87 238.01 1278.93 237.089 1280.16 236.782C1283.88 235.85 1284.39 233.23 1284.46 229.945C1284.57 224.749 1285.02 219.561 1285.33 214.369C1285.88 214.378 1286.42 214.387 1286.97 214.396C1286.97 221.335 1286.97 228.274 1286.96 235.652C1283 239.11 1279.06 242.128 1274.9 245.319C1268.68 244.449 1270.22 238.892 1269.81 233.817C1268.21 234.203 1266.68 235.089 1265.61 234.706C1263.99 234.127 1261.85 232.94 1261.38 231.53C1258.86 223.954 1256.79 216.229 1254.41 208.007C1253.33 209.199 1252.59 210.789 1251.57 210.993C1249.51 211.407 1246.96 211.77 1245.21 210.915C1238.43 207.594 1234.53 209.755 1234.34 217.38C1234.23 221.903 1232.8 223.758 1229.45 223.167Z" fill="#FB523C"/>
<path id="Vector_12" d="M1592.94 298.453C1594.52 299.588 1596.17 301.117 1597.98 302.798C1599.08 302.109 1600.38 301.297 1602.44 300.013C1601.92 302.784 1601.55 304.733 1601.06 307.336C1604.26 305.407 1606.59 303.999 1608.92 302.592C1609.4 302.928 1609.87 303.264 1610.35 303.6C1609.33 308.849 1608.31 314.097 1607.07 319.659C1606.85 318.83 1606.85 317.687 1606.85 316.521C1606.49 316.578 1606.11 316.523 1605.93 316.685C1599.99 322.035 1598.64 321.718 1596.43 313.864C1595.05 308.928 1594.13 303.858 1592.94 298.453Z" fill="#FA513B"/>
<path id="Vector_13" d="M1426.94 292.446C1432.54 291.576 1432.54 291.576 1435.08 298.049C1437.75 298.049 1440.47 298.049 1443.52 298.024C1443.88 302.749 1444.15 307.522 1443.73 312.232C1443.64 313.266 1441.06 314.718 1439.6 314.762C1438.62 314.79 1437.09 312.816 1436.66 311.467C1434.76 305.462 1433.17 299.358 1431.58 293.679C1430.01 293.386 1428.51 293.106 1426.94 292.446Z" fill="#FA513B"/>
<path id="Vector_14" d="M1347.1 250.385C1350.27 253.1 1351.87 252.148 1355.81 249.667C1362.7 245.334 1361.28 239.501 1361.93 233.867C1362.96 225.062 1363.54 216.204 1364.31 207.369C1364.87 207.39 1365.43 207.412 1365.99 207.433C1365.44 219.401 1364.89 231.369 1364.12 243.693C1361.12 247.649 1358.58 251.472 1355.45 254.733C1354.29 255.945 1351.24 256.78 1349.97 256.091C1348.47 255.277 1347.96 252.629 1347.1 250.385Z" fill="#FB523C"/>
<path id="Vector_15" d="M1335.61 245.13C1338.57 245.282 1341.98 246.733 1343.72 245.605C1345.51 244.448 1345.66 240.768 1346.52 238.192C1346.97 238.225 1347.41 238.258 1347.86 238.291C1347.68 240.984 1347.5 243.677 1347.11 246.709C1346.26 248.962 1346.02 251.19 1344.85 252.696C1343.72 254.152 1341.11 256.074 1340.08 255.63C1338.37 254.887 1337.09 252.565 1336.21 250.642C1335.48 249.06 1335.6 247.093 1335.61 245.13Z" fill="#FB523C"/>
<path id="Vector_16" d="M1304.4 234.149C1304.62 227.762 1305.13 221.479 1305.65 215.195C1306.16 215.225 1306.68 215.254 1307.2 215.284C1307.2 222.357 1307.2 229.43 1307.05 236.774C1306.16 236.115 1305.43 235.184 1304.4 234.149Z" fill="#FB523C"/>
<path id="Vector_17" d="M1425.38 291.121C1424.61 285.272 1424.1 279.473 1423.59 273.674C1424.2 273.621 1424.81 273.567 1425.41 273.514C1425.92 279.426 1426.43 285.339 1426.94 291.685C1426.5 291.803 1426.08 291.487 1425.38 291.121Z" fill="#FA513B"/>
<path id="Vector_18" d="M1416.57 291.121C1419.4 291.977 1421.92 293.021 1424.78 294.065C1423.83 295.486 1422.24 298.284 1421.29 298.08C1418.09 297.386 1415.72 295.213 1416.57 291.121Z" fill="#FA513B"/>
<path id="Vector_19" d="M1307.11 239.334C1310.86 241.269 1314.61 243.161 1319.45 241.086C1318.17 245.298 1313.5 246.146 1309.32 242.766C1308.36 241.986 1307.79 240.718 1307.11 239.334Z" fill="#FB523C"/>
<path id="Vector_20" d="M1581.92 282.641C1581.24 282.02 1579.92 280.817 1580.14 280.095C1580.9 277.65 1582.21 275.375 1584.51 273.086C1584.66 274.833 1584.82 276.581 1584.97 278.739C1584.36 278.906 1583.76 278.662 1583.25 278.452C1583.02 279.146 1582.5 280.713 1581.92 282.641Z" fill="#FA513B"/>
<path id="Vector_21" d="M1585.92 280.361C1588.24 280.718 1592.44 280.008 1589.18 284.923C1587.91 283.602 1586.95 282.141 1585.92 280.361Z" fill="#FA513B"/>
<path id="Vector_22" d="M1413.99 285.432C1413.97 284.92 1413.97 284.742 1413.98 284.296C1416.14 284.195 1418.56 284.107 1417.08 287.793C1415.93 287.304 1414.97 286.534 1413.99 285.432Z" fill="#FA513B"/>
<path id="Vector_23" d="M774.096 244.163C773.927 245.039 773.802 245.954 773.676 246.87C773.312 246.93 772.947 246.99 772.583 247.05C771.988 245.003 771.394 242.955 770.799 240.908C771.158 240.767 771.517 240.626 771.876 240.484C772.401 241.613 772.926 242.741 773.831 244.083C774.211 244.296 774.139 244.203 774.096 244.163Z" fill="#FF573D"/>
<path id="Vector_24" d="M1590.09 294.355C1591.04 295.151 1591.94 296.304 1592.89 297.79C1591.97 296.987 1591 295.85 1590.09 294.355Z" fill="#FA513B"/>
<path id="Vector_25" d="M1589.09 287.339C1589.51 287.87 1589.87 288.744 1590.06 289.846C1589.6 289.276 1589.31 288.479 1589.09 287.339Z" fill="#FA513B"/>
<path id="Vector_26" d="M1334.1 237.299C1334.5 237.553 1334.83 238.112 1335.03 238.858C1334.61 238.564 1334.32 238.084 1334.1 237.299Z" fill="#FB523C"/>
<path id="Vector_27" d="M1233.88 250.115C1234.46 250.968 1234.85 252 1235.24 253.032C1234.97 253.13 1234.71 253.229 1234.45 253.327C1234.2 252.606 1233.95 251.886 1233.5 250.911C1233.43 250.535 1233.56 250.415 1233.88 250.115Z" fill="#FF573D"/>
<path id="Vector_28" d="M111.493 324.511C111.057 324.048 110.985 323.593 110.913 323.137C111.363 323.153 111.814 323.169 112.264 323.184C112.129 323.629 111.993 324.074 111.493 324.511Z" fill="#FF573D"/>
<path id="Vector_29" d="M592.502 323.648C591.89 324.075 591.39 324.216 590.895 324.202C590.772 324.199 590.665 323.69 590.55 323.413C591.239 323.377 591.928 323.342 592.502 323.648Z" fill="#FB523C"/>
<path id="Vector_30" d="M769.382 239.657C769.346 239.367 769.48 239.173 769.599 239.182C769.717 239.192 769.818 239.405 769.927 239.528C769.8 239.633 769.673 239.738 769.382 239.657Z" fill="#FF573D"/>
<path id="Vector_31" d="M589.672 324.626C589.436 324.609 589.39 324.422 589.344 324.234C589.517 324.308 589.689 324.381 589.672 324.626Z" fill="#FB523C"/>
<path id="Vector_32" d="M109.69 324.255C109.685 324.497 109.508 324.554 109.331 324.611C109.393 324.431 109.456 324.25 109.69 324.255Z" fill="#FF573D"/>
<path id="Vector_33" d="M1425.31 294.006C1425.05 293.898 1425.05 293.69 1425.04 293.168C1425.21 293.206 1425.38 293.556 1425.31 294.006Z" fill="#FA513B"/>
<path id="Vector_34" d="M1376.71 285.965C1376.96 286.07 1376.97 286.285 1376.96 286.823C1376.79 286.789 1376.63 286.432 1376.71 285.965Z" fill="#FB523C"/>
<path id="Vector_35" d="M1416.71 288.966C1416.96 289.07 1416.97 289.285 1416.96 289.822C1416.79 289.789 1416.63 289.432 1416.71 288.966Z" fill="#FA513B"/>
<path id="Vector_36" d="M1728.97 226.486C1724.45 229.517 1721.65 226.879 1720.78 223.047C1719.58 217.779 1716.09 215.304 1711.32 212.899C1711.24 214.461 1710.71 216.006 1711.17 217.143C1712.58 220.587 1710.6 223.224 1708.18 223.573C1706.56 223.807 1703.42 220.986 1702.81 218.974C1701.99 216.237 1700.47 215.148 1698.65 213.331C1696.23 210.915 1695.84 206.453 1694.61 202.861C1694.36 202.15 1694.22 201.401 1694.09 200.333C1695.77 200.33 1697.38 200.766 1699.02 200.978C1702.59 201.44 1705.44 202.486 1705.69 206.836C1705.74 207.7 1706.97 208.497 1708.62 210.486C1710.74 205.642 1712.25 201.624 1714.22 197.843C1715.89 194.633 1718 191.64 1720.11 188.685C1720.55 188.073 1722.11 187.564 1722.64 187.877C1723.47 188.372 1724.32 189.566 1724.4 190.524C1725.1 199.557 1725.48 208.619 1726.34 217.636C1726.61 220.52 1728.04 223.293 1728.97 226.486Z" fill="#FA513B"/>
<path id="Vector_37" d="M1672.53 324.201C1672.89 330.391 1672.98 336.786 1672.93 343.18C1672.91 346.548 1666.78 351.222 1662.34 350.861C1659.16 350.602 1657.3 348.497 1657.37 344.965C1657.4 343.657 1656.81 342.335 1655.46 341.096C1655.46 343.407 1655.9 345.83 1655.34 347.997C1654.8 350.102 1653.43 353.378 1652.08 353.559C1650.17 353.814 1647.28 353.265 1646.81 349.354C1645.64 339.48 1643.67 329.701 1642.08 319.448C1643.12 323.201 1644.11 327.384 1645.05 331.581C1645.56 333.848 1645.63 336.273 1646.5 338.381C1647.4 340.578 1649.02 342.479 1650.33 344.51C1651.44 342.763 1652.54 341.005 1653.67 339.274C1654.9 337.392 1656.18 335.534 1657.43 333.666C1657.95 333.983 1658.46 334.301 1658.98 334.618C1658.57 335.717 1658.16 336.815 1657.79 337.823C1659.3 338.502 1660.72 339.125 1662.14 339.785C1663.7 340.516 1665.94 342.313 1666.65 341.829C1668.46 340.6 1670.31 338.536 1670.81 336.481C1671.77 332.576 1671.8 328.443 1672.53 324.201ZM1653.47 345.501C1653.47 345.501 1653.51 345.486 1653.47 345.501V345.501Z" fill="#FA513B"/>
<path id="Vector_38" d="M1635.07 238.876C1634.55 239.234 1634.04 239.592 1633.53 239.949C1630.78 235.199 1628.5 237.353 1626.31 240.809C1625.82 240.61 1625.34 240.411 1624.85 240.212C1625.64 236.06 1626.26 231.865 1627.29 227.77C1628.12 224.43 1627.85 222.168 1623.39 222.014C1623 222 1623 221.999 1623 221.999C1623.57 218.748 1624.15 215.497 1624.72 212.246C1625.22 212.172 1625.71 212.098 1626.21 212.025C1627.36 213.29 1628.45 214.622 1629.67 215.808C1632.53 218.566 1635.61 220.684 1639.71 218.232C1642.1 216.8 1644.02 216.479 1646.04 219.103C1648.05 221.713 1647.38 223.579 1645.16 225.353C1644.85 221.811 1643.23 223.239 1641.41 223.826C1639.58 224.415 1637.51 224.261 1635.29 224.455C1636.4 229.281 1626.12 227.927 1628.17 234.377C1631.75 234.087 1634.16 235.306 1635.07 238.876Z" fill="#FA513B"/>
<path id="Vector_39" d="M1627.54 267.162C1628.6 276.503 1632.55 285.929 1626.53 295.45C1624.27 299.028 1624.58 304.236 1623.38 308.918C1623.09 306.19 1623.04 303.237 1623.22 300.3C1623.78 291.417 1624.32 282.53 1625.13 273.668C1625.33 271.509 1626.51 269.438 1627.54 267.162Z" fill="#FA513B"/>
<path id="Vector_40" d="M1757.45 218.065C1758.09 211.635 1759.04 205.264 1759.96 198.508C1761.05 196.056 1762.17 193.989 1763.29 191.922C1763.86 192.133 1764.42 192.344 1764.99 192.556C1764.99 194.764 1764.99 196.972 1764.95 199.614C1764.9 200.047 1765.01 200.007 1765.01 200.007C1763.73 205.354 1762.58 210.739 1761.05 216.011C1760.77 216.956 1758.89 217.433 1757.45 218.065Z" fill="#FA513B"/>
<path id="Vector_41" d="M1666.53 268.203C1666.6 273.971 1666.35 279.944 1666.12 285.917C1666.12 286.002 1666.43 286.198 1666.47 286.168C1666.67 286.038 1666.82 285.843 1667.07 285.334C1667.71 286.095 1668.8 287.23 1668.73 288.286C1668.24 295.576 1667.52 302.851 1666.83 310.125C1666.77 310.704 1666.32 311.245 1666.04 311.824C1665.52 311.559 1664.99 311.415 1664.99 311.272C1665.03 297.54 1665.11 283.808 1665.24 270.077C1665.25 269.517 1665.87 268.963 1666.53 268.203Z" fill="#FA523C"/>
<path id="Vector_42" d="M1675.09 299.762C1674.53 305.565 1674.18 311.059 1673.47 316.809C1672.79 312.149 1672.14 307.229 1672.2 302.317C1672.25 298.051 1673.11 293.794 1674.64 289.354C1674.86 292.72 1675.08 296.087 1675.09 299.762Z" fill="#FA513B"/>
<path id="Vector_43" d="M1646.03 269.316C1646.86 269.921 1647.69 270.991 1648.61 272.187C1649.21 271.959 1650.27 271.561 1651.6 271.048C1650.59 276.966 1649.31 282.998 1648.03 289.029C1647.83 289.133 1647.63 289.237 1647.43 289.341C1646.96 282.822 1646.49 276.302 1646.03 269.316Z" fill="#FA523C"/>
<path id="Vector_44" d="M1744.92 220.23C1746.93 224.377 1749.83 224.209 1753.62 222.087C1752.4 224.229 1751.05 226.629 1749.05 228.194C1748.47 228.647 1745.88 226.89 1744.45 225.825C1742.06 224.036 1742.86 222.147 1744.92 220.23Z" fill="#FA513B"/>
<path id="Vector_45" d="M1694.09 197.735C1693.25 195.527 1692.62 192.985 1691.83 189.827C1691.03 192.36 1690.45 194.167 1689.5 196.022C1689.28 192.704 1689.43 189.338 1689.59 185.972C1695.34 188.829 1695.56 192.892 1694.09 197.735Z" fill="#FA513B"/>
<path id="Vector_46" d="M1656.46 234.812C1656.69 229.803 1657.23 224.605 1657.4 219.272C1658.54 217.015 1660.05 214.891 1662.04 212.075C1660.53 219.012 1659.34 224.544 1658.1 230.061C1657.75 231.603 1657.22 233.103 1656.46 234.812Z" fill="#FA523C"/>
<path id="Vector_47" d="M1668.42 245.842C1667.38 242.455 1666.61 238.909 1665.48 235.219C1665.11 232.257 1665.11 229.439 1665.11 226.621C1665.92 226.594 1666.73 226.568 1667.54 226.541C1667.92 232.922 1668.31 239.303 1668.42 245.842Z" fill="#FA523C"/>
<path id="Vector_48" d="M1691.95 227.254C1692.31 229.417 1692.98 232.017 1692.77 234.547C1692.37 239.584 1691.49 244.582 1690.46 249.831C1689.85 247.66 1689.14 245.207 1689.4 242.86C1689.96 237.764 1691.01 232.723 1691.95 227.254Z" fill="#FA513B"/>
<path id="Vector_49" d="M1689.8 253.109C1689.69 258.817 1689.25 264.699 1688.47 270.823C1686.2 264.959 1687.01 259.058 1689.8 253.109Z" fill="#FA513B"/>
<path id="Vector_50" d="M1637.92 257.179C1638.92 260.093 1639.72 263.255 1640.47 266.222C1641.89 266.529 1643.44 266.865 1645.07 267.579C1643.42 268.298 1641.68 268.638 1638.54 269.253C1638.26 265.269 1637.98 261.347 1637.92 257.179Z" fill="#FA523C"/>
<path id="Vector_51" d="M1684.56 297.149C1684.84 298.138 1685.1 299.358 1684.78 300.406C1682.92 306.556 1679.96 307.23 1675.09 302.365C1680.34 304.62 1682.5 301.335 1684.56 297.149Z" fill="#FA513B"/>
<path id="Vector_52" d="M1649.99 299.716C1649.81 301.304 1649.63 302.487 1649.45 303.67C1649.12 303.641 1648.8 303.612 1648.48 303.583C1648.48 300.196 1648.48 296.808 1648.48 293.421C1648.89 293.387 1649.3 293.354 1649.72 293.32C1649.81 295.317 1649.9 297.314 1649.99 299.716Z" fill="#FA523C"/>
<path id="Vector_53" d="M1662.63 253.091C1664.23 256.072 1665.6 259.148 1666.91 262.613C1665.32 261.199 1663.49 259.558 1662.37 257.527C1661.76 256.422 1662.35 254.654 1662.63 253.091Z" fill="#FA523C"/>
<path id="Vector_54" d="M1669.45 269.829C1669.43 266.583 1669.71 263.163 1669.92 259.393C1674.02 262.615 1671.49 266.132 1669.45 269.829Z" fill="#FA523C"/>
<path id="Vector_55" d="M1633.09 273.744C1632.26 270.989 1631.64 267.911 1631.08 264.415C1634.49 266.536 1634.38 269.869 1633.09 273.744Z" fill="#FA513B"/>
<path id="Vector_56" d="M1667.45 282.834C1667.5 280.127 1667.86 277.252 1668.55 274.156C1668.5 276.846 1668.13 279.756 1667.45 282.834Z" fill="#FA523C"/>
<path id="Vector_57" d="M1685.56 289.15C1685.81 290.899 1685.78 292.8 1685.43 294.88C1682.21 293.064 1683.92 291.188 1685.56 289.15Z" fill="#FA513B"/>
<path id="Vector_58" d="M1669.09 255.745C1668.59 253.662 1668.31 251.256 1668.09 248.424C1668.53 250.473 1668.92 252.948 1669.09 255.745Z" fill="#FA523C"/>
<path id="Vector_59" d="M1654.45 247.822C1654.5 245.127 1654.86 242.252 1655.55 239.156C1655.5 241.837 1655.13 244.739 1654.45 247.822Z" fill="#FA523C"/>
<path id="Vector_60" d="M1639.04 303.79C1638.26 301.964 1637.64 299.857 1637.08 297.374C1637.83 299.168 1638.52 301.339 1639.04 303.79Z" fill="#FA513B"/>
<path id="Vector_61" d="M1692.83 219.066C1693 221.178 1692.88 223.422 1692.44 225.865C1692.26 223.776 1692.39 221.487 1692.83 219.066Z" fill="#FA513B"/>
<path id="Vector_62" d="M1636.67 248.351C1637.22 250.081 1637.6 252.134 1637.91 254.595C1637.4 252.893 1636.95 250.784 1636.67 248.351Z" fill="#FA523C"/>
<path id="Vector_63" d="M1688.6 198.125C1689.58 199.527 1690.31 201.058 1691.22 202.849C1688.43 203.388 1687.59 202.053 1688.6 198.125Z" fill="#FA513B"/>
<path id="Vector_64" d="M1641.97 317.731C1641.31 316.025 1640.67 313.9 1640.09 311.386C1640.76 313.102 1641.37 315.207 1641.97 317.731Z" fill="#FA513B"/>
<path id="Vector_65" d="M1687.61 273.102C1687.83 274.545 1687.8 276.092 1687.45 277.852C1687.2 276.446 1687.28 274.826 1687.61 273.102Z" fill="#FA513B"/>
<path id="Vector_66" d="M1652.43 268.862C1652.18 267.779 1652.21 266.554 1652.56 265.132C1652.82 266.197 1652.76 267.458 1652.43 268.862Z" fill="#FA523C"/>
<path id="Vector_67" d="M1691.71 203.864C1692.23 204.769 1692.6 206.033 1692.92 207.65C1692.42 206.743 1691.99 205.483 1691.71 203.864Z" fill="#FA513B"/>
<path id="Vector_68" d="M1634.07 279.813C1633.59 278.956 1633.31 277.843 1633.08 276.363C1633.52 277.183 1633.89 278.37 1634.07 279.813Z" fill="#FA513B"/>
<path id="Vector_69" d="M1686.65 282.262C1686.83 283.556 1686.8 285.098 1686.45 286.853C1686.23 285.547 1686.34 284.029 1686.65 282.262Z" fill="#FA513B"/>
<path id="Vector_70" d="M1692.93 212.196C1693.33 213.191 1693.53 214.451 1693.43 215.888C1692.99 214.863 1692.86 213.662 1692.93 212.196Z" fill="#FA513B"/>
<path id="Vector_71" d="M1636.07 289.802C1635.58 288.973 1635.28 287.878 1634.93 286.421C1635.34 287.217 1635.8 288.377 1636.07 289.802Z" fill="#FA513B"/>
<path id="Vector_72" d="M1631.07 261.825C1630.54 262.024 1630.28 261.861 1630.02 261.353C1630.33 260.222 1630.72 259.315 1631.12 258.409C1631.37 258.49 1631.63 258.572 1631.88 258.654C1631.67 259.63 1631.46 260.605 1631.07 261.825Z" fill="#FA513B"/>
<path id="Vector_73" d="M1672.85 319.042C1673.08 319.764 1673.03 320.593 1672.92 321.712C1672.76 321.051 1672.67 320.1 1672.85 319.042Z" fill="#FA513B"/>
<path id="Vector_74" d="M1640.03 308.842C1639.36 308.119 1638.84 307.169 1638.6 306.076C1639.31 306.827 1639.75 307.721 1640.03 308.842Z" fill="#FA513B"/>
<path id="Vector_75" d="M1637.05 294.841C1636.59 294.272 1636.31 293.476 1636.09 292.339C1636.51 292.87 1636.87 293.742 1637.05 294.841Z" fill="#FA513B"/>
<path id="Vector_76" d="M1756.16 221.95C1756.21 221.488 1756.56 221.02 1757.03 220.274C1757.68 220.251 1758.2 220.505 1758.73 220.759C1757.97 221.154 1757.22 221.548 1756.16 221.95Z" fill="#FA513B"/>
<path id="Vector_77" d="M1653.32 261.656C1653.2 260.418 1653.24 258.849 1653.62 257.066C1653.8 258.343 1653.65 259.834 1653.32 261.656Z" fill="#FA523C"/>
<path id="Vector_78" d="M1663.64 244.179C1663.81 244.914 1663.77 245.817 1663.42 246.893C1663.22 246.159 1663.32 245.253 1663.64 244.179Z" fill="#FA523C"/>
<path id="Vector_79" d="M1662.89 249.018C1663.1 249.457 1663.07 249.978 1662.95 250.751C1662.79 250.368 1662.73 249.733 1662.89 249.018Z" fill="#FA523C"/>
<path id="Vector_80" d="M1635.01 283.856C1634.38 283.437 1633.89 282.806 1633.63 282.056C1634.29 282.506 1634.71 283.075 1635.01 283.856Z" fill="#FA513B"/>
<path id="Vector_81" d="M1654.29 253.757C1654.11 253.241 1654.06 252.497 1654.09 251.383C1654.24 251.852 1654.34 252.69 1654.29 253.757Z" fill="#FA523C"/>
<path id="Vector_82" d="M1649.73 309.438C1649.64 309.589 1649.52 309.648 1649.39 309.707C1649.49 309.586 1649.59 309.465 1649.73 309.438Z" fill="#FA523C"/>
<path id="Vector_83" d="M1667.04 265.177C1667.21 265.211 1667.37 265.567 1667.29 266.034C1667.04 265.93 1667.03 265.715 1667.04 265.177Z" fill="#FA523C"/>
<path id="Vector_84" d="M1664.04 239.177C1664.21 239.211 1664.37 239.567 1664.29 240.034C1664.04 239.929 1664.03 239.714 1664.04 239.177Z" fill="#FA523C"/>
<path id="Vector_85" d="M1664.7 237.191C1664.74 237.32 1664.63 237.628 1664.28 238.044C1664.21 237.889 1664.38 237.628 1664.7 237.191Z" fill="#FA523C"/>
<path id="Vector_86" d="M1690.04 251.177C1690.21 251.211 1690.37 251.568 1690.29 252.035C1690.04 251.93 1690.03 251.715 1690.04 251.177Z" fill="#FA513B"/>
<path id="Vector_87" d="M1655.96 237.823C1655.79 237.789 1655.63 237.433 1655.71 236.966C1655.96 237.071 1655.97 237.286 1655.96 237.823Z" fill="#FA523C"/>
<path id="Vector_88" d="M1653.96 255.822C1653.79 255.788 1653.63 255.432 1653.71 254.966C1653.96 255.071 1653.97 255.285 1653.96 255.822Z" fill="#FA523C"/>
<path id="Vector_89" d="M1668.96 257.823C1668.79 257.789 1668.63 257.433 1668.71 256.966C1668.96 257.07 1668.97 257.285 1668.96 257.823Z" fill="#FA523C"/>
<path id="Vector_90" d="M1628.05 263.14C1628.14 263.037 1628 263.514 1627.93 263.751C1627.77 263.717 1627.81 263.468 1628.05 263.14Z" fill="#FA513B"/>
<path id="Vector_91" d="M1652.96 263.823C1652.79 263.789 1652.63 263.432 1652.71 262.966C1652.96 263.07 1652.97 263.285 1652.96 263.823Z" fill="#FA523C"/>
<path id="Vector_92" d="M1377.51 265.508C1377.49 265.516 1377.53 265.501 1377.51 265.508V265.508Z" fill="#FB523C"/>
<path id="Vector_93" d="M1628.04 265.177C1628.21 265.211 1628.37 265.567 1628.29 266.035C1628.04 265.93 1628.04 265.715 1628.04 265.177Z" fill="#FA513B"/>
<path id="Vector_94" d="M1730.81 227.704C1730.68 227.745 1730.37 227.637 1729.95 227.285C1730.11 227.206 1730.37 227.377 1730.81 227.704Z" fill="#FA513B"/>
<path id="Vector_95" d="M1757.49 223.494C1757.51 223.486 1757.47 223.501 1757.49 223.494V223.494Z" fill="#FA513B"/>
<path id="Vector_96" d="M1623 222.001C1623 222.002 1622.91 222.049 1622.96 222.024C1623 221.999 1623 222 1623 222.001Z" fill="#FA513B"/>
<path id="Vector_97" d="M1578.51 279.508C1578.49 279.516 1578.53 279.501 1578.51 279.508V279.508Z" fill="#FA513B"/>
<path id="Vector_98" d="M1467 281.999C1467 281.998 1467.09 281.951 1467.04 281.976C1467 282.001 1467 282 1467 281.999Z" fill="#FA513B"/>
<path id="Vector_99" d="M1634.95 285.794C1634.78 285.761 1634.63 285.415 1634.71 284.963C1634.96 285.064 1634.96 285.273 1634.95 285.794Z" fill="#FA513B"/>
<path id="Vector_100" d="M1322.04 228.108C1324.15 217.14 1326.27 206.172 1328.38 195.204C1328.85 195.262 1329.33 195.319 1329.8 195.377C1329.53 198.537 1329.31 201.701 1328.98 204.855C1328.27 211.787 1327.6 218.725 1326.71 225.634C1326.48 227.372 1325.45 229.007 1324.41 230.653C1324.03 229.552 1324.03 228.487 1324.03 227.188C1323.13 227.601 1322.59 227.855 1322.04 228.108Z" fill="#FB523C"/>
<path id="Vector_101" d="M1330.5 189.326C1330.22 189.63 1329.9 189.757 1329.57 189.883C1329.54 189.738 1329.45 189.469 1329.46 189.464C1329.79 189.341 1330.12 189.247 1330.5 189.326Z" fill="#FB523C"/>
<path id="Vector_102" d="M22.0034 169.128C22.1629 169.193 22.3347 169.576 22.2973 170.019C22.0639 169.867 22.0397 169.657 22.0034 169.128Z" fill="black"/>
<path id="Vector_103" d="M501.996 169.13C502.155 169.194 502.326 169.574 502.29 170.013C502.057 169.864 502.033 169.655 501.996 169.13Z" fill="black"/>
<path id="Vector_104" d="M1527.51 309.504C1527.49 309.512 1527.53 309.497 1527.51 309.504V309.504Z" fill="#EF4339"/>
<path id="Vector_105" d="M1323 235.13C1323.15 235.195 1323.33 235.574 1323.29 236.013C1323.06 235.863 1323.03 235.655 1323 235.13Z" fill="black"/>
<path id="Vector_106" d="M1653.49 345.493C1653.51 345.486 1653.47 345.501 1653.49 345.493V345.493Z" fill="#EF4339"/>
<path id="Vector_107" d="M1765 200.003C1765.01 200.007 1764.9 200.047 1764.95 200.021C1764.99 199.995 1765 200 1765 200.003Z" fill="#EF4339"/>
</g>
<defs>
<clipPath id="clip0_1_1103">
<rect width="3000" height="455" fill="white"/>
</clipPath>
</defs>
</svg>
