<svg width="3000" height="455" viewBox="0 0 3000 455" fill="none" xmlns="http://www.w3.org/2000/svg">
<g clip-path="url(#clip0_1_1054)">
<path d="M1026.91 119.594C1028.92 120.211 1031.27 120.354 1032.87 121.523C1041.3 127.693 1051.03 125.61 1060.45 126.201C1060.95 127.851 1061.47 129.537 1061.65 131.817C1061.21 136.889 1061.3 141.386 1060.92 145.842C1060.69 148.482 1061.37 149.557 1064.01 150.198C1065.77 150.623 1068.29 152.037 1068.62 153.441C1069.8 158.481 1072.82 161.77 1077.12 165.026C1078.08 162.053 1078.89 159.566 1079.7 157.079C1079.97 157.144 1080.24 157.21 1080.52 157.275C1080.04 160.985 1079.57 164.696 1079.12 168.193C1090.76 167.062 1087.68 157.166 1090.78 151.585C1086.87 150.706 1082.74 150.21 1078.97 148.773C1076.71 147.907 1075 145.575 1073.04 143.901C1079.65 145.946 1086.26 147.991 1094.31 150.481C1094.89 139.146 1095.39 129.426 1096.29 119.701C1096.83 119.819 1096.95 119.943 1097.08 120.067C1097.39 121.995 1097.95 123.922 1097.96 125.851C1098 135.01 1099.41 143.765 1104.16 151.832C1105.19 153.576 1105.13 155.962 1105.61 158.259C1104.7 158.259 1103.57 158.259 1102.88 158.259C1105.05 162.741 1107.2 167.206 1110.05 173.111C1112.79 166.418 1115.41 160.933 1117.26 155.201C1119.27 149.022 1120.55 142.613 1122.71 136.192C1121.62 148.576 1121.43 160.904 1126.72 171.582C1127.32 169.979 1128.37 167.227 1129.59 164.028C1131.36 166.806 1132.91 169.234 1134.72 172.061C1135.87 170.818 1136.88 169.732 1137.89 168.647C1137.48 168.518 1137.08 168.39 1136.68 168.262C1136.96 166.143 1137 163.956 1137.57 161.919C1139.96 153.403 1142.51 144.932 1145.29 135.45C1146.4 140.312 1147.26 144.58 1148.36 148.783C1149.27 152.238 1150.49 155.61 1151.5 159.04C1151.63 159.493 1151.34 160.07 1150.8 160.234C1150.07 159.433 1149.8 158.986 1149.53 158.54C1149.33 158.642 1149.13 158.744 1148.93 158.846C1149.26 159.589 1149.59 160.331 1149.92 161.073C1151.11 165.937 1152.29 170.802 1153.52 175.827C1150.95 177.436 1151.44 182.911 1156.02 187.989C1157.69 179.104 1159.18 171.155 1160.63 163.451C1162.14 174.116 1163.68 184.964 1165.22 195.813C1166.07 195.882 1166.92 195.952 1167.77 196.022C1168.74 192.784 1169.72 189.546 1170.65 186.478C1172.35 191.944 1175.37 197.71 1175.65 203.604C1175.98 210.545 1181.04 210.691 1183.84 212.777C1186.91 210.763 1189.36 209.422 1191.47 207.68C1192.63 206.72 1193.83 205.154 1193.99 203.744C1194.47 199.5 1198.35 196.486 1197.58 191.53C1197.3 189.696 1201.14 187.226 1204.02 184.02C1200.99 184.437 1199.25 184.676 1197.51 184.916C1197.24 184.596 1196.96 184.276 1196.69 183.956C1199.68 180.534 1202.67 177.112 1205.97 173.337C1204.78 169.204 1204.91 164.521 1208.33 160.215C1208.01 159.945 1207.92 160.01 1208.11 160.337C1208.56 159.805 1208.81 158.945 1208.88 157.893C1208.57 157.573 1208.45 157.445 1208.32 157.317C1208.88 153.457 1209.49 149.604 1209.99 145.736C1210.27 143.566 1210.37 141.373 1211.57 139.065C1213.47 148.231 1215.38 157.396 1217.33 166.754C1216.64 167.154 1215.51 167.813 1214.31 168.508C1217.45 171.972 1220.56 175.403 1224.52 179.771C1222.11 179.771 1220.33 179.771 1218.24 179.771C1218.32 180.307 1218.2 181.76 1218.63 181.941C1226.18 185.166 1224.36 191.813 1224.43 197.692C1224.53 205.524 1224.46 213.358 1225.25 221.367C1225.82 218.845 1226.65 216.349 1226.91 213.795C1227.9 204.129 1228.76 194.449 1229.54 184.765C1229.89 180.463 1231.45 177.278 1236.13 172.802C1235.04 172.802 1234.28 172.802 1233.33 172.802C1233.33 169.982 1233.33 167.267 1233.33 164.552C1232.96 164.515 1232.59 164.478 1232.21 164.442C1233.69 162.875 1235.17 161.308 1236.64 159.741C1236.22 159.595 1235.79 159.449 1235.37 159.303C1235.67 157.458 1235.95 155.608 1236.29 153.768C1237.1 149.281 1237.94 144.798 1238.86 139.773C1240.23 145.09 1241.45 149.912 1242.71 154.728C1243.01 155.906 1243.73 157.083 1243.66 158.226C1243.56 159.98 1242.95 161.705 1242.55 163.442C1242.12 163.333 1241.68 163.225 1241.25 163.116C1243.22 165.557 1245.2 167.997 1247.17 170.433C1244.71 172.326 1244.83 176.275 1247.91 179.822C1249.52 175.957 1251.06 172.29 1252.96 167.729C1253.98 172.188 1254.84 175.947 1255.7 179.705C1256.32 179.795 1256.94 179.884 1257.55 179.974C1260.26 170.565 1262.96 161.157 1265.66 151.749C1267.22 164.41 1270.86 176.3 1274.56 188.173C1275.37 188.108 1276.17 188.044 1276.97 187.979C1277.29 185.247 1277.56 182.505 1277.98 179.788C1278.1 179.022 1278.59 178.26 1279.1 177.654C1279.21 177.524 1280.51 177.964 1280.62 178.333C1281.72 182.035 1282.71 185.769 1283.62 189.522C1283.69 189.792 1282.85 190.282 1282.39 190.712C1286.12 192.324 1293.48 187.442 1292.86 183.786C1292.76 183.13 1291.25 182.706 1290.7 182.367C1291.42 179.707 1291.78 176.763 1292.99 174.23C1294.86 170.327 1297.45 166.776 1299.48 162.939C1300.6 160.824 1301.29 158.46 1302 156.156C1303.54 151.175 1304.97 146.16 1306.52 140.914C1307.76 146.722 1308.94 152.211 1310.12 157.701C1310.41 157.725 1310.71 157.75 1311 157.775C1311.23 156.324 1311.46 154.872 1311.74 153.099C1312.06 153.287 1312.49 153.713 1312.98 153.802C1314.94 154.16 1318.56 154.242 1318.61 154.732C1318.89 157.437 1318.17 160.226 1318.04 162.997C1317.9 166.224 1318.01 169.463 1318.01 173.087C1325.61 171.945 1325.24 166.203 1326.81 162.343C1328.54 158.1 1328.94 153.321 1330.25 147.299C1331.66 156.298 1332.43 163.992 1334.19 171.453C1335.58 177.376 1338.21 183.007 1340.23 188.787C1340.62 189.905 1340.76 191.112 1341.13 192.775C1340.87 192.796 1342.13 193.064 1342.54 192.593C1344.44 190.388 1346.35 188.122 1347.76 185.596C1348.74 183.826 1350.56 182.343 1348.77 179.259C1347.94 177.839 1351.4 173.922 1353.45 170.156C1354.69 176.693 1355.74 182.212 1356.8 187.731C1357.34 187.821 1357.88 187.911 1358.42 188.001C1360.1 183.787 1361.79 179.574 1363.49 175.335C1362.78 175.081 1362.05 174.817 1362.18 174.866C1363.8 170.091 1365.37 165.448 1367.05 160.482C1368.29 165.811 1369.54 171.218 1370.86 176.867C1370.86 176.865 1369.49 177.452 1369.55 177.713C1370.95 183.868 1372.5 189.989 1374.03 196.116C1374.56 196.006 1375.08 195.897 1375.61 195.788C1375.89 193.937 1376.17 192.085 1376.45 190.225C1378.23 195.677 1380.26 200.905 1381.6 206.305C1382.93 211.675 1381.67 217.655 1385 222.783C1385 214.392 1385 206.324 1385 198.356C1386.38 198.152 1387.59 197.975 1388.67 197.815C1389.8 202.801 1390.92 207.731 1392.04 212.661C1392.1 215 1392.84 223.419 1394.77 224.726C1395.65 225.32 1397.58 225.515 1398.29 224.954C1399.5 224 1400.77 222.359 1400.89 220.912C1401.43 214.419 1401.58 207.893 1402.81 201.397C1402.81 207.442 1402.81 213.486 1402.81 220.468C1404.52 218.866 1405.61 217.856 1406.67 216.865C1404.95 213.77 1410.48 177.918 1413.49 174.732C1414.59 182.341 1415.57 189.536 1416.7 196.706C1417.18 199.72 1418.09 202.664 1418.61 205.673C1419.01 208.037 1419.12 210.453 1419.36 212.846C1419.92 212.946 1420.48 213.047 1421.04 213.148C1420.17 213.632 1419.31 214.116 1419.11 214.223C1420.44 218.162 1421.7 221.938 1423.1 226.095C1431.37 219.775 1428.73 209.761 1432.75 202.008C1433.75 202.885 1434.76 203.769 1435.45 204.371C1432.97 215.467 1439.71 223.722 1443.12 233.095C1443.94 231.968 1444.63 231.026 1445.32 230.083C1446.02 231.009 1446.61 232.043 1447.43 232.841C1449.66 235.001 1450.19 239.599 1455.03 238.189C1455.34 238.098 1456.07 239.457 1456.99 240.627C1460.23 230.841 1463.37 221.382 1466.5 211.922C1467.02 211.987 1467.53 212.051 1468.05 212.115C1469.43 221.614 1470.81 231.113 1472.2 240.611C1472.6 240.59 1473 240.569 1473.41 240.548C1474.16 238.857 1474.91 237.165 1475.72 235.324C1474.5 234.361 1473.25 233.376 1472.01 232.398C1473.88 229.167 1475.64 226.141 1477.68 222.623C1475.95 222.623 1475.11 222.623 1472.77 222.623C1482.29 215.042 1479.79 204.218 1483.55 195.894C1485.81 199.358 1486.8 202.47 1487.04 207.14C1487.07 207.777 1487.26 208.446 1487.54 209.023C1488.77 211.579 1491.46 213.727 1488.79 217.117C1487.97 218.153 1492.77 224.304 1493.89 225.749C1494.92 227.084 1494.85 229.273 1495.44 231.834C1495.79 231.97 1497.07 232.47 1497.97 232.818C1498.64 229.887 1499.04 227.054 1500.01 224.426C1500.34 223.516 1502.04 222.693 1503.15 222.652C1503.73 222.63 1504.55 224.324 1504.94 225.364C1505.6 227.118 1506.01 228.968 1506.88 232.075C1508.75 229.217 1509.81 227.587 1510.88 225.956C1511.33 226.091 1511.79 226.227 1512.25 226.362C1511.5 230.557 1510.22 234.742 1510.15 238.948C1510.08 242.847 1510.31 247.385 1512.25 250.509C1514.26 253.769 1513.02 258.236 1517.92 260.899C1521.88 246.512 1525.85 232.095 1529.82 217.679C1530.21 217.596 1530.61 217.512 1531 217.429C1532.42 222.873 1533.05 228.713 1535.5 233.649C1537.88 238.439 1542.13 242.301 1545.36 246.322C1546.31 246.133 1548.12 245.315 1548.55 245.78C1549.68 246.983 1550.88 248.768 1550.84 250.289C1550.73 254.527 1549.6 258.755 1549.67 262.974C1549.71 265.527 1551.18 268.074 1552.1 270.589C1553 273.028 1554.54 275.354 1554.87 277.85C1555.44 282.295 1552.19 283.74 1549.61 284.172C1543.67 300.81 1544.91 317.358 1547.62 335.311C1549.28 329.767 1550.81 325.439 1551.88 321.001C1554.52 310.061 1556.93 299.068 1559.46 288.102C1560.35 284.229 1559.96 280.037 1564.46 277.42C1566.02 276.516 1565.5 272.474 1566.52 270.123C1568.02 266.666 1565.41 266.192 1563.63 264.549C1562.42 263.437 1561.92 260.869 1562.1 259.051C1562.89 251.077 1563.93 243.123 1565.15 235.204C1565.38 233.763 1566.9 232.522 1567.6 231.498C1567.09 230.045 1565.91 228.099 1566.32 227.671C1573.03 220.654 1570.96 210.838 1574.34 202.704C1576.6 197.254 1576.2 190.696 1576.98 184.633C1577.46 184.546 1577.94 184.459 1578.42 184.372C1579 187.452 1579.63 190.523 1580.15 193.613C1580.86 197.847 1581.49 202.093 1582.14 206.337C1582.63 209.566 1583.73 212.863 1583.41 216.013C1583.05 219.576 1584.66 220.774 1587.58 221.56C1587.81 220.938 1588.08 220.206 1588.36 219.432C1590.3 219.633 1592.26 219.836 1594.58 220.077C1594.8 221.058 1595.07 222.296 1595.51 224.309C1596.4 222.682 1597.27 221.669 1597.54 220.517C1598.5 216.465 1599.14 212.332 1600.21 208.311C1600.4 207.602 1602.1 207.347 1603.03 206.774C1607.05 204.311 1608.79 200.688 1609.07 195.855C1610.17 202.347 1611.27 208.838 1612.53 216.328C1623.45 198.858 1624.42 179.857 1629.72 161.453C1631.34 167.26 1632.85 172.642 1634.56 178.769C1634.91 176.995 1635.13 175.905 1635.55 173.771C1636.41 176.282 1636.93 177.8 1637.85 180.491C1639.84 174.458 1641.58 169.212 1643.51 163.348C1644.37 166.045 1645.04 168.164 1645.71 170.283C1646.09 170.367 1646.48 170.451 1646.87 170.536C1648.34 164.648 1649.81 158.761 1651.39 152.439C1651.06 152.28 1650.12 151.836 1648.69 151.154C1650.17 150.247 1651.35 149.526 1653.33 148.311C1651.62 148.311 1650.93 148.311 1651.42 148.311C1652.46 142.726 1653.51 137.02 1654.54 131.467C1656.94 135.913 1651.65 142.66 1659.14 146.714C1658.17 147.307 1657.07 147.982 1655.91 148.693C1656.81 149.305 1657.86 150.018 1659.47 151.114C1658.03 151.633 1657.07 151.977 1655.67 152.482C1654.87 153.148 1661.24 154.767 1655.25 155.229C1657.07 156.472 1658.44 157.414 1660.91 159.097C1658.32 159.483 1656.87 159.698 1654.56 160.043C1656.53 161.552 1658.14 162.795 1660.18 164.361C1659.56 165.322 1658.8 166.484 1658.48 166.973C1659.54 168.578 1660.53 170.064 1662.22 172.629C1662.72 170.515 1663.05 168.806 1663.55 167.149C1664.05 165.501 1664.71 163.904 1665.73 161.122C1662.8 156.581 1666.93 151.138 1668.06 145.477C1669.31 139.262 1671.02 133.141 1672.62 126.618C1678.13 134.57 1674.36 143.88 1678.68 151.721C1678.36 152.605 1678.32 153.037 1678.27 153.469C1678.74 153.207 1679.21 152.946 1679.68 152.684C1681.59 150.335 1683.27 148.007 1681 144.867C1680.63 144.357 1680.95 143.127 1681.29 142.376C1682.44 139.779 1683.74 137.246 1684.96 134.722C1686.31 139.938 1687.78 145.591 1689.24 151.245C1689.65 151.274 1690.05 151.303 1690.45 151.332C1691.62 145.527 1692.46 139.627 1694.06 133.946C1695.57 128.616 1697.9 123.519 1700.2 117.437C1700.9 120.12 1701.57 122.156 1701.95 124.244C1702.83 129.044 1703.46 133.892 1704.46 138.664C1704.64 139.535 1706.52 140.932 1706.88 140.737C1708.62 139.775 1710.11 138.36 1711.74 137.069C1712.36 149.202 1712.55 161.754 1716.19 173.72C1716.65 173.633 1717.11 173.545 1717.57 173.457C1719.67 163.097 1721.77 152.737 1723.86 142.377C1724.12 142.423 1724.38 142.468 1724.64 142.514C1726.2 151.009 1727.75 159.505 1729.3 168C1729.65 168.005 1729.99 168.011 1730.34 168.016C1731.26 164.657 1732.19 161.298 1733.12 157.938C1733.66 158.035 1734.21 158.131 1734.76 158.227C1734.76 168.984 1734.76 179.742 1734.76 190.59C1736.92 190.173 1738.32 189.903 1740 189.58C1740 187.793 1739.84 186.122 1740.03 184.493C1740.48 180.66 1739.42 176.416 1745.2 174.688C1746.7 174.238 1746.86 168.56 1747.24 165.238C1747.81 160.245 1747.81 155.182 1748.47 150.204C1748.98 146.366 1750.13 142.614 1751.21 137.907C1754.6 143.81 1757.64 148.742 1758.72 154.93C1759.68 160.476 1761.38 166.15 1767.56 170.414C1770.31 161.554 1772.93 153.119 1775.6 144.514C1775.96 145.024 1777.01 145.944 1776.84 146.355C1774.09 152.975 1778.53 157.603 1781.2 162.725C1782.11 164.461 1784.35 166.219 1781.21 168C1780.93 168.161 1780.57 168.701 1780.65 168.915C1782 172.558 1783.41 176.177 1783.79 179.94C1784.55 184.916 1785.3 189.892 1786.05 194.868C1786.65 194.935 1787.25 195.002 1787.86 195.069C1791.23 186.107 1794.33 177.063 1795 167.146C1795.82 172.556 1800.61 177.141 1797.67 183.151C1797.42 183.658 1798.91 184.859 1799.25 185.854C1799.62 186.921 1802.28 188.553 1798.79 189.125C1799.32 190.655 1799.85 192.185 1800.38 193.716C1800.75 193.555 1801.13 193.394 1801.5 193.234C1802.57 187.252 1803.64 181.27 1804.71 175.288C1805.18 175.323 1805.65 175.358 1806.11 175.394C1806.67 183.365 1807.22 191.336 1807.79 199.563C1811.63 197.169 1811.63 197.169 1810.03 192.047C1809.83 191.4 1809.31 190.625 1809.5 190.121C1810.97 186.208 1812.75 182.405 1814.09 178.45C1815.01 175.717 1815.48 172.813 1815.98 169.956C1816.64 166.17 1817.13 162.355 1817.9 157.203C1819.55 166.852 1820.92 174.867 1822.25 182.62C1822.62 182.717 1822.01 182.56 1820.98 182.293C1822.51 186.864 1823.98 191.234 1825.45 195.605C1825.24 195.736 1825.04 195.867 1824.84 195.998C1823.74 194.775 1822.64 193.551 1821.55 192.327C1821.33 192.435 1821.11 192.543 1820.89 192.652C1821.93 195.117 1823.16 197.52 1823.97 200.059C1825.59 205.191 1827.04 210.38 1828.39 215.592C1828.55 216.221 1827.6 217.137 1826.66 218.823C1828.94 228.038 1829.18 228.101 1837.87 221.962C1838.43 216.982 1838.58 213.114 1839.39 209.389C1839.95 206.815 1840.89 204.702 1838.38 202.487C1837.59 201.783 1837.87 199.607 1838.02 198.141C1838.21 196.316 1838.65 194.494 1839.18 192.731C1841.35 185.562 1843.59 178.416 1846.77 171.128C1847.35 175.791 1847.93 180.454 1848.65 186.302C1852.05 179.646 1857.38 175.687 1858.51 168.125C1859.25 163.153 1864.24 158.812 1867.32 154.188C1867.96 153.238 1869.11 152.303 1869.14 151.335C1869.34 144.426 1875.53 142.266 1879.31 138.223C1879.84 137.666 1880.8 136.98 1881.39 137.11C1887.05 138.356 1890.8 134.84 1895.47 131.542C1893.6 131.542 1892.4 131.542 1890.49 131.542C1892.03 129.697 1893.16 128.34 1894.29 126.984C1893.88 126.976 1893.47 126.969 1893.06 126.961C1893.04 123.631 1892.61 120.243 1893.08 116.984C1894.23 109.078 1895.78 101.232 1897.03 94.1538C1899.46 103.119 1902.19 112.66 1904.54 122.293C1905.05 124.399 1904.22 126.833 1903.98 129.418C1912.32 125.879 1916.39 131.878 1921.11 137.098C1924.38 140.712 1928.31 143.724 1932.18 147.221C1933.43 143.771 1934.18 141.702 1934.87 139.802C1934.55 138.88 1933.67 137.655 1933.92 136.75C1934.38 135.088 1935.87 133.697 1936.26 132.035C1936.56 130.751 1935.83 129.226 1935.56 127.808C1935.1 127.867 1934.64 127.926 1934.18 127.986C1936.34 121.683 1938.49 115.381 1940.95 108.202C1941.24 114.384 1948.23 117.733 1946.35 125.414C1948.95 128.996 1950.18 136.573 1947.86 138.282C1953.17 143.559 1953.02 143.291 1959.76 139.272C1962.11 137.875 1965.44 138.027 1968.35 137.714C1973.78 137.129 1979.09 139.465 1984.78 135.622C1988.7 132.974 1995.23 134.564 2000.11 132.874C2006.63 130.62 2010.44 135.494 2015.39 137.225C2020.86 139.141 2026.21 141.535 2031.33 144.245C2033.22 145.242 2034.67 147.555 2035.71 149.579C2038.87 155.7 2041.66 162.013 2044.79 168.155C2045.4 169.359 2046.86 170.129 2048.55 171.659C2051.21 160.541 2053.71 150.097 2056.2 139.653C2056.55 139.611 2056.89 139.569 2057.24 139.527C2057.49 141.856 2058.05 144.2 2057.94 146.513C2057.66 152.505 2059.79 157.581 2062.73 162.665C2064.45 165.652 2065.2 169.291 2065.95 172.732C2067.1 178.036 2069.7 179.916 2074.4 177.741C2080.09 175.109 2085.96 172.581 2085.14 164.308C2084.78 160.638 2086.79 159.826 2092.56 160.331C2093.16 162.746 2093.79 165.239 2094.42 167.733C2093.5 158.87 2101.24 158.739 2106.32 156.117C2109.49 154.485 2113 153.537 2116.35 152.265C2124.87 149.03 2133.38 145.77 2141.91 142.569C2142.81 142.232 2143.92 141.891 2144.78 142.118C2154.72 144.745 2162.33 139.085 2170.42 135.082C2173.87 133.374 2177.28 131.504 2180.91 130.276C2181.89 129.942 2184.12 131.334 2184.85 132.51C2188.33 138.055 2194.16 140.138 2199.31 143.372C2202.53 145.396 2204.74 149.041 2207.42 151.936C2210.22 154.949 2209.23 158.085 2208.45 161.625C2207.94 163.903 2209.98 166.636 2209.9 169.13C2209.45 181.947 2208.49 194.747 2208.09 207.565C2207.79 217.032 2207.88 226.524 2208.16 235.994C2208.32 241.441 2208.75 246.968 2209.92 252.268C2210.71 255.825 2211.62 255.758 2214.17 254.45C2212.52 247.934 2216.74 241.182 2214.04 234.497C2214.04 231.267 2213.11 227.128 2214.24 223.661C2216.43 216.93 2213.12 210.634 2213.85 204.066C2214.25 200.388 2212.79 196.542 2212.7 192.759C2212.64 190.383 2213.95 187.98 2213.94 185.593C2213.92 180.696 2213.22 175.803 2213.18 170.906C2213.14 166.351 2213.59 161.793 2213.76 158.529C2222.93 153.235 2231.05 148.551 2239.16 143.867C2239.42 144.222 2239.68 144.577 2239.93 144.931C2239.51 145.482 2239.09 146.034 2238.64 146.616C2239.82 147.032 2241 147.444 2242.78 148.071C2242.1 146.344 2241.6 145.075 2241.18 144.008C2242.96 142.326 2245.2 141.046 2246.17 139.126C2248.82 133.921 2252.5 133.373 2257.67 134.915C2260.93 135.89 2264.59 135.488 2268.04 135.958C2271.92 136.488 2275.77 137.892 2279.63 137.874C2287.8 137.835 2294.25 133.5 2300.23 128.336C2301.77 127.004 2303.72 125.113 2305.43 125.171C2315.06 125.5 2324.75 125.79 2334.26 127.219C2340.09 128.095 2345.6 131.039 2351.29 132.955C2356.38 134.668 2361.51 136.268 2366.63 137.876C2371.02 139.254 2374.7 141.31 2375.05 145.104C2378.67 147.322 2381.28 149.556 2384.29 150.605C2387.87 151.848 2391.78 152.188 2395.58 152.666C2396.86 152.827 2398.24 152.215 2400.58 151.761C2399.3 153.567 2398.06 154.584 2398.24 155.186C2400.19 161.84 2402.37 168.429 2404.48 175.035C2404.99 175.036 2405.49 175.038 2406 175.039C2406.88 171.458 2407.92 167.906 2408.59 164.286C2409.12 161.471 2414.43 157.794 2417.2 158.632C2422.48 160.234 2426.8 157.784 2431.16 155.354C2433.42 154.094 2435.84 153.103 2438.74 152.151C2439.42 152.442 2439.54 152.572 2439.66 152.702C2436.11 157.284 2432.61 161.911 2428.94 166.405C2428.31 167.185 2426.98 167.399 2425.8 167.953C2426.22 168.351 2427.03 169.105 2427.58 169.625C2424.76 176.004 2419.7 182.315 2419.8 188.538C2419.92 195.602 2414.71 200.161 2414.74 206.688C2414.75 209.014 2412.44 211.352 2411.43 213.22C2407.39 214.715 2403.33 215.029 2399.25 211.207C2398.98 211.27 2397.78 211.545 2396.34 211.875C2393.72 204.996 2391.1 198.137 2388.63 191.632C2383.38 200.386 2377.05 192.767 2370.72 190.627C2369.92 195.888 2369.13 201.05 2368.34 206.213C2367.94 205.819 2367.54 205.426 2367.14 205.032C2365.6 205.683 2364.06 206.333 2362.79 206.868C2360.2 205.862 2357.34 205.019 2354.77 203.639C2353.45 202.927 2352.03 201.397 2351.72 199.997C2351.09 197.241 2351.2 194.318 2351.01 191.513C2342.87 190.923 2339.19 194.842 2339.98 202.926C2340.51 208.337 2336.63 211.968 2330.86 211.526C2330.35 211.487 2329.81 212.016 2329.26 212.188C2324.79 213.574 2323.03 212.158 2323.08 207.674C2318.63 209.005 2314.05 210.371 2308.57 212.008C2308.99 219.223 2309.9 227.195 2309.8 235.153C2309.69 243.43 2309.44 251.894 2307.55 259.872C2306.7 263.465 2301.85 266.248 2298.56 269.101C2283.58 282.093 2266.21 290.509 2247 295.03C2233.39 298.231 2219.79 301.651 2205.99 303.727C2193.27 305.641 2180.32 306.287 2167.44 306.758C2155.92 307.18 2145.12 303.904 2134.84 298.541C2129.13 295.556 2122.9 293.569 2117.01 290.893C2109.22 287.35 2102.05 282.982 2096.49 276.148C2090.83 269.184 2084.69 262.607 2078.02 255.026C2078.02 257.578 2077.82 259.453 2078.06 261.273C2079.42 271.855 2079.4 282.267 2076.31 292.674C2074.32 299.371 2073.9 306.543 2071.82 313.2C2068.1 325.06 2058.75 331.319 2047.56 335.082C2040.2 337.553 2032.78 340.703 2024.81 338.897C2020.33 337.884 2015.37 336.748 2011.91 334.032C2003.84 327.695 1995.99 320.864 1989.17 313.241C1985.59 309.247 1982.5 307.093 1977.36 307.997C1968.65 309.526 1962.78 304.303 1956.84 299.307C1954.41 297.26 1952.05 295.123 1948.38 293.382C1949.21 304.507 1950.36 315.619 1950.77 326.76C1951.23 339.448 1951.03 352.16 1951.1 364.862C1951.11 367.739 1950.93 370.62 1951.02 373.494C1951.62 392.999 1945.91 410.966 1937.9 428.427C1932.93 439.251 1925.79 448.248 1916.68 455.735C1906.98 456 1896.96 456 1886.69 455.657C1875.58 449.199 1864.65 443.207 1853.9 436.915C1848.43 433.714 1842.88 430.439 1838.05 426.384C1825.87 416.16 1823.27 400.982 1819.21 386.83C1817.55 381.032 1818.46 374.522 1817.97 368.355C1817.41 361.382 1816.6 354.429 1815.9 347.468C1814.99 354.542 1814.94 361.542 1815.02 368.54C1815.06 371.359 1814.38 373.645 1811.25 373.918C1807.63 374.234 1808.01 371.443 1808.01 369.117C1807.99 364.292 1808 359.468 1808 354.644C1807.59 354.888 1807.17 355.133 1806.76 355.378C1805 353.16 1803.25 350.942 1801.89 349.224C1800.31 350.163 1798.88 351.269 1797.27 351.814C1796.82 351.964 1795.11 350.378 1795.17 349.698C1795.79 342.901 1794.57 336.705 1790.04 331.376C1789.87 331.174 1789.97 330.727 1789.97 330.395C1789.98 323.371 1790.01 316.348 1789.98 309.325C1789.98 308.014 1790.28 306.146 1789.56 305.483C1784.5 300.795 1782.69 295.382 1784.97 288.746C1785.12 288.299 1785.16 287.663 1784.96 287.273C1784.48 286.382 1783.83 285.588 1783.24 284.755C1782.47 285.303 1781.39 285.683 1780.96 286.43C1779.5 288.991 1778.42 291.791 1776.84 294.271C1776.14 295.364 1774.58 295.906 1773.41 296.698C1773.14 295.089 1772.2 293.212 1772.72 291.92C1774.53 287.43 1776.84 283.143 1778.94 278.822C1775.64 276.153 1774.44 269.135 1777.76 264.96C1783.08 258.256 1778.31 251.98 1777.05 246.222C1775.72 240.197 1770.59 235.009 1766.91 229.113C1766.91 231.608 1766.91 233.768 1766.62 236.11C1766.23 237.52 1766.13 238.749 1766.04 239.978C1766.19 240.001 1766.34 240.024 1766.5 240.047C1766.89 238.926 1767.29 237.804 1767.99 236.555C1768.89 245.26 1766.7 248.951 1761.27 250.791C1758.92 256.054 1757.61 260.538 1754.99 264.055C1753.93 265.483 1750.04 264.806 1748.29 264.995C1746.5 268.298 1745.44 273.372 1742.74 274.486C1738.7 276.156 1735.79 277.149 1736.25 282.058C1736.27 282.181 1735.71 282.358 1735.6 282.412C1733.77 277.058 1732.89 271.036 1729.83 266.481C1726.73 261.871 1730.29 255.749 1725.27 251.918C1724.24 252.463 1723.29 253.059 1722.27 253.486C1721.06 253.99 1719.36 255.053 1718.65 254.614C1717.45 253.864 1716.24 252.186 1716.12 250.802C1715.54 244.386 1715.26 237.941 1715.03 231.5C1714.88 227.437 1715 223.364 1715 219.296C1714.5 219.148 1714 219 1713.5 218.853C1712.37 223.335 1706.79 224.607 1707.29 230.798C1707.75 236.375 1706.93 242.683 1699.25 244.088C1698.79 244.173 1698.22 244.858 1698.1 245.361C1697.01 249.804 1695.91 254.248 1695.01 258.73C1692.64 270.515 1690.56 282.363 1687.89 294.076C1687.39 296.261 1684.66 297.936 1682.96 299.846C1681.64 297.786 1679.91 295.874 1679.09 293.631C1677.89 290.334 1677.91 286.526 1674 284.396C1674.23 286.083 1674.46 287.77 1674.68 289.456C1674.3 289.212 1673.92 288.967 1673.54 288.722C1672.38 290.552 1670.71 292.241 1670.15 294.24C1668.47 300.213 1667.35 306.338 1665.79 312.346C1663.94 319.455 1660.83 320.499 1655.5 316.505C1653.64 317.326 1652.04 318.052 1650.43 318.74C1648.86 319.407 1647.28 320.036 1644.51 321.174C1640.66 320.008 1638.62 316.178 1640.05 310.338C1638.35 311.306 1637.03 312.059 1635.7 312.813C1633.24 316.675 1631.85 321.709 1629.94 326.539C1626.77 334.545 1623.44 342.504 1619.74 350.273C1619.07 351.685 1616.19 352.918 1614.5 352.727C1612.87 352.543 1610.45 350.624 1610.13 349.098C1608.74 342.488 1607.73 335.767 1607.09 329.037C1606.64 324.282 1607 319.45 1607 314.653C1603.27 323.865 1600.88 333.283 1597.91 342.513C1595.97 348.542 1596.15 356.094 1587.95 358.753C1587.63 365.73 1587.35 372.818 1586.98 379.902C1586.6 387.287 1585.33 388.14 1578.49 385.841C1577.95 385.66 1577.17 385.943 1576.76 385.651C1575.39 384.676 1573.39 383.751 1573.01 382.414C1572.33 380.027 1572.48 377.346 1572.58 374.8C1572.98 364.997 1573.5 355.198 1573.97 345.397C1572.25 349.438 1571.52 353.676 1569.86 357.505C1568.92 359.678 1566.6 362.33 1564.59 362.623C1563.01 362.853 1559.73 360.063 1559.33 358.169C1558.27 353.111 1558.4 347.811 1557.99 342.612C1557.78 340.028 1557.42 337.456 1557.06 334.276C1555.13 338.9 1553.92 342.822 1551.88 346.25C1550.86 347.963 1548.33 349.691 1546.47 349.704C1544.96 349.714 1542.51 347.423 1542.06 345.734C1540.12 338.339 1538.76 330.791 1537.22 323.482C1535.65 331.726 1533.19 339.907 1534.73 349.152C1537.04 363.118 1537.68 377.364 1538.99 391.494C1539.24 394.262 1539.31 397.047 1539.47 399.825C1538.62 399.977 1537.78 400.129 1536.94 400.281C1535.3 395.095 1533.07 390.012 1532.13 384.702C1530.36 374.688 1529.42 364.529 1527.94 354.459C1527.1 348.745 1525.88 343.086 1524.67 336.52C1522.59 338.983 1521.55 340.213 1521.43 340.353C1517.9 339.732 1515.74 339.352 1512.83 338.841C1512.34 334.503 1511.75 329.266 1511.12 323.69C1509.46 323.406 1507.45 323.06 1504.74 322.595C1504.74 318.654 1504.74 314.669 1504.74 310.683C1504.37 310.613 1504 310.544 1503.64 310.474C1499 321.876 1494.36 333.278 1489.55 345.085C1488.27 343.593 1487.23 342.377 1486.05 341.008C1484.05 341.864 1481.96 342.752 1479.72 343.711C1479.72 338.712 1479.72 334.068 1479.72 328.61C1478.32 333.859 1477.15 338.263 1475.66 343.854C1473.16 340.161 1474.71 334.727 1469.07 335.258C1468.3 337.38 1468.13 340.162 1466.68 341.273C1464.31 343.084 1461.11 343.804 1458.27 344.984C1457.61 343.142 1456.88 341.322 1456.32 339.453C1455.59 337.037 1455.52 332.853 1454.25 332.472C1450.66 331.395 1450.72 329.351 1451 326.677C1451.25 324.299 1451.5 321.921 1451.88 318.291C1450.21 321.331 1449.12 323.3 1448.04 325.269C1447.46 325.25 1446.88 325.232 1446.3 325.213C1445.53 321.769 1444.5 318.358 1444.07 314.872C1443.26 308.457 1443.93 301.606 1441.87 295.669C1439.83 289.801 1442.17 285.335 1442.93 281.888C1440.94 278.361 1439.55 275.914 1438 273.161C1438 275.942 1438.05 278.537 1437.98 281.13C1437.93 283.532 1438.6 286.432 1434.62 286.508C1434.32 286.513 1433.88 287.877 1433.8 288.639C1433.47 291.829 1433.29 295.034 1432.99 298.227C1432.31 305.401 1431.59 312.571 1430.88 319.743C1430.34 319.938 1429.79 320.132 1429.25 320.327C1428.19 318.235 1426.35 316.193 1426.22 314.042C1425.81 307.662 1426.07 301.239 1426.07 294.174C1424.25 296.523 1422.8 298.106 1421.7 299.903C1420.62 301.672 1419.89 303.659 1419.08 305.398C1417.56 304.088 1416.31 302.129 1414.74 301.839C1411.4 301.222 1409.43 299.779 1408.72 296.451C1408.5 295.413 1408.13 294.102 1407.37 293.535C1404.04 291.049 1403.81 290.802 1403.48 287.572C1403.22 284.91 1402.82 282.261 1402.53 279.989C1400.77 281.823 1399.45 284.264 1397.57 284.846C1395.73 285.413 1393.3 284.082 1392.05 283.795C1390.9 288.871 1390.06 294.71 1388.2 300.199C1386.08 306.447 1381.26 309.382 1374.39 308.093C1374.25 310.87 1374.46 313.378 1373.92 315.709C1373.05 319.454 1372.68 325.141 1370.29 326.317C1365.69 328.579 1367.96 331.368 1367.52 334.135C1367.14 336.518 1365.92 338.768 1364.85 340.941C1364.47 340.717 1364.32 340.629 1364.31 340.269C1363.87 339.137 1362.89 337.472 1362.76 337.536C1358.83 339.474 1359.37 335.494 1359.16 334.288C1357.52 324.762 1356.24 315.174 1354.94 306.234C1346.03 302.857 1349.13 295.047 1347.82 289.983C1346.36 292.324 1343.61 294.84 1343.26 297.657C1342.56 303.217 1342.71 309.005 1343.43 314.58C1343.92 318.422 1343.28 321.312 1341.02 324.037C1335.99 322.965 1333.71 320.452 1333.86 315.356C1334.01 310.449 1333.27 305.515 1332.92 300.593C1332.56 300.767 1332.2 300.94 1331.84 301.114C1330.36 299.231 1328.89 297.347 1327.9 296.085C1326.78 298.163 1325.98 301.117 1324.06 302.618C1322.99 303.446 1320.03 301.837 1317.91 301.323C1312.09 303.267 1313.1 308.48 1313.2 313.367C1313.27 316.783 1312.19 318.773 1308.26 317.299C1307.29 316.936 1306.16 316.998 1305.15 316.869C1305.49 319.251 1305.79 321.306 1306.08 323.361C1305.6 323.486 1305.12 323.612 1304.63 323.737C1303.87 321.235 1303.1 318.733 1302.06 315.299C1301.19 322.294 1300.42 328.436 1299.66 334.578C1298.72 334.6 1297.79 334.622 1296.85 334.645C1296.19 319.028 1292.63 303.798 1293.06 287.206C1291.7 290.192 1291.31 292.704 1289.84 293.902C1287.33 295.954 1287.21 298.308 1286.89 301.144C1285.27 315.611 1276.82 321.755 1262.7 318.89C1261.65 318.676 1260.54 317.575 1259.93 316.594C1257.45 312.637 1255.15 308.564 1253.17 305.19C1250.9 306.61 1249.13 308.585 1247.28 308.656C1245.28 308.732 1243.22 307.024 1241.03 306.02C1244.89 356.541 1244.92 406.83 1230 456C1186.65 456 1143.29 456 1099.47 456C1093.12 408.682 1091.43 361.176 1092.16 313.186C1086.28 315.877 1080.19 318.766 1074.01 321.475C1059.13 328.006 1043.87 329.823 1027.45 328.596C1007.37 327.096 990.407 319.738 974.572 308.168C962.708 299.499 950.24 291.634 938.645 282.633C933.412 278.571 929.65 272.615 925.216 267.522C916.715 257.756 914.568 245.589 911.788 233.5C910.239 226.764 905.761 220.612 904.726 213.871C903.422 205.377 901.636 196.089 906.126 188.072C909.999 181.157 914.91 174.619 922.537 170.949C924.57 169.97 926.355 168.478 928.257 167.225C935.203 162.649 941.829 157.427 949.224 153.754C953.288 151.735 958.639 152.238 963.427 151.777C965.709 151.557 968.029 151.739 970.485 151.739C970.99 145.485 971.534 139.276 971.941 133.058C971.995 132.227 971.224 131.375 971.061 130.491C970.843 129.309 970.492 127.949 970.887 126.935C971.124 126.328 972.656 126.078 973.644 125.936C981.26 124.837 988.902 123.907 996.503 122.711C1001.01 122.002 1000.86 118.153 1001.19 114.244C1002.35 115.34 1003.18 116.13 1004.63 117.498C1006.05 112.391 1007.32 107.811 1008.68 102.916C1010.01 108.188 1011.28 113.189 1012.52 118.107C1015.89 117.078 1017.91 116.461 1020.05 116.016C1017.93 117.691 1015.71 119.196 1012.52 121.356C1015.08 122.692 1017.24 123.809 1020 125.248C1020.24 121.41 1020.42 118.534 1020.6 115.658C1020.99 113.778 1021.39 111.898 1022.03 108.907C1023.32 112.068 1024.17 114.135 1024.87 116.952C1021.48 120.936 1022.43 126.206 1026.22 128.037C1031.27 130.475 1037.88 132.228 1040.55 136.377C1043.68 141.244 1047.95 144.187 1051.81 147.853C1052.86 148.857 1054.91 148.818 1057.21 149.454C1057.61 141.702 1057.96 134.991 1058.33 127.783C1046.18 128.748 1035.45 128.006 1026.91 119.594ZM1008.75 290.676C1010.68 288.311 1012.6 285.946 1014.56 283.548C1021.93 288.128 1025.16 288.366 1028.36 285.08C1026.58 282.891 1024.21 280.961 1023.15 278.474C1021.03 273.533 1019.73 268.253 1017.86 263.199C1017.54 262.347 1016.08 261.906 1015.12 261.317C1014.85 261.149 1014.48 261.126 1013.96 260.98C1015.05 260.043 1015.86 259.346 1016.76 258.572C1010.55 255.25 1006.3 249.563 1007.38 246.256C1002.22 246.633 997.489 249.66 991.873 245.473C986.04 241.124 986.72 234.502 983.544 229.003C985.21 232.915 983.451 234.923 980.26 235.76C976.499 236.746 977.993 239.073 978.597 241.151C982.371 254.142 986.257 267.1 989.982 280.105C992.646 289.41 999.34 293.516 1008.75 290.676ZM1971.89 267.65C1974.98 272.988 1977.74 278.558 1981.27 283.586C1983.72 287.07 1987.99 288.122 1991.9 286.42C1997.01 284.195 2003.44 282.54 2003.9 275.537C2004.88 260.885 2005.38 246.201 2005.94 231.525C2006.01 229.721 2005.29 227.886 2004.93 226.065C2003.72 230.265 2003.33 234.448 2002.39 238.501C2001.95 240.387 2000.75 242.395 1999.31 243.673C1997.55 245.226 1995.19 246.139 1993.02 247.183C1992.1 247.628 1990.63 248.251 1990.05 247.854C1987.48 246.093 1985.42 245.894 1983.63 248.802C1982.78 250.177 1981.81 251.476 1980.9 252.81C1980.8 252.328 1980.7 251.847 1980.6 251.365C1978.41 251.365 1976.13 251.745 1974.06 251.253C1972.17 250.806 1970.19 249.716 1968.88 248.317C1968.09 247.467 1968.51 245.49 1968.39 244.02C1967.78 244.024 1967.17 244.027 1966.56 244.031C1966.36 245.77 1965.63 247.653 1966.05 249.224C1967.66 255.196 1969.64 261.067 1971.89 267.65ZM2160.44 215.067C2160.3 215.704 2160.03 216.343 2160.04 216.978C2160.13 222.543 2160.5 228.117 2160.25 233.664C2160.17 235.342 2158.63 237.112 2157.4 238.532C2156.44 239.647 2154.92 240.289 2153.16 241.476C2153.16 241.475 2152.24 240.989 2151.33 240.503C2151.86 243.423 2152.91 246.109 2154.82 247.841C2159.2 251.805 2164.42 251.72 2170 248.629C2170 251.833 2169.87 253.995 2170.03 256.134C2170.47 262.051 2173.19 266.347 2178.97 268.483C2186.18 271.148 2191.7 267.25 2191.24 259.965C2191.14 258.398 2192.27 256.753 2192.99 254.687C2190.76 252.694 2187.6 250.473 2185.27 247.585C2183.32 245.179 2181.84 242.121 2181.06 239.116C2179.89 234.663 2180.14 229.787 2178.64 225.491C2177.27 221.58 2174.69 218.148 2175.71 213.632C2175.78 213.281 2174.02 211.947 2173.6 212.14C2167.26 215.037 2165.52 209.611 2162.46 205.506C2161.85 208.928 2161.36 211.678 2160.44 215.067ZM2038.6 247.08C2037.29 247.272 2035.98 247.465 2035.47 247.539C2034.12 250.436 2032.87 253.11 2031.07 256.967C2034.71 257.23 2038.15 257.386 2041.56 257.764C2043.38 257.966 2045.52 258.064 2046.9 259.058C2050.96 261.984 2055.23 263.675 2060.27 262.973C2065.16 262.292 2068.49 256.725 2065.97 253.215C2063.67 250.027 2061.56 246.129 2058.37 244.295C2053.66 241.589 2054.19 237.337 2053.27 233.429C2052.93 231.981 2053.55 230.336 2053.42 228.807C2052.58 218.961 2051.65 209.123 2050.76 199.297C2047.33 199.427 2046.77 200.148 2046.35 203.457C2045.63 209.105 2048.75 214.547 2047.05 220.26C2046.31 222.757 2045.25 225.533 2045.69 227.938C2047.08 235.602 2044.28 241.555 2038.6 247.08ZM2101 252.034C2101.33 255.293 2101.42 258.599 2102.04 261.8C2103.14 267.381 2108.93 271.565 2114.31 270.98C2120.31 270.328 2124.8 265.509 2125.01 259.514C2125.07 257.736 2125.2 255.961 2125.35 253.332C2122.5 252.662 2119.38 251.976 2116.29 251.159C2115.75 251.015 2115.39 250.266 2114.88 249.89C2110.52 246.691 2111.26 241.82 2110.88 237.386C2110.69 235.191 2111.1 232.944 2111.24 230.721C2110.82 230.682 2110.4 230.643 2109.98 230.604C2109.13 234.829 2108.32 239.062 2107.4 243.271C2107.18 244.24 2106.78 245.295 2106.14 246.019C2104.53 247.835 2102.73 249.485 2101 252.034ZM1495.24 303.199C1497.05 298.013 1498.32 292.493 1504.07 289.869C1504.56 289.645 1504.87 288.529 1504.88 287.823C1504.97 281.294 1505.29 274.741 1504.83 268.247C1504.66 265.812 1502.6 263.511 1501.4 261.15C1500.84 261.095 1500.28 261.04 1499.72 260.986C1501.41 268.339 1497.05 266.803 1493.55 266.105C1493.01 268.287 1492.41 270.158 1492.11 272.077C1491.69 274.802 1490.32 278.182 1491.4 280.191C1494.7 286.348 1493.73 292.491 1493.05 298.801C1492.84 300.768 1493.02 302.777 1493.02 305.336C1494.08 304.382 1494.44 304.057 1495.24 303.199ZM1625.9 315.243C1626.51 313.377 1627.04 311.487 1627.72 309.649C1629.29 305.376 1630.8 301.068 1629.6 296.45C1628.54 292.319 1627.19 288.26 1626.04 284.147C1625.63 282.667 1625.44 281.125 1625.15 279.611C1624.05 284.999 1622.17 290.802 1623.86 295.245C1626.02 300.941 1622.71 305.195 1622.67 310.126C1622.66 311.221 1620.32 312.299 1618.94 313.481C1618.21 308.271 1617.62 304.107 1617.03 299.942C1616.2 300.028 1615.36 300.114 1614.53 300.2C1614 313.107 1614.48 325.996 1616.33 340.167C1619.68 331.347 1622.61 323.648 1625.9 315.243ZM980.937 143.284C983.154 141.244 985.358 139.189 987.591 137.167C989.907 135.07 992.293 133.05 994.571 130.914C996.541 129.065 998.402 127.1 1000.31 125.187C999.971 124.818 999.631 124.449 999.291 124.08C990.919 125.798 982.547 127.516 974.547 129.157C974.547 136.105 974.547 142.45 974.547 148.794C975.02 149.084 975.492 149.375 975.965 149.665C977.497 147.744 979.029 145.824 980.937 143.284ZM1439.66 242.729C1437.78 243.177 1435.89 243.626 1434 244.074C1433.61 244.729 1433.22 245.383 1432.83 246.038C1435.93 247.727 1439.03 249.417 1442.13 251.106C1441.63 251.375 1441.12 251.643 1440.62 251.912C1442.29 251.195 1443.96 250.479 1444.77 250.133C1447.48 247.331 1449.73 245.011 1451.95 242.718C1447.07 237.266 1447.07 237.266 1441.36 237.003C1440.97 238.762 1440.58 240.487 1439.66 242.729ZM1566 318.868C1565.61 325.472 1565.22 332.076 1564.83 338.679C1565.38 338.717 1565.92 338.754 1566.46 338.791C1567.98 331.357 1569.17 323.833 1571.15 316.522C1572.45 311.695 1571.98 307.525 1568.7 301.999C1567.53 304.813 1566.33 306.608 1566.1 308.519C1565.73 311.638 1566 314.833 1566 318.868ZM1589.2 310.563C1590.12 311.88 1591.77 313.166 1591.83 314.52C1592 318.428 1591.6 322.371 1591.28 326.288C1590.91 330.795 1590.37 335.289 1589.9 339.789C1590.21 339.835 1590.53 339.881 1590.84 339.927C1593.47 330.123 1596.1 320.319 1598.62 310.919C1595.92 309.76 1593.61 308.772 1590.96 307.637C1590.57 308.094 1589.85 308.963 1589.2 310.563ZM2136 233.426C2136.72 226.473 2137.53 219.528 2138.08 212.562C2138.17 211.344 2137.14 210.038 2136.63 208.773C2134.13 223.729 2136.48 238.636 2127.25 251.396C2127.56 251.575 2126.92 251.208 2125.97 250.658C2126.18 251.902 2126.34 252.902 2126.53 254.015C2131.52 251.662 2131.16 251.604 2132.15 245.583C2132.79 241.718 2134.66 238.057 2136 233.426ZM1491.02 303.811C1489.15 314.456 1487.28 325.1 1485.33 336.158C1490.73 330.743 1491.58 327.557 1491.15 321.379C1490.83 316.826 1491.61 312.203 1491.76 307.607C1491.8 306.157 1491.4 304.691 1491.02 303.811ZM2051.63 196.646C2048.33 192.602 2051.13 187.628 2049.52 183.005C2048.42 183.156 2047.28 183.313 2046.14 183.469C2046.65 183.607 2047.15 183.745 2047.66 183.882C2047.53 186.644 2047.54 189.424 2047.21 192.162C2047 193.852 2046.28 195.478 2045.78 197.132C2047.59 197.155 2049.39 197.177 2051.63 196.646ZM2284 236.953C2282.51 238.939 2281.02 240.925 2279.52 242.911C2285.42 241.208 2287.04 238.232 2285.87 231.777C2285.04 234.044 2284.62 235.184 2284 236.953ZM1239 285.673C1238.58 283.123 1238.17 280.574 1237.75 278.025C1237.31 278.114 1236.87 278.204 1236.42 278.293C1236.3 278.743 1235.99 279.227 1236.07 279.639C1236.83 283.669 1237.65 287.687 1238.45 291.708C1238.63 291.683 1238.82 291.657 1239 291.632C1239 289.914 1239 288.195 1239 285.673ZM1358.11 189.482C1358.22 190.502 1358.32 191.521 1358.53 193.473C1359.44 191.687 1359.97 190.637 1360.5 189.588C1359.67 189.308 1358.84 189.028 1358.11 189.482Z" fill="#C9283E"/>
<path d="M3001 174.531C3000.22 174.275 2999.44 173.551 2998.66 172.826C2998.06 173.663 2997.33 174.436 2996.89 175.347C2995.43 178.323 2995.72 181.174 2996.96 184.537C2995.81 186.466 2994.13 189.284 2993.1 191.025C2989.65 192.275 2986.68 192.807 2984.34 194.32C2980.13 197.043 2976.47 200.24 2970.82 197.345C2969.9 196.873 2967.26 199.93 2965.31 201.203C2964.67 201.62 2963.67 201.805 2962.92 201.658C2961 201.28 2959.13 200.207 2957.24 200.213C2951.69 200.233 2950.4 199.079 2949.89 193.564C2949.72 191.656 2948.31 189.869 2948.1 187.956C2947.9 186.198 2948.99 184.287 2948.75 182.546C2947.91 176.353 2946.65 170.217 2945.8 164.026C2945.66 163.012 2947.07 161.873 2947.25 160.713C2947.97 155.957 2943.77 150.778 2937.23 150.94C2937.16 150.496 2937.09 150.052 2937.02 149.608C2941.5 149.154 2946.36 147.381 2950.4 148.517C2959 150.937 2965.64 148.079 2972.18 143.336C2973.23 142.569 2974.37 141.345 2975.49 141.318C2985.08 141.091 2992.09 134.665 3000.66 131.112C3001 145.354 3001 159.709 3001 174.531Z" fill="#C9283E"/>
<path d="M2629.92 211.075C2628.58 214.249 2627.94 218.098 2625.7 220.389C2623.85 222.282 2620.12 222.333 2616.99 223.268C2611.66 219.574 2608.28 214.742 2609.26 207.159C2609.68 203.826 2609.25 199.593 2604.15 198.406C2602.83 198.099 2601.76 195.653 2601.06 193.988C2598.17 187.143 2595.3 180.276 2592.77 173.291C2591.94 170.998 2592.16 168.323 2591.93 166.116C2588.33 165.99 2588.27 171.386 2584.04 170.418C2583.42 170.278 2581.81 172.866 2581.26 174.405C2579.62 178.928 2578.42 183.612 2576.73 188.11C2576.32 189.204 2574.65 189.826 2573.85 190.441C2564.59 190.75 2559.13 186.085 2557.14 176.498C2555.82 179.233 2554.9 181.45 2553.72 183.524C2551.41 187.603 2545.06 188.663 2541.03 186.321C2537.16 184.07 2534.2 181.48 2532.11 177.327C2531.22 175.556 2527.8 174.674 2525.37 174.223C2524.13 173.993 2522.71 175.262 2522.81 172.818C2522.22 172.885 2521.52 172.772 2521.05 173.048C2518.41 174.611 2518.28 181.687 2520.39 183.59C2518.7 186.565 2517.08 189.423 2515.46 192.28C2515.3 191.889 2515.15 191.498 2514.99 191.106C2512.14 192.422 2509.33 193.835 2506.42 195.029C2503.1 196.396 2498.46 199.561 2496.59 198.401C2492.94 196.152 2490.55 198.059 2489.31 199.604C2485.16 204.732 2480.89 198.307 2476.76 200.108C2476.38 200.272 2473.91 196.489 2472.99 194.293C2472.1 192.143 2471.96 189.68 2470.76 187.702C2471.18 186.395 2472.11 185.02 2471.94 183.792C2471.06 177.258 2469.82 170.773 2468.95 164.239C2468.81 163.226 2470.19 162.094 2470.36 160.942C2471.08 156.05 2466.31 150.321 2460.38 151.134C2460.29 150.662 2460.21 150.191 2460.12 149.719C2464.5 149.197 2469.31 147.255 2473.17 148.44C2482.02 151.16 2488.71 147.938 2495.39 143.151C2496.45 142.393 2497.6 141.314 2498.77 141.227C2509.72 140.409 2517.89 133.019 2527.57 129.243C2532.05 127.495 2536.83 126.541 2541.38 124.956C2546.61 123.136 2551.94 121.433 2556.84 118.929C2564.5 115.017 2571.66 110.118 2579.37 106.308C2585.82 103.118 2592.75 100.892 2599.46 98.2317C2602.77 96.9221 2606.15 95.7645 2609.34 94.2253C2612.17 92.8637 2613.98 93.4312 2616.87 95.0013C2623.64 98.6771 2631.08 101.125 2638.29 103.972C2640.38 104.799 2642.71 105.059 2644.75 105.987C2652.15 109.355 2659.49 112.881 2666.83 116.391C2667.85 116.881 2668.93 117.451 2669.7 118.259C2674.73 123.578 2681.32 124.935 2688.09 124.866C2693.37 124.813 2697.57 126.666 2701.92 129.23C2704.9 130.995 2708.43 131.885 2711.75 133.04C2714.67 134.053 2717.68 134.81 2720.6 135.82C2728.63 138.592 2737.05 137.814 2744.91 136.567C2753.26 135.242 2761.41 131.7 2769.22 128.178C2777.08 124.637 2785.15 125.169 2793.26 125.025C2801.68 124.876 2809.71 126.139 2817.66 129.572C2825.38 132.904 2833.76 134.723 2841.9 137.035C2847.84 138.724 2850.52 140.987 2851.83 144.939C2855.71 147.336 2858.31 149.584 2861.32 150.629C2864.9 151.868 2868.82 152.184 2872.62 152.654C2873.79 152.8 2875.07 152.142 2875.48 152.046C2876.29 156.383 2876.79 160.416 2877.83 164.305C2878.81 167.951 2880.35 171.445 2881.65 175.006C2882.1 175.014 2882.56 175.022 2883.01 175.031C2883.89 171.447 2884.91 167.891 2885.59 164.271C2886.11 161.482 2891.45 157.812 2894.21 158.637C2899.49 160.22 2903.8 157.789 2908.16 155.351C2910.42 154.088 2912.84 153.102 2915.74 152.151C2916.42 152.441 2916.54 152.571 2916.66 152.701C2913.11 157.28 2909.61 161.905 2905.95 166.396C2905.31 167.176 2903.99 167.397 2902.81 167.958C2903.23 168.349 2904.03 169.098 2904.58 169.615C2901.76 175.989 2896.71 182.296 2896.81 188.517C2896.93 195.577 2891.7 200.128 2891.74 206.656C2891.76 208.982 2889.44 211.325 2888.42 213.214C2884.43 214.702 2880.34 215.125 2876.29 211.218C2875.98 211.285 2874.78 211.548 2873.31 211.87C2870.72 205.042 2868.11 198.188 2865.61 191.614C2860.37 200.564 2854.09 192.605 2847.71 190.643C2846.92 195.858 2846.13 201.031 2845.6 204.508C2842.68 205.66 2841.13 206.274 2838.43 207.338C2837.18 207.452 2836.21 201.978 2832.62 205.266C2831.33 203.394 2829.55 201.681 2828.88 199.61C2828.07 197.084 2828.19 194.256 2827.9 191.594C2820.05 190.83 2816.15 194.906 2816.98 202.824C2817.55 208.221 2813.47 212.148 2807.96 211.584C2807.44 211.531 2806.89 211.955 2806.35 212.122C2801.65 213.557 2799.99 212.266 2800.14 208.193C2797.95 208.458 2795.64 208.585 2793.41 209.084C2792.47 209.295 2791.76 210.398 2790.84 210.896C2789.98 211.359 2788.61 212.099 2788.11 211.761C2786.94 210.956 2785.67 209.715 2785.33 208.414C2784.8 206.44 2785.02 204.266 2784.24 202.049C2782.36 211.406 2780.49 220.763 2778.65 229.966C2778.84 229.841 2779.38 229.489 2779.93 229.137C2780.16 229.343 2780.38 229.549 2780.61 229.755C2779.58 230.83 2778.74 232.249 2777.49 232.919C2772.73 235.481 2767.75 234.376 2763.3 232.376C2761.75 231.681 2760.11 227.718 2760.78 226.315C2762.07 223.576 2760.01 223.009 2759.13 223.323C2758.12 223.687 2757.65 225.597 2756.79 227.112C2754.25 225.782 2750.92 224.043 2747.46 222.234C2744.34 226.356 2744.45 229.31 2744.66 234.757C2744.89 240.931 2742.32 246.712 2737.8 251.258C2736.97 250.806 2736.6 250.697 2736.24 250.587C2736.47 251.083 2736.69 251.579 2736.92 252.075C2735.38 251.417 2733.85 250.759 2732.2 250.048C2732.31 250.785 2732.5 252.051 2732.7 253.373C2732.45 253.356 2732.06 253.425 2731.99 253.312C2731 251.5 2730.05 249.665 2728.83 247.355C2728.34 247.455 2727.02 247.726 2725.69 247.998C2725.42 247.654 2725.15 247.31 2724.88 246.965C2725.89 246.386 2726.91 245.806 2729.03 244.592C2726.05 244.933 2724.38 245.124 2722.6 245.328C2721.89 244.313 2721.05 243.107 2719.98 241.578C2721.21 241.232 2722.31 240.921 2723.23 240.662C2721.78 239.316 2720.4 238.04 2719.31 236.295C2719.64 235.395 2719.68 234.963 2719.73 234.53C2719.26 234.792 2718.79 235.053 2718.32 235.315C2716.44 234.218 2714.73 230.79 2712.57 235.361C2712.14 236.258 2709.13 235.928 2705.95 236.34C2707.63 234.444 2708.28 233.708 2709.71 232.103C2707.65 232.785 2706.64 233.116 2706.17 233.271C2700.92 231.243 2702.75 225.456 2699.5 222.113C2698.23 220.808 2699.82 216.823 2699.92 214.052C2700.04 210.8 2699.95 207.541 2699.95 204.715C2697.29 205.61 2694.86 206.257 2692.6 207.264C2691.57 207.719 2690.27 208.793 2690.12 209.752C2689.48 213.685 2689.44 217.715 2688.78 221.643C2688.29 224.558 2687.9 227.333 2683.79 228.404C2680.82 229.18 2679.19 233.399 2674.86 232.493C2670.37 231.552 2665.73 230.729 2661.18 230.832C2656.97 230.927 2655.1 228.558 2653.4 225.657C2652.76 224.56 2652.9 223.006 2652.68 221.662C2652.42 220.084 2652.72 217.653 2651.81 217.067C2645.39 212.901 2646.04 205.61 2642.74 199.376C2641.82 201.963 2640.9 204.549 2639.8 207.648C2639.92 207.674 2638.76 207.428 2636.93 207.041C2637.59 208.236 2638.02 208.999 2638.44 209.762C2638.33 210.164 2638.22 210.567 2638.1 210.97C2636.51 210.376 2634.96 209.603 2633.31 209.283C2632.72 209.167 2631.91 210.134 2630.77 210.262C2629.97 209.807 2629.6 209.697 2629.24 209.588C2629.47 210.083 2629.69 210.579 2629.92 211.075ZM2642.9 198.948C2643.01 198.627 2643.12 198.306 2643.23 197.985C2642.98 197.926 2642.73 197.868 2642.48 197.81C2642.42 198.082 2642.37 198.353 2642.9 198.948ZM2645.41 199.793C2645.51 199.701 2645.62 199.609 2645.72 199.517C2645.63 199.413 2645.54 199.234 2645.44 199.228C2645.34 199.223 2645.23 199.391 2645.41 199.793Z" fill="#C9283E"/>
<path d="M927.836 150.954C942.753 146.06 956.11 138.818 969.524 130.545C966.621 139.051 926.821 156.578 914.001 154.316C918.476 153.213 922.951 152.11 927.836 150.954Z" fill="#C9283E"/>
<path d="M2786.82 241.368C2786.71 245.457 2786.71 249.139 2786.71 252.821C2786.21 252.808 2785.7 252.795 2785.2 252.783C2785.2 246.264 2785.2 239.746 2785.2 233.228C2785.63 233.195 2786.06 233.162 2786.49 233.129C2786.64 235.74 2786.79 238.351 2786.82 241.368Z" fill="#C8263D"/>
<path d="M2444.53 149.171C2445.35 148.507 2446.52 147.761 2447.7 147.015C2447.97 147.633 2448.23 148.252 2448.5 148.871C2447.29 148.944 2446.09 149.017 2444.53 149.171Z" fill="#C9283E"/>
<path d="M2924.32 147.156C2924.53 149.256 2924.53 149.256 2920.05 148.551C2921.37 148.055 2922.68 147.559 2924.32 147.156Z" fill="#C9283E"/>
<path d="M1066.35 136.739C1065.6 136.268 1064.61 135.532 1063.79 134.344C1064.67 134.753 1065.39 135.613 1066.35 136.739Z" fill="#C9283E"/>
<path d="M1027.36 119.272C1026.15 118.91 1025.29 118.24 1024.7 117.243C1025.88 117.599 1026.8 118.281 1027.36 119.272Z" fill="#C9283E"/>
<path d="M1073.04 143.697C1072.17 143.414 1071.24 142.763 1070.66 141.764C1071.66 142.054 1072.32 142.692 1073.04 143.697Z" fill="#C9283E"/>
<path d="M1063.98 133.727C1063.41 133.593 1062.72 133.166 1061.98 132.327C1062.58 132.422 1063.22 132.928 1063.98 133.727Z" fill="#C9283E"/>
<path d="M1208.05 159.912C1208.02 159.161 1207.94 158.442 1208.09 157.52C1208.45 157.445 1208.57 157.573 1208.77 158.157C1208.54 159.079 1208.23 159.544 1207.92 160.01C1207.92 160.01 1208.01 159.945 1208.05 159.912Z" fill="#C9283E"/>
<path d="M2916.11 152.117C2916.78 151.405 2917.64 150.889 2918.49 150.373C2918.64 150.632 2918.79 150.891 2918.93 151.15C2918.37 151.522 2917.8 151.894 2916.95 152.483C2916.54 152.571 2916.42 152.442 2916.11 152.117Z" fill="#C9283E"/>
<path d="M2439.11 152.117C2439.78 151.406 2440.64 150.89 2441.49 150.374C2441.64 150.633 2441.79 150.892 2441.93 151.151C2441.37 151.522 2440.8 151.894 2439.95 152.484C2439.54 152.572 2439.42 152.442 2439.11 152.117Z" fill="#C9283E"/>
<path d="M1096.51 119.508C1096.78 119.059 1097.25 118.796 1097.72 118.532C1097.68 118.963 1097.63 119.394 1097.33 119.946C1096.95 119.943 1096.83 119.819 1096.51 119.508Z" fill="#C9283E"/>
<path d="M1358.06 189.115C1358.84 189.028 1359.67 189.308 1360.5 189.587C1359.97 190.637 1359.44 191.687 1358.53 193.473C1358.32 191.521 1358.22 190.501 1358.06 189.115Z" fill="black"/>
<path d="M1767.49 236.494C1767.29 237.804 1766.89 238.926 1766.5 240.047C1766.34 240.024 1766.19 240.001 1766.04 239.978C1766.13 238.749 1766.23 237.52 1766.62 236.11C1767.04 236.054 1767.17 236.18 1767.49 236.494Z" fill="black"/>
<path d="M1208.11 160.337C1208.23 159.544 1208.54 159.079 1208.96 158.35C1208.81 158.945 1208.56 159.805 1208.11 160.337Z" fill="black"/>
<path d="M1679.49 152.495C1679.21 152.946 1678.74 153.207 1678.27 153.469C1678.32 153.037 1678.36 152.605 1678.66 152.051C1679.04 152.055 1679.17 152.181 1679.49 152.495Z" fill="black"/>
<path d="M1364.85 340.941C1364.74 341.052 1364.4 341.026 1364.12 340.771C1364.32 340.629 1364.47 340.717 1364.85 340.941Z" fill="#C9283E"/>
</g>
<defs>
<clipPath id="clip0_1_1054">
<rect width="3000" height="455" fill="white"/>
</clipPath>
</defs>
</svg>
